<svg version='1.1' width='1.962740' height='1.962740' viewbox='0 0 1.962740 1.962740' xmlns='http://www.w3.org/2000/svg'>
	<g transform='translate(0.481370,0.481370)'>
		<polygon style='fill: none; stroke: black; stroke-width: 0.005px; ' points="0.000000,0.000000 0.000000,1.000000 1.000000,1.000000 1.000000,0.000000 " />
		<polygon style='fill: none; stroke: black; stroke-width: 0.005px; ' points="0.000000,0.000000 0.000000,0.333000 -0.333000,0.333000 -0.333000,0.667000 0.000000,0.667000 0.000000,0.333000 0.333000,0.333000 0.333000,0.667000 0.000000,0.667000 0.000000,1.000000 0.333000,1.000000 0.333000,1.333000 0.667000,1.333000 0.667000,1.000000 0.333000,1.000000 0.333000,0.667000 0.667000,0.667000 0.667000,1.000000 1.000000,1.000000 1.000000,0.667000 1.333000,0.667000 1.333000,0.333000 1.000000,0.333000 1.000000,0.667000 0.667000,0.667000 0.667000,0.333000 1.000000,0.333000 1.000000,0.000000 0.667000,0.000000 0.667000,-0.333000 0.333000,-0.333000 0.333000,0.000000 0.667000,0.000000 0.667000,0.333000 0.333000,0.333000 0.333000,0.000000 " />
		<polygon style='fill: none; stroke: black; stroke-width: 0.005px; ' points="0.000000,0.000000 0.000000,0.110889 -0.110889,0.110889 -0.110889,0.222111 0.000000,0.222111 0.000000,0.110889 0.110889,0.110889 0.110889,0.222111 0.000000,0.222111 0.000000,0.333000 -0.110889,0.333000 -0.110889,0.222111 -0.222111,0.222111 -0.222111,0.333000 -0.110889,0.333000 -0.110889,0.443889 -0.222111,0.443889 -0.222111,0.333000 -0.333000,0.333000 -0.333000,0.444222 -0.444222,0.444222 -0.444222,0.555778 -0.333000,0.555778 -0.333000,0.444222 -0.221778,0.444222 -0.221778,0.555778 -0.333000,0.555778 -0.333000,0.667000 -0.222111,0.667000 -0.222111,0.777889 -0.110889,0.777889 -0.110889,0.667000 -0.222111,0.667000 -0.222111,0.556111 -0.110889,0.556111 -0.110889,0.667000 0.000000,0.667000 0.000000,0.555778 0.111222,0.555778 0.111222,0.444222 0.000000,0.444222 0.000000,0.555778 -0.111222,0.555778 -0.111222,0.444222 0.000000,0.444222 0.000000,0.333000 0.110889,0.333000 0.110889,0.443889 0.222111,0.443889 0.222111,0.333000 0.110889,0.333000 0.110889,0.222111 0.222111,0.222111 0.222111,0.333000 0.333000,0.333000 0.333000,0.444222 0.221778,0.444222 0.221778,0.555778 0.333000,0.555778 0.333000,0.444222 0.444222,0.444222 0.444222,0.555778 0.333000,0.555778 0.333000,0.667000 0.222111,0.667000 0.222111,0.556111 0.110889,0.556111 0.110889,0.667000 0.222111,0.667000 0.222111,0.777889 0.110889,0.777889 0.110889,0.667000 0.000000,0.667000 0.000000,0.777889 -0.110889,0.777889 -0.110889,0.889111 0.000000,0.889111 0.000000,0.777889 0.110889,0.777889 0.110889,0.889111 0.000000,0.889111 0.000000,1.000000 0.110889,1.000000 0.110889,1.110889 0.222111,1.110889 0.222111,1.000000 0.110889,1.000000 0.110889,0.889111 0.222111,0.889111 0.222111,1.000000 0.333000,1.000000 0.333000,1.110889 0.222111,1.110889 0.222111,1.222111 0.333000,1.222111 0.333000,1.110889 0.443889,1.110889 0.443889,1.222111 0.333000,1.222111 0.333000,1.333000 0.444222,1.333000 0.444222,1.444222 0.555778,1.444222 0.555778,1.333000 0.444222,1.333000 0.444222,1.221778 0.555778,1.221778 0.555778,1.333000 0.667000,1.333000 0.667000,1.222111 0.777889,1.222111 0.777889,1.110889 0.667000,1.110889 0.667000,1.222111 0.556111,1.222111 0.556111,1.110889 0.667000,1.110889 0.667000,1.000000 0.555778,1.000000 0.555778,0.888778 0.444222,0.888778 0.444222,1.000000 0.555778,1.000000 0.555778,1.111222 0.444222,1.111222 0.444222,1.000000 0.333000,1.000000 0.333000,0.889111 0.443889,0.889111 0.443889,0.777889 0.333000,0.777889 0.333000,0.889111 0.222111,0.889111 0.222111,0.777889 0.333000,0.777889 0.333000,0.667000 0.444222,0.667000 0.444222,0.778222 0.555778,0.778222 0.555778,0.667000 0.444222,0.667000 0.444222,0.555778 0.555778,0.555778 0.555778,0.667000 0.667000,0.667000 0.667000,0.777889 0.556111,0.777889 0.556111,0.889111 0.667000,0.889111 0.667000,0.777889 0.777889,0.777889 0.777889,0.889111 0.667000,0.889111 0.667000,1.000000 0.777889,1.000000 0.777889,1.110889 0.889111,1.110889 0.889111,1.000000 0.777889,1.000000 0.777889,0.889111 0.889111,0.889111 0.889111,1.000000 1.000000,1.000000 1.000000,0.889111 1.110889,0.889111 1.110889,0.777889 1.000000,0.777889 1.000000,0.889111 0.889111,0.889111 0.889111,0.777889 1.000000,0.777889 1.000000,0.667000 1.110889,0.667000 1.110889,0.777889 1.222111,0.777889 1.222111,0.667000 1.110889,0.667000 1.110889,0.556111 1.222111,0.556111 1.222111,0.667000 1.333000,0.667000 1.333000,0.555778 1.444222,0.555778 1.444222,0.444222 1.333000,0.444222 1.333000,0.555778 1.221778,0.555778 1.221778,0.444222 1.333000,0.444222 1.333000,0.333000 1.222111,0.333000 1.222111,0.222111 1.110889,0.222111 1.110889,0.333000 1.222111,0.333000 1.222111,0.443889 1.110889,0.443889 1.110889,0.333000 1.000000,0.333000 1.000000,0.444222 0.888778,0.444222 0.888778,0.555778 1.000000,0.555778 1.000000,0.444222 1.111222,0.444222 1.111222,0.555778 1.000000,0.555778 1.000000,0.667000 0.889111,0.667000 0.889111,0.556111 0.777889,0.556111 0.777889,0.667000 0.889111,0.667000 0.889111,0.777889 0.777889,0.777889 0.777889,0.667000 0.667000,0.667000 0.667000,0.555778 0.778222,0.555778 0.778222,0.444222 0.667000,0.444222 0.667000,0.555778 0.555778,0.555778 0.555778,0.444222 0.667000,0.444222 0.667000,0.333000 0.777889,0.333000 0.777889,0.443889 0.889111,0.443889 0.889111,0.333000 0.777889,0.333000 0.777889,0.222111 0.889111,0.222111 0.889111,0.333000 1.000000,0.333000 1.000000,0.222111 1.110889,0.222111 1.110889,0.110889 1.000000,0.110889 1.000000,0.222111 0.889111,0.222111 0.889111,0.110889 1.000000,0.110889 1.000000,0.000000 0.889111,0.000000 0.889111,-0.110889 0.777889,-0.110889 0.777889,0.000000 0.889111,0.000000 0.889111,0.110889 0.777889,0.110889 0.777889,0.000000 0.667000,0.000000 0.667000,-0.110889 0.777889,-0.110889 0.777889,-0.222111 0.667000,-0.222111 0.667000,-0.110889 0.556111,-0.110889 0.556111,-0.222111 0.667000,-0.222111 0.667000,-0.333000 0.555778,-0.333000 0.555778,-0.444222 0.444222,-0.444222 0.444222,-0.333000 0.555778,-0.333000 0.555778,-0.221778 0.444222,-0.221778 0.444222,-0.333000 0.333000,-0.333000 0.333000,-0.222111 0.222111,-0.222111 0.222111,-0.110889 0.333000,-0.110889 0.333000,-0.222111 0.443889,-0.222111 0.443889,-0.110889 0.333000,-0.110889 0.333000,0.000000 0.444222,0.000000 0.444222,0.111222 0.555778,0.111222 0.555778,0.000000 0.444222,0.000000 0.444222,-0.111222 0.555778,-0.111222 0.555778,0.000000 0.667000,0.000000 0.667000,0.110889 0.556111,0.110889 0.556111,0.222111 0.667000,0.222111 0.667000,0.110889 0.777889,0.110889 0.777889,0.222111 0.667000,0.222111 0.667000,0.333000 0.555778,0.333000 0.555778,0.221778 0.444222,0.221778 0.444222,0.333000 0.555778,0.333000 0.555778,0.444222 0.444222,0.444222 0.444222,0.333000 0.333000,0.333000 0.333000,0.222111 0.443889,0.222111 0.443889,0.110889 0.333000,0.110889 0.333000,0.222111 0.222111,0.222111 0.222111,0.110889 0.333000,0.110889 0.333000,0.000000 0.222111,0.000000 0.222111,-0.110889 0.110889,-0.110889 0.110889,0.000000 0.222111,0.000000 0.222111,0.110889 0.110889,0.110889 0.110889,0.000000 " />
<polygon style='fill: none; stroke: black; stroke-width: 0.005px; ' points="0.000000,0.000000 0.000000,0.036926 -0.036926,0.036926 -0.036926,0.073963 0.000000,0.073963 0.000000,0.036926 0.036926,0.036926 0.036926,0.073963 0.000000,0.073963 0.000000,0.110889 -0.036926,0.110889 -0.036926,0.073963 -0.073963,0.073963 -0.073963,0.110889 -0.036926,0.110889 -0.036926,0.147815 -0.073963,0.147815 -0.073963,0.110889 -0.110889,0.110889 -0.110889,0.147926 -0.147926,0.147926 -0.147926,0.185074 -0.110889,0.185074 -0.110889,0.147926 -0.073852,0.147926 -0.073852,0.185074 -0.110889,0.185074 -0.110889,0.222111 -0.073963,0.222111 -0.073963,0.259037 -0.036926,0.259037 -0.036926,0.222111 -0.073963,0.222111 -0.073963,0.185185 -0.036926,0.185185 -0.036926,0.222111 0.000000,0.222111 0.000000,0.185074 0.037037,0.185074 0.037037,0.147926 0.000000,0.147926 0.000000,0.185074 -0.037037,0.185074 -0.037037,0.147926 0.000000,0.147926 0.000000,0.110889 0.036926,0.110889 0.036926,0.147815 0.073963,0.147815 0.073963,0.110889 0.036926,0.110889 0.036926,0.073963 0.073963,0.073963 0.073963,0.110889 0.110889,0.110889 0.110889,0.147926 0.073852,0.147926 0.073852,0.185074 0.110889,0.185074 0.110889,0.147926 0.147926,0.147926 0.147926,0.185074 0.110889,0.185074 0.110889,0.222111 0.073963,0.222111 0.073963,0.185185 0.036926,0.185185 0.036926,0.222111 0.073963,0.222111 0.073963,0.259037 0.036926,0.259037 0.036926,0.222111 0.000000,0.222111 0.000000,0.259037 -0.036926,0.259037 -0.036926,0.296074 0.000000,0.296074 0.000000,0.259037 0.036926,0.259037 0.036926,0.296074 0.000000,0.296074 0.000000,0.333000 -0.036926,0.333000 -0.036926,0.296074 -0.073963,0.296074 -0.073963,0.333000 -0.036926,0.333000 -0.036926,0.369926 -0.073963,0.369926 -0.073963,0.333000 -0.110889,0.333000 -0.110889,0.296074 -0.073963,0.296074 -0.073963,0.259037 -0.110889,0.259037 -0.110889,0.296074 -0.147815,0.296074 -0.147815,0.259037 -0.110889,0.259037 -0.110889,0.222111 -0.147926,0.222111 -0.147926,0.185074 -0.185074,0.185074 -0.185074,0.222111 -0.147926,0.222111 -0.147926,0.259148 -0.185074,0.259148 -0.185074,0.222111 -0.222111,0.222111 -0.222111,0.259037 -0.259037,0.259037 -0.259037,0.296074 -0.222111,0.296074 -0.222111,0.259037 -0.185185,0.259037 -0.185185,0.296074 -0.222111,0.296074 -0.222111,0.333000 -0.185074,0.333000 -0.185074,0.370037 -0.147926,0.370037 -0.147926,0.333000 -0.185074,0.333000 -0.185074,0.295963 -0.147926,0.295963 -0.147926,0.333000 -0.110889,0.333000 -0.110889,0.369926 -0.147815,0.369926 -0.147815,0.406963 -0.110889,0.406963 -0.110889,0.369926 -0.073963,0.369926 -0.073963,0.406963 -0.110889,0.406963 -0.110889,0.443889 -0.147926,0.443889 -0.147926,0.406852 -0.185074,0.406852 -0.185074,0.443889 -0.147926,0.443889 -0.147926,0.480926 -0.185074,0.480926 -0.185074,0.443889 -0.222111,0.443889 -0.222111,0.406963 -0.185185,0.406963 -0.185185,0.369926 -0.222111,0.369926 -0.222111,0.406963 -0.259037,0.406963 -0.259037,0.369926 -0.222111,0.369926 -0.222111,0.333000 -0.259037,0.333000 -0.259037,0.296074 -0.296074,0.296074 -0.296074,0.333000 -0.259037,0.333000 -0.259037,0.369926 -0.296074,0.369926 -0.296074,0.333000 -0.333000,0.333000 -0.333000,0.370037 -0.370037,0.370037 -0.370037,0.407185 -0.333000,0.407185 -0.333000,0.370037 -0.295963,0.370037 -0.295963,0.407185 -0.333000,0.407185 -0.333000,0.444222 -0.370037,0.444222 -0.370037,0.407185 -0.407185,0.407185 -0.407185,0.444222 -0.370037,0.444222 -0.370037,0.481259 -0.407185,0.481259 -0.407185,0.444222 -0.444222,0.444222 -0.444222,0.481370 -0.481370,0.481370 -0.481370,0.518630 -0.444222,0.518630 -0.444222,0.481370 -0.407074,0.481370 -0.407074,0.518630 -0.444222,0.518630 -0.444222,0.555778 -0.407185,0.555778 -0.407185,0.592815 -0.370037,0.592815 -0.370037,0.555778 -0.407185,0.555778 -0.407185,0.518741 -0.370037,0.518741 -0.370037,0.555778 -0.333000,0.555778 -0.333000,0.518630 -0.295852,0.518630 -0.295852,0.481370 -0.333000,0.481370 -0.333000,0.518630 -0.370148,0.518630 -0.370148,0.481370 -0.333000,0.481370 -0.333000,0.444222 -0.295963,0.444222 -0.295963,0.481259 -0.258815,0.481259 -0.258815,0.444222 -0.295963,0.444222 -0.295963,0.407185 -0.258815,0.407185 -0.258815,0.444222 -0.221778,0.444222 -0.221778,0.481370 -0.258926,0.481370 -0.258926,0.518630 -0.221778,0.518630 -0.221778,0.481370 -0.184630,0.481370 -0.184630,0.518630 -0.221778,0.518630 -0.221778,0.555778 -0.258815,0.555778 -0.258815,0.518741 -0.295963,0.518741 -0.295963,0.555778 -0.258815,0.555778 -0.258815,0.592815 -0.295963,0.592815 -0.295963,0.555778 -0.333000,0.555778 -0.333000,0.592815 -0.370037,0.592815 -0.370037,0.629963 -0.333000,0.629963 -0.333000,0.592815 -0.295963,0.592815 -0.295963,0.629963 -0.333000,0.629963 -0.333000,0.667000 -0.296074,0.667000 -0.296074,0.703926 -0.259037,0.703926 -0.259037,0.667000 -0.296074,0.667000 -0.296074,0.630074 -0.259037,0.630074 -0.259037,0.667000 -0.222111,0.667000 -0.222111,0.703926 -0.259037,0.703926 -0.259037,0.740963 -0.222111,0.740963 -0.222111,0.703926 -0.185185,0.703926 -0.185185,0.740963 -0.222111,0.740963 -0.222111,0.777889 -0.185074,0.777889 -0.185074,0.814926 -0.147926,0.814926 -0.147926,0.777889 -0.185074,0.777889 -0.185074,0.740852 -0.147926,0.740852 -0.147926,0.777889 -0.110889,0.777889 -0.110889,0.740963 -0.073963,0.740963 -0.073963,0.703926 -0.110889,0.703926 -0.110889,0.740963 -0.147815,0.740963 -0.147815,0.703926 -0.110889,0.703926 -0.110889,0.667000 -0.147926,0.667000 -0.147926,0.629963 -0.185074,0.629963 -0.185074,0.667000 -0.147926,0.667000 -0.147926,0.704037 -0.185074,0.704037 -0.185074,0.667000 -0.222111,0.667000 -0.222111,0.630074 -0.185185,0.630074 -0.185185,0.593037 -0.222111,0.593037 -0.222111,0.630074 -0.259037,0.630074 -0.259037,0.593037 -0.222111,0.593037 -0.222111,0.556111 -0.185074,0.556111 -0.185074,0.593148 -0.147926,0.593148 -0.147926,0.556111 -0.185074,0.556111 -0.185074,0.519074 -0.147926,0.519074 -0.147926,0.556111 -0.110889,0.556111 -0.110889,0.593037 -0.147815,0.593037 -0.147815,0.630074 -0.110889,0.630074 -0.110889,0.593037 -0.073963,0.593037 -0.073963,0.630074 -0.110889,0.630074 -0.110889,0.667000 -0.073963,0.667000 -0.073963,0.703926 -0.036926,0.703926 -0.036926,0.667000 -0.073963,0.667000 -0.073963,0.630074 -0.036926,0.630074 -0.036926,0.667000 0.000000,0.667000 0.000000,0.629963 0.037037,0.629963 0.037037,0.592815 0.000000,0.592815 0.000000,0.629963 -0.037037,0.629963 -0.037037,0.592815 0.000000,0.592815 0.000000,0.555778 0.037037,0.555778 0.037037,0.592815 0.074185,0.592815 0.074185,0.555778 0.037037,0.555778 0.037037,0.518741 0.074185,0.518741 0.074185,0.555778 0.111222,0.555778 0.111222,0.518630 0.148370,0.518630 0.148370,0.481370 0.111222,0.481370 0.111222,0.518630 0.074074,0.518630 0.074074,0.481370 0.111222,0.481370 0.111222,0.444222 0.074185,0.444222 0.074185,0.407185 0.037037,0.407185 0.037037,0.444222 0.074185,0.444222 0.074185,0.481259 0.037037,0.481259 0.037037,0.444222 0.000000,0.444222 0.000000,0.481370 -0.037148,0.481370 -0.037148,0.518630 0.000000,0.518630 0.000000,0.481370 0.037148,0.481370 0.037148,0.518630 0.000000,0.518630 0.000000,0.555778 -0.037037,0.555778 -0.037037,0.518741 -0.074185,0.518741 -0.074185,0.555778 -0.037037,0.555778 -0.037037,0.592815 -0.074185,0.592815 -0.074185,0.555778 -0.111222,0.555778 -0.111222,0.518630 -0.074074,0.518630 -0.074074,0.481370 -0.111222,0.481370 -0.111222,0.518630 -0.148370,0.518630 -0.148370,0.481370 -0.111222,0.481370 -0.111222,0.444222 -0.074185,0.444222 -0.074185,0.481259 -0.037037,0.481259 -0.037037,0.444222 -0.074185,0.444222 -0.074185,0.407185 -0.037037,0.407185 -0.037037,0.444222 0.000000,0.444222 0.000000,0.407185 0.037037,0.407185 0.037037,0.370037 0.000000,0.370037 0.000000,0.407185 -0.037037,0.407185 -0.037037,0.370037 0.000000,0.370037 0.000000,0.333000 0.036926,0.333000 0.036926,0.369926 0.073963,0.369926 0.073963,0.333000 0.036926,0.333000 0.036926,0.296074 0.073963,0.296074 0.073963,0.333000 0.110889,0.333000 0.110889,0.369926 0.073963,0.369926 0.073963,0.406963 0.110889,0.406963 0.110889,0.369926 0.147815,0.369926 0.147815,0.406963 0.110889,0.406963 0.110889,0.443889 0.147926,0.443889 0.147926,0.480926 0.185074,0.480926 0.185074,0.443889 0.147926,0.443889 0.147926,0.406852 0.185074,0.406852 0.185074,0.443889 0.222111,0.443889 0.222111,0.406963 0.259037,0.406963 0.259037,0.369926 0.222111,0.369926 0.222111,0.406963 0.185185,0.406963 0.185185,0.369926 0.222111,0.369926 0.222111,0.333000 0.185074,0.333000 0.185074,0.295963 0.147926,0.295963 0.147926,0.333000 0.185074,0.333000 0.185074,0.370037 0.147926,0.370037 0.147926,0.333000 0.110889,0.333000 0.110889,0.296074 0.147815,0.296074 0.147815,0.259037 0.110889,0.259037 0.110889,0.296074 0.073963,0.296074 0.073963,0.259037 0.110889,0.259037 0.110889,0.222111 0.147926,0.222111 0.147926,0.259148 0.185074,0.259148 0.185074,0.222111 0.147926,0.222111 0.147926,0.185074 0.185074,0.185074 0.185074,0.222111 0.222111,0.222111 0.222111,0.259037 0.185185,0.259037 0.185185,0.296074 0.222111,0.296074 0.222111,0.259037 0.259037,0.259037 0.259037,0.296074 0.222111,0.296074 0.222111,0.333000 0.259037,0.333000 0.259037,0.369926 0.296074,0.369926 0.296074,0.333000 0.259037,0.333000 0.259037,0.296074 0.296074,0.296074 0.296074,0.333000 0.333000,0.333000 0.333000,0.370037 0.295963,0.370037 0.295963,0.407185 0.333000,0.407185 0.333000,0.370037 0.370037,0.370037 0.370037,0.407185 0.333000,0.407185 0.333000,0.444222 0.295963,0.444222 0.295963,0.407185 0.258815,0.407185 0.258815,0.444222 0.295963,0.444222 0.295963,0.481259 0.258815,0.481259 0.258815,0.444222 0.221778,0.444222 0.221778,0.481370 0.184630,0.481370 0.184630,0.518630 0.221778,0.518630 0.221778,0.481370 0.258926,0.481370 0.258926,0.518630 0.221778,0.518630 0.221778,0.555778 0.258815,0.555778 0.258815,0.592815 0.295963,0.592815 0.295963,0.555778 0.258815,0.555778 0.258815,0.518741 0.295963,0.518741 0.295963,0.555778 0.333000,0.555778 0.333000,0.518630 0.370148,0.518630 0.370148,0.481370 0.333000,0.481370 0.333000,0.518630 0.295852,0.518630 0.295852,0.481370 0.333000,0.481370 0.333000,0.444222 0.370037,0.444222 0.370037,0.481259 0.407185,0.481259 0.407185,0.444222 0.370037,0.444222 0.370037,0.407185 0.407185,0.407185 0.407185,0.444222 0.444222,0.444222 0.444222,0.481370 0.407074,0.481370 0.407074,0.518630 0.444222,0.518630 0.444222,0.481370 0.481370,0.481370 0.481370,0.518630 0.444222,0.518630 0.444222,0.555778 0.407185,0.555778 0.407185,0.518741 0.370037,0.518741 0.370037,0.555778 0.407185,0.555778 0.407185,0.592815 0.370037,0.592815 0.370037,0.555778 0.333000,0.555778 0.333000,0.592815 0.295963,0.592815 0.295963,0.629963 0.333000,0.629963 0.333000,0.592815 0.370037,0.592815 0.370037,0.629963 0.333000,0.629963 0.333000,0.667000 0.296074,0.667000 0.296074,0.630074 0.259037,0.630074 0.259037,0.667000 0.296074,0.667000 0.296074,0.703926 0.259037,0.703926 0.259037,0.667000 0.222111,0.667000 0.222111,0.630074 0.259037,0.630074 0.259037,0.593037 0.222111,0.593037 0.222111,0.630074 0.185185,0.630074 0.185185,0.593037 0.222111,0.593037 0.222111,0.556111 0.185074,0.556111 0.185074,0.519074 0.147926,0.519074 0.147926,0.556111 0.185074,0.556111 0.185074,0.593148 0.147926,0.593148 0.147926,0.556111 0.110889,0.556111 0.110889,0.593037 0.073963,0.593037 0.073963,0.630074 0.110889,0.630074 0.110889,0.593037 0.147815,0.593037 0.147815,0.630074 0.110889,0.630074 0.110889,0.667000 0.147926,0.667000 0.147926,0.704037 0.185074,0.704037 0.185074,0.667000 0.147926,0.667000 0.147926,0.629963 0.185074,0.629963 0.185074,0.667000 0.222111,0.667000 0.222111,0.703926 0.185185,0.703926 0.185185,0.740963 0.222111,0.740963 0.222111,0.703926 0.259037,0.703926 0.259037,0.740963 0.222111,0.740963 0.222111,0.777889 0.185074,0.777889 0.185074,0.740852 0.147926,0.740852 0.147926,0.777889 0.185074,0.777889 0.185074,0.814926 0.147926,0.814926 0.147926,0.777889 0.110889,0.777889 0.110889,0.740963 0.147815,0.740963 0.147815,0.703926 0.110889,0.703926 0.110889,0.740963 0.073963,0.740963 0.073963,0.703926 0.110889,0.703926 0.110889,0.667000 0.073963,0.667000 0.073963,0.630074 0.036926,0.630074 0.036926,0.667000 0.073963,0.667000 0.073963,0.703926 0.036926,0.703926 0.036926,0.667000 0.000000,0.667000 0.000000,0.703926 -0.036926,0.703926 -0.036926,0.740963 0.000000,0.740963 0.000000,0.703926 0.036926,0.703926 0.036926,0.740963 0.000000,0.740963 0.000000,0.777889 -0.036926,0.777889 -0.036926,0.740963 -0.073963,0.740963 -0.073963,0.777889 -0.036926,0.777889 -0.036926,0.814815 -0.073963,0.814815 -0.073963,0.777889 -0.110889,0.777889 -0.110889,0.814926 -0.147926,0.814926 -0.147926,0.852074 -0.110889,0.852074 -0.110889,0.814926 -0.073852,0.814926 -0.073852,0.852074 -0.110889,0.852074 -0.110889,0.889111 -0.073963,0.889111 -0.073963,0.926037 -0.036926,0.926037 -0.036926,0.889111 -0.073963,0.889111 -0.073963,0.852185 -0.036926,0.852185 -0.036926,0.889111 0.000000,0.889111 0.000000,0.852074 0.037037,0.852074 0.037037,0.814926 0.000000,0.814926 0.000000,0.852074 -0.037037,0.852074 -0.037037,0.814926 0.000000,0.814926 0.000000,0.777889 0.036926,0.777889 0.036926,0.814815 0.073963,0.814815 0.073963,0.777889 0.036926,0.777889 0.036926,0.740963 0.073963,0.740963 0.073963,0.777889 0.110889,0.777889 0.110889,0.814926 0.073852,0.814926 0.073852,0.852074 0.110889,0.852074 0.110889,0.814926 0.147926,0.814926 0.147926,0.852074 0.110889,0.852074 0.110889,0.889111 0.073963,0.889111 0.073963,0.852185 0.036926,0.852185 0.036926,0.889111 0.073963,0.889111 0.073963,0.926037 0.036926,0.926037 0.036926,0.889111 0.000000,0.889111 0.000000,0.926037 -0.036926,0.926037 -0.036926,0.963074 0.000000,0.963074 0.000000,0.926037 0.036926,0.926037 0.036926,0.963074 0.000000,0.963074 0.000000,1.000000 0.036926,1.000000 0.036926,1.036926 0.073963,1.036926 0.073963,1.000000 0.036926,1.000000 0.036926,0.963074 0.073963,0.963074 0.073963,1.000000 0.110889,1.000000 0.110889,1.036926 0.073963,1.036926 0.073963,1.073963 0.110889,1.073963 0.110889,1.036926 0.147815,1.036926 0.147815,1.073963 0.110889,1.073963 0.110889,1.110889 0.147926,1.110889 0.147926,1.147926 0.185074,1.147926 0.185074,1.110889 0.147926,1.110889 0.147926,1.073852 0.185074,1.073852 0.185074,1.110889 0.222111,1.110889 0.222111,1.073963 0.259037,1.073963 0.259037,1.036926 0.222111,1.036926 0.222111,1.073963 0.185185,1.073963 0.185185,1.036926 0.222111,1.036926 0.222111,1.000000 0.185074,1.000000 0.185074,0.962963 0.147926,0.962963 0.147926,1.000000 0.185074,1.000000 0.185074,1.037037 0.147926,1.037037 0.147926,1.000000 0.110889,1.000000 0.110889,0.963074 0.147815,0.963074 0.147815,0.926037 0.110889,0.926037 0.110889,0.963074 0.073963,0.963074 0.073963,0.926037 0.110889,0.926037 0.110889,0.889111 0.147926,0.889111 0.147926,0.926148 0.185074,0.926148 0.185074,0.889111 0.147926,0.889111 0.147926,0.852074 0.185074,0.852074 0.185074,0.889111 0.222111,0.889111 0.222111,0.926037 0.185185,0.926037 0.185185,0.963074 0.222111,0.963074 0.222111,0.926037 0.259037,0.926037 0.259037,0.963074 0.222111,0.963074 0.222111,1.000000 0.259037,1.000000 0.259037,1.036926 0.296074,1.036926 0.296074,1.000000 0.259037,1.000000 0.259037,0.963074 0.296074,0.963074 0.296074,1.000000 0.333000,1.000000 0.333000,1.036926 0.296074,1.036926 0.296074,1.073963 0.333000,1.073963 0.333000,1.036926 0.369926,1.036926 0.369926,1.073963 0.333000,1.073963 0.333000,1.110889 0.296074,1.110889 0.296074,1.073963 0.259037,1.073963 0.259037,1.110889 0.296074,1.110889 0.296074,1.147815 0.259037,1.147815 0.259037,1.110889 0.222111,1.110889 0.222111,1.147926 0.185074,1.147926 0.185074,1.185074 0.222111,1.185074 0.222111,1.147926 0.259148,1.147926 0.259148,1.185074 0.222111,1.185074 0.222111,1.222111 0.259037,1.222111 0.259037,1.259037 0.296074,1.259037 0.296074,1.222111 0.259037,1.222111 0.259037,1.185185 0.296074,1.185185 0.296074,1.222111 0.333000,1.222111 0.333000,1.185074 0.370037,1.185074 0.370037,1.147926 0.333000,1.147926 0.333000,1.185074 0.295963,1.185074 0.295963,1.147926 0.333000,1.147926 0.333000,1.110889 0.369926,1.110889 0.369926,1.147815 0.406963,1.147815 0.406963,1.110889 0.369926,1.110889 0.369926,1.073963 0.406963,1.073963 0.406963,1.110889 0.443889,1.110889 0.443889,1.147926 0.406852,1.147926 0.406852,1.185074 0.443889,1.185074 0.443889,1.147926 0.480926,1.147926 0.480926,1.185074 0.443889,1.185074 0.443889,1.222111 0.406963,1.222111 0.406963,1.185185 0.369926,1.185185 0.369926,1.222111 0.406963,1.222111 0.406963,1.259037 0.369926,1.259037 0.369926,1.222111 0.333000,1.222111 0.333000,1.259037 0.296074,1.259037 0.296074,1.296074 0.333000,1.296074 0.333000,1.259037 0.369926,1.259037 0.369926,1.296074 0.333000,1.296074 0.333000,1.333000 0.370037,1.333000 0.370037,1.370037 0.407185,1.370037 0.407185,1.333000 0.370037,1.333000 0.370037,1.295963 0.407185,1.295963 0.407185,1.333000 0.444222,1.333000 0.444222,1.370037 0.407185,1.370037 0.407185,1.407185 0.444222,1.407185 0.444222,1.370037 0.481259,1.370037 0.481259,1.407185 0.444222,1.407185 0.444222,1.444222 0.481370,1.444222 0.481370,1.481370 0.518630,1.481370 0.518630,1.444222 0.481370,1.444222 0.481370,1.407074 0.518630,1.407074 0.518630,1.444222 0.555778,1.444222 0.555778,1.407185 0.592815,1.407185 0.592815,1.370037 0.555778,1.370037 0.555778,1.407185 0.518741,1.407185 0.518741,1.370037 0.555778,1.370037 0.555778,1.333000 0.518630,1.333000 0.518630,1.295852 0.481370,1.295852 0.481370,1.333000 0.518630,1.333000 0.518630,1.370148 0.481370,1.370148 0.481370,1.333000 0.444222,1.333000 0.444222,1.295963 0.481259,1.295963 0.481259,1.258815 0.444222,1.258815 0.444222,1.295963 0.407185,1.295963 0.407185,1.258815 0.444222,1.258815 0.444222,1.221778 0.481370,1.221778 0.481370,1.258926 0.518630,1.258926 0.518630,1.221778 0.481370,1.221778 0.481370,1.184630 0.518630,1.184630 0.518630,1.221778 0.555778,1.221778 0.555778,1.258815 0.518741,1.258815 0.518741,1.295963 0.555778,1.295963 0.555778,1.258815 0.592815,1.258815 0.592815,1.295963 0.555778,1.295963 0.555778,1.333000 0.592815,1.333000 0.592815,1.370037 0.629963,1.370037 0.629963,1.333000 0.592815,1.333000 0.592815,1.295963 0.629963,1.295963 0.629963,1.333000 0.667000,1.333000 0.667000,1.296074 0.703926,1.296074 0.703926,1.259037 0.667000,1.259037 0.667000,1.296074 0.630074,1.296074 0.630074,1.259037 0.667000,1.259037 0.667000,1.222111 0.703926,1.222111 0.703926,1.259037 0.740963,1.259037 0.740963,1.222111 0.703926,1.222111 0.703926,1.185185 0.740963,1.185185 0.740963,1.222111 0.777889,1.222111 0.777889,1.185074 0.814926,1.185074 0.814926,1.147926 0.777889,1.147926 0.777889,1.185074 0.740852,1.185074 0.740852,1.147926 0.777889,1.147926 0.777889,1.110889 0.740963,1.110889 0.740963,1.073963 0.703926,1.073963 0.703926,1.110889 0.740963,1.110889 0.740963,1.147815 0.703926,1.147815 0.703926,1.110889 0.667000,1.110889 0.667000,1.147926 0.629963,1.147926 0.629963,1.185074 0.667000,1.185074 0.667000,1.147926 0.704037,1.147926 0.704037,1.185074 0.667000,1.185074 0.667000,1.222111 0.630074,1.222111 0.630074,1.185185 0.593037,1.185185 0.593037,1.222111 0.630074,1.222111 0.630074,1.259037 0.593037,1.259037 0.593037,1.222111 0.556111,1.222111 0.556111,1.185074 0.593148,1.185074 0.593148,1.147926 0.556111,1.147926 0.556111,1.185074 0.519074,1.185074 0.519074,1.147926 0.556111,1.147926 0.556111,1.110889 0.593037,1.110889 0.593037,1.147815 0.630074,1.147815 0.630074,1.110889 0.593037,1.110889 0.593037,1.073963 0.630074,1.073963 0.630074,1.110889 0.667000,1.110889 0.667000,1.073963 0.703926,1.073963 0.703926,1.036926 0.667000,1.036926 0.667000,1.073963 0.630074,1.073963 0.630074,1.036926 0.667000,1.036926 0.667000,1.000000 0.629963,1.000000 0.629963,0.962963 0.592815,0.962963 0.592815,1.000000 0.629963,1.000000 0.629963,1.037037 0.592815,1.037037 0.592815,1.000000 0.555778,1.000000 0.555778,0.962963 0.592815,0.962963 0.592815,0.925815 0.555778,0.925815 0.555778,0.962963 0.518741,0.962963 0.518741,0.925815 0.555778,0.925815 0.555778,0.888778 0.518630,0.888778 0.518630,0.851630 0.481370,0.851630 0.481370,0.888778 0.518630,0.888778 0.518630,0.925926 0.481370,0.925926 0.481370,0.888778 0.444222,0.888778 0.444222,0.925815 0.407185,0.925815 0.407185,0.962963 0.444222,0.962963 0.444222,0.925815 0.481259,0.925815 0.481259,0.962963 0.444222,0.962963 0.444222,1.000000 0.481370,1.000000 0.481370,1.037148 0.518630,1.037148 0.518630,1.000000 0.481370,1.000000 0.481370,0.962852 0.518630,0.962852 0.518630,1.000000 0.555778,1.000000 0.555778,1.037037 0.518741,1.037037 0.518741,1.074185 0.555778,1.074185 0.555778,1.037037 0.592815,1.037037 0.592815,1.074185 0.555778,1.074185 0.555778,1.111222 0.518630,1.111222 0.518630,1.074074 0.481370,1.074074 0.481370,1.111222 0.518630,1.111222 0.518630,1.148370 0.481370,1.148370 0.481370,1.111222 0.444222,1.111222 0.444222,1.074185 0.481259,1.074185 0.481259,1.037037 0.444222,1.037037 0.444222,1.074185 0.407185,1.074185 0.407185,1.037037 0.444222,1.037037 0.444222,1.000000 0.407185,1.000000 0.407185,0.962963 0.370037,0.962963 0.370037,1.000000 0.407185,1.000000 0.407185,1.037037 0.370037,1.037037 0.370037,1.000000 0.333000,1.000000 0.333000,0.963074 0.369926,0.963074 0.369926,0.926037 0.333000,0.926037 0.333000,0.963074 0.296074,0.963074 0.296074,0.926037 0.333000,0.926037 0.333000,0.889111 0.369926,0.889111 0.369926,0.926037 0.406963,0.926037 0.406963,0.889111 0.369926,0.889111 0.369926,0.852185 0.406963,0.852185 0.406963,0.889111 0.443889,0.889111 0.443889,0.852074 0.480926,0.852074 0.480926,0.814926 0.443889,0.814926 0.443889,0.852074 0.406852,0.852074 0.406852,0.814926 0.443889,0.814926 0.443889,0.777889 0.406963,0.777889 0.406963,0.740963 0.369926,0.740963 0.369926,0.777889 0.406963,0.777889 0.406963,0.814815 0.369926,0.814815 0.369926,0.777889 0.333000,0.777889 0.333000,0.814926 0.295963,0.814926 0.295963,0.852074 0.333000,0.852074 0.333000,0.814926 0.370037,0.814926 0.370037,0.852074 0.333000,0.852074 0.333000,0.889111 0.296074,0.889111 0.296074,0.852185 0.259037,0.852185 0.259037,0.889111 0.296074,0.889111 0.296074,0.926037 0.259037,0.926037 0.259037,0.889111 0.222111,0.889111 0.222111,0.852074 0.259148,0.852074 0.259148,0.814926 0.222111,0.814926 0.222111,0.852074 0.185074,0.852074 0.185074,0.814926 0.222111,0.814926 0.222111,0.777889 0.259037,0.777889 0.259037,0.814815 0.296074,0.814815 0.296074,0.777889 0.259037,0.777889 0.259037,0.740963 0.296074,0.740963 0.296074,0.777889 0.333000,0.777889 0.333000,0.740963 0.369926,0.740963 0.369926,0.703926 0.333000,0.703926 0.333000,0.740963 0.296074,0.740963 0.296074,0.703926 0.333000,0.703926 0.333000,0.667000 0.370037,0.667000 0.370037,0.704037 0.407185,0.704037 0.407185,0.667000 0.370037,0.667000 0.370037,0.629963 0.407185,0.629963 0.407185,0.667000 0.444222,0.667000 0.444222,0.704037 0.407185,0.704037 0.407185,0.741185 0.444222,0.741185 0.444222,0.704037 0.481259,0.704037 0.481259,0.741185 0.444222,0.741185 0.444222,0.778222 0.481370,0.778222 0.481370,0.815370 0.518630,0.815370 0.518630,0.778222 0.481370,0.778222 0.481370,0.741074 0.518630,0.741074 0.518630,0.778222 0.555778,0.778222 0.555778,0.741185 0.592815,0.741185 0.592815,0.704037 0.555778,0.704037 0.555778,0.741185 0.518741,0.741185 0.518741,0.704037 0.555778,0.704037 0.555778,0.667000 0.518630,0.667000 0.518630,0.629852 0.481370,0.629852 0.481370,0.667000 0.518630,0.667000 0.518630,0.704148 0.481370,0.704148 0.481370,0.667000 0.444222,0.667000 0.444222,0.629963 0.481259,0.629963 0.481259,0.592815 0.444222,0.592815 0.444222,0.629963 0.407185,0.629963 0.407185,0.592815 0.444222,0.592815 0.444222,0.555778 0.481370,0.555778 0.481370,0.592926 0.518630,0.592926 0.518630,0.555778 0.481370,0.555778 0.481370,0.518630 0.518630,0.518630 0.518630,0.555778 0.555778,0.555778 0.555778,0.592815 0.518741,0.592815 0.518741,0.629963 0.555778,0.629963 0.555778,0.592815 0.592815,0.592815 0.592815,0.629963 0.555778,0.629963 0.555778,0.667000 0.592815,0.667000 0.592815,0.704037 0.629963,0.704037 0.629963,0.667000 0.592815,0.667000 0.592815,0.629963 0.629963,0.629963 0.629963,0.667000 0.667000,0.667000 0.667000,0.703926 0.630074,0.703926 0.630074,0.740963 0.667000,0.740963 0.667000,0.703926 0.703926,0.703926 0.703926,0.740963 0.667000,0.740963 0.667000,0.777889 0.630074,0.777889 0.630074,0.740963 0.593037,0.740963 0.593037,0.777889 0.630074,0.777889 0.630074,0.814815 0.593037,0.814815 0.593037,0.777889 0.556111,0.777889 0.556111,0.814926 0.519074,0.814926 0.519074,0.852074 0.556111,0.852074 0.556111,0.814926 0.593148,0.814926 0.593148,0.852074 0.556111,0.852074 0.556111,0.889111 0.593037,0.889111 0.593037,0.926037 0.630074,0.926037 0.630074,0.889111 0.593037,0.889111 0.593037,0.852185 0.630074,0.852185 0.630074,0.889111 0.667000,0.889111 0.667000,0.852074 0.704037,0.852074 0.704037,0.814926 0.667000,0.814926 0.667000,0.852074 0.629963,0.852074 0.629963,0.814926 0.667000,0.814926 0.667000,0.777889 0.703926,0.777889 0.703926,0.814815 0.740963,0.814815 0.740963,0.777889 0.703926,0.777889 0.703926,0.740963 0.740963,0.740963 0.740963,0.777889 0.777889,0.777889 0.777889,0.814926 0.740852,0.814926 0.740852,0.852074 0.777889,0.852074 0.777889,0.814926 0.814926,0.814926 0.814926,0.852074 0.777889,0.852074 0.777889,0.889111 0.740963,0.889111 0.740963,0.852185 0.703926,0.852185 0.703926,0.889111 0.740963,0.889111 0.740963,0.926037 0.703926,0.926037 0.703926,0.889111 0.667000,0.889111 0.667000,0.926037 0.630074,0.926037 0.630074,0.963074 0.667000,0.963074 0.667000,0.926037 0.703926,0.926037 0.703926,0.963074 0.667000,0.963074 0.667000,1.000000 0.703926,1.000000 0.703926,1.036926 0.740963,1.036926 0.740963,1.000000 0.703926,1.000000 0.703926,0.963074 0.740963,0.963074 0.740963,1.000000 0.777889,1.000000 0.777889,1.036926 0.740963,1.036926 0.740963,1.073963 0.777889,1.073963 0.777889,1.036926 0.814815,1.036926 0.814815,1.073963 0.777889,1.073963 0.777889,1.110889 0.814926,1.110889 0.814926,1.147926 0.852074,1.147926 0.852074,1.110889 0.814926,1.110889 0.814926,1.073852 0.852074,1.073852 0.852074,1.110889 0.889111,1.110889 0.889111,1.073963 0.926037,1.073963 0.926037,1.036926 0.889111,1.036926 0.889111,1.073963 0.852185,1.073963 0.852185,1.036926 0.889111,1.036926 0.889111,1.000000 0.852074,1.000000 0.852074,0.962963 0.814926,0.962963 0.814926,1.000000 0.852074,1.000000 0.852074,1.037037 0.814926,1.037037 0.814926,1.000000 0.777889,1.000000 0.777889,0.963074 0.814815,0.963074 0.814815,0.926037 0.777889,0.926037 0.777889,0.963074 0.740963,0.963074 0.740963,0.926037 0.777889,0.926037 0.777889,0.889111 0.814926,0.889111 0.814926,0.926148 0.852074,0.926148 0.852074,0.889111 0.814926,0.889111 0.814926,0.852074 0.852074,0.852074 0.852074,0.889111 0.889111,0.889111 0.889111,0.926037 0.852185,0.926037 0.852185,0.963074 0.889111,0.963074 0.889111,0.926037 0.926037,0.926037 0.926037,0.963074 0.889111,0.963074 0.889111,1.000000 0.926037,1.000000 0.926037,1.036926 0.963074,1.036926 0.963074,1.000000 0.926037,1.000000 0.926037,0.963074 0.963074,0.963074 0.963074,1.000000 1.000000,1.000000 1.000000,0.963074 1.036926,0.963074 1.036926,0.926037 1.000000,0.926037 1.000000,0.963074 0.963074,0.963074 0.963074,0.926037 1.000000,0.926037 1.000000,0.889111 1.036926,0.889111 1.036926,0.926037 1.073963,0.926037 1.073963,0.889111 1.036926,0.889111 1.036926,0.852185 1.073963,0.852185 1.073963,0.889111 1.110889,0.889111 1.110889,0.852074 1.147926,0.852074 1.147926,0.814926 1.110889,0.814926 1.110889,0.852074 1.073852,0.852074 1.073852,0.814926 1.110889,0.814926 1.110889,0.777889 1.073963,0.777889 1.073963,0.740963 1.036926,0.740963 1.036926,0.777889 1.073963,0.777889 1.073963,0.814815 1.036926,0.814815 1.036926,0.777889 1.000000,0.777889 1.000000,0.814926 0.962963,0.814926 0.962963,0.852074 1.000000,0.852074 1.000000,0.814926 1.037037,0.814926 1.037037,0.852074 1.000000,0.852074 1.000000,0.889111 0.963074,0.889111 0.963074,0.852185 0.926037,0.852185 0.926037,0.889111 0.963074,0.889111 0.963074,0.926037 0.926037,0.926037 0.926037,0.889111 0.889111,0.889111 0.889111,0.852074 0.926148,0.852074 0.926148,0.814926 0.889111,0.814926 0.889111,0.852074 0.852074,0.852074 0.852074,0.814926 0.889111,0.814926 0.889111,0.777889 0.926037,0.777889 0.926037,0.814815 0.963074,0.814815 0.963074,0.777889 0.926037,0.777889 0.926037,0.740963 0.963074,0.740963 0.963074,0.777889 1.000000,0.777889 1.000000,0.740963 1.036926,0.740963 1.036926,0.703926 1.000000,0.703926 1.000000,0.740963 0.963074,0.740963 0.963074,0.703926 1.000000,0.703926 1.000000,0.667000 1.036926,0.667000 1.036926,0.703926 1.073963,0.703926 1.073963,0.667000 1.036926,0.667000 1.036926,0.630074 1.073963,0.630074 1.073963,0.667000 1.110889,0.667000 1.110889,0.703926 1.073963,0.703926 1.073963,0.740963 1.110889,0.740963 1.110889,0.703926 1.147815,0.703926 1.147815,0.740963 1.110889,0.740963 1.110889,0.777889 1.147926,0.777889 1.147926,0.814926 1.185074,0.814926 1.185074,0.777889 1.147926,0.777889 1.147926,0.740852 1.185074,0.740852 1.185074,0.777889 1.222111,0.777889 1.222111,0.740963 1.259037,0.740963 1.259037,0.703926 1.222111,0.703926 1.222111,0.740963 1.185185,0.740963 1.185185,0.703926 1.222111,0.703926 1.222111,0.667000 1.185074,0.667000 1.185074,0.629963 1.147926,0.629963 1.147926,0.667000 1.185074,0.667000 1.185074,0.704037 1.147926,0.704037 1.147926,0.667000 1.110889,0.667000 1.110889,0.630074 1.147815,0.630074 1.147815,0.593037 1.110889,0.593037 1.110889,0.630074 1.073963,0.630074 1.073963,0.593037 1.110889,0.593037 1.110889,0.556111 1.147926,0.556111 1.147926,0.593148 1.185074,0.593148 1.185074,0.556111 1.147926,0.556111 1.147926,0.519074 1.185074,0.519074 1.185074,0.556111 1.222111,0.556111 1.222111,0.593037 1.185185,0.593037 1.185185,0.630074 1.222111,0.630074 1.222111,0.593037 1.259037,0.593037 1.259037,0.630074 1.222111,0.630074 1.222111,0.667000 1.259037,0.667000 1.259037,0.703926 1.296074,0.703926 1.296074,0.667000 1.259037,0.667000 1.259037,0.630074 1.296074,0.630074 1.296074,0.667000 1.333000,0.667000 1.333000,0.629963 1.370037,0.629963 1.370037,0.592815 1.333000,0.592815 1.333000,0.629963 1.295963,0.629963 1.295963,0.592815 1.333000,0.592815 1.333000,0.555778 1.370037,0.555778 1.370037,0.592815 1.407185,0.592815 1.407185,0.555778 1.370037,0.555778 1.370037,0.518741 1.407185,0.518741 1.407185,0.555778 1.444222,0.555778 1.444222,0.518630 1.481370,0.518630 1.481370,0.481370 1.444222,0.481370 1.444222,0.518630 1.407074,0.518630 1.407074,0.481370 1.444222,0.481370 1.444222,0.444222 1.407185,0.444222 1.407185,0.407185 1.370037,0.407185 1.370037,0.444222 1.407185,0.444222 1.407185,0.481259 1.370037,0.481259 1.370037,0.444222 1.333000,0.444222 1.333000,0.481370 1.295852,0.481370 1.295852,0.518630 1.333000,0.518630 1.333000,0.481370 1.370148,0.481370 1.370148,0.518630 1.333000,0.518630 1.333000,0.555778 1.295963,0.555778 1.295963,0.518741 1.258815,0.518741 1.258815,0.555778 1.295963,0.555778 1.295963,0.592815 1.258815,0.592815 1.258815,0.555778 1.221778,0.555778 1.221778,0.518630 1.258926,0.518630 1.258926,0.481370 1.221778,0.481370 1.221778,0.518630 1.184630,0.518630 1.184630,0.481370 1.221778,0.481370 1.221778,0.444222 1.258815,0.444222 1.258815,0.481259 1.295963,0.481259 1.295963,0.444222 1.258815,0.444222 1.258815,0.407185 1.295963,0.407185 1.295963,0.444222 1.333000,0.444222 1.333000,0.407185 1.370037,0.407185 1.370037,0.370037 1.333000,0.370037 1.333000,0.407185 1.295963,0.407185 1.295963,0.370037 1.333000,0.370037 1.333000,0.333000 1.296074,0.333000 1.296074,0.296074 1.259037,0.296074 1.259037,0.333000 1.296074,0.333000 1.296074,0.369926 1.259037,0.369926 1.259037,0.333000 1.222111,0.333000 1.222111,0.296074 1.259037,0.296074 1.259037,0.259037 1.222111,0.259037 1.222111,0.296074 1.185185,0.296074 1.185185,0.259037 1.222111,0.259037 1.222111,0.222111 1.185074,0.222111 1.185074,0.185074 1.147926,0.185074 1.147926,0.222111 1.185074,0.222111 1.185074,0.259148 1.147926,0.259148 1.147926,0.222111 1.110889,0.222111 1.110889,0.259037 1.073963,0.259037 1.073963,0.296074 1.110889,0.296074 1.110889,0.259037 1.147815,0.259037 1.147815,0.296074 1.110889,0.296074 1.110889,0.333000 1.147926,0.333000 1.147926,0.370037 1.185074,0.370037 1.185074,0.333000 1.147926,0.333000 1.147926,0.295963 1.185074,0.295963 1.185074,0.333000 1.222111,0.333000 1.222111,0.369926 1.185185,0.369926 1.185185,0.406963 1.222111,0.406963 1.222111,0.369926 1.259037,0.369926 1.259037,0.406963 1.222111,0.406963 1.222111,0.443889 1.185074,0.443889 1.185074,0.406852 1.147926,0.406852 1.147926,0.443889 1.185074,0.443889 1.185074,0.480926 1.147926,0.480926 1.147926,0.443889 1.110889,0.443889 1.110889,0.406963 1.147815,0.406963 1.147815,0.369926 1.110889,0.369926 1.110889,0.406963 1.073963,0.406963 1.073963,0.369926 1.110889,0.369926 1.110889,0.333000 1.073963,0.333000 1.073963,0.296074 1.036926,0.296074 1.036926,0.333000 1.073963,0.333000 1.073963,0.369926 1.036926,0.369926 1.036926,0.333000 1.000000,0.333000 1.000000,0.370037 0.962963,0.370037 0.962963,0.407185 1.000000,0.407185 1.000000,0.370037 1.037037,0.370037 1.037037,0.407185 1.000000,0.407185 1.000000,0.444222 0.962963,0.444222 0.962963,0.407185 0.925815,0.407185 0.925815,0.444222 0.962963,0.444222 0.962963,0.481259 0.925815,0.481259 0.925815,0.444222 0.888778,0.444222 0.888778,0.481370 0.851630,0.481370 0.851630,0.518630 0.888778,0.518630 0.888778,0.481370 0.925926,0.481370 0.925926,0.518630 0.888778,0.518630 0.888778,0.555778 0.925815,0.555778 0.925815,0.592815 0.962963,0.592815 0.962963,0.555778 0.925815,0.555778 0.925815,0.518741 0.962963,0.518741 0.962963,0.555778 1.000000,0.555778 1.000000,0.518630 1.037148,0.518630 1.037148,0.481370 1.000000,0.481370 1.000000,0.518630 0.962852,0.518630 0.962852,0.481370 1.000000,0.481370 1.000000,0.444222 1.037037,0.444222 1.037037,0.481259 1.074185,0.481259 1.074185,0.444222 1.037037,0.444222 1.037037,0.407185 1.074185,0.407185 1.074185,0.444222 1.111222,0.444222 1.111222,0.481370 1.074074,0.481370 1.074074,0.518630 1.111222,0.518630 1.111222,0.481370 1.148370,0.481370 1.148370,0.518630 1.111222,0.518630 1.111222,0.555778 1.074185,0.555778 1.074185,0.518741 1.037037,0.518741 1.037037,0.555778 1.074185,0.555778 1.074185,0.592815 1.037037,0.592815 1.037037,0.555778 1.000000,0.555778 1.000000,0.592815 0.962963,0.592815 0.962963,0.629963 1.000000,0.629963 1.000000,0.592815 1.037037,0.592815 1.037037,0.629963 1.000000,0.629963 1.000000,0.667000 0.963074,0.667000 0.963074,0.630074 0.926037,0.630074 0.926037,0.667000 0.963074,0.667000 0.963074,0.703926 0.926037,0.703926 0.926037,0.667000 0.889111,0.667000 0.889111,0.630074 0.926037,0.630074 0.926037,0.593037 0.889111,0.593037 0.889111,0.630074 0.852185,0.630074 0.852185,0.593037 0.889111,0.593037 0.889111,0.556111 0.852074,0.556111 0.852074,0.519074 0.814926,0.519074 0.814926,0.556111 0.852074,0.556111 0.852074,0.593148 0.814926,0.593148 0.814926,0.556111 0.777889,0.556111 0.777889,0.593037 0.740963,0.593037 0.740963,0.630074 0.777889,0.630074 0.777889,0.593037 0.814815,0.593037 0.814815,0.630074 0.777889,0.630074 0.777889,0.667000 0.814926,0.667000 0.814926,0.704037 0.852074,0.704037 0.852074,0.667000 0.814926,0.667000 0.814926,0.629963 0.852074,0.629963 0.852074,0.667000 0.889111,0.667000 0.889111,0.703926 0.852185,0.703926 0.852185,0.740963 0.889111,0.740963 0.889111,0.703926 0.926037,0.703926 0.926037,0.740963 0.889111,0.740963 0.889111,0.777889 0.852074,0.777889 0.852074,0.740852 0.814926,0.740852 0.814926,0.777889 0.852074,0.777889 0.852074,0.814926 0.814926,0.814926 0.814926,0.777889 0.777889,0.777889 0.777889,0.740963 0.814815,0.740963 0.814815,0.703926 0.777889,0.703926 0.777889,0.740963 0.740963,0.740963 0.740963,0.703926 0.777889,0.703926 0.777889,0.667000 0.740963,0.667000 0.740963,0.630074 0.703926,0.630074 0.703926,0.667000 0.740963,0.667000 0.740963,0.703926 0.703926,0.703926 0.703926,0.667000 0.667000,0.667000 0.667000,0.629963 0.704037,0.629963 0.704037,0.592815 0.667000,0.592815 0.667000,0.629963 0.629963,0.629963 0.629963,0.592815 0.667000,0.592815 0.667000,0.555778 0.704037,0.555778 0.704037,0.592815 0.741185,0.592815 0.741185,0.555778 0.704037,0.555778 0.704037,0.518741 0.741185,0.518741 0.741185,0.555778 0.778222,0.555778 0.778222,0.518630 0.815370,0.518630 0.815370,0.481370 0.778222,0.481370 0.778222,0.518630 0.741074,0.518630 0.741074,0.481370 0.778222,0.481370 0.778222,0.444222 0.741185,0.444222 0.741185,0.407185 0.704037,0.407185 0.704037,0.444222 0.741185,0.444222 0.741185,0.481259 0.704037,0.481259 0.704037,0.444222 0.667000,0.444222 0.667000,0.481370 0.629852,0.481370 0.629852,0.518630 0.667000,0.518630 0.667000,0.481370 0.704148,0.481370 0.704148,0.518630 0.667000,0.518630 0.667000,0.555778 0.629963,0.555778 0.629963,0.518741 0.592815,0.518741 0.592815,0.555778 0.629963,0.555778 0.629963,0.592815 0.592815,0.592815 0.592815,0.555778 0.555778,0.555778 0.555778,0.518630 0.592926,0.518630 0.592926,0.481370 0.555778,0.481370 0.555778,0.518630 0.518630,0.518630 0.518630,0.481370 0.555778,0.481370 0.555778,0.444222 0.592815,0.444222 0.592815,0.481259 0.629963,0.481259 0.629963,0.444222 0.592815,0.444222 0.592815,0.407185 0.629963,0.407185 0.629963,0.444222 0.667000,0.444222 0.667000,0.407185 0.704037,0.407185 0.704037,0.370037 0.667000,0.370037 0.667000,0.407185 0.629963,0.407185 0.629963,0.370037 0.667000,0.370037 0.667000,0.333000 0.703926,0.333000 0.703926,0.369926 0.740963,0.369926 0.740963,0.333000 0.703926,0.333000 0.703926,0.296074 0.740963,0.296074 0.740963,0.333000 0.777889,0.333000 0.777889,0.369926 0.740963,0.369926 0.740963,0.406963 0.777889,0.406963 0.777889,0.369926 0.814815,0.369926 0.814815,0.406963 0.777889,0.406963 0.777889,0.443889 0.814926,0.443889 0.814926,0.480926 0.852074,0.480926 0.852074,0.443889 0.814926,0.443889 0.814926,0.406852 0.852074,0.406852 0.852074,0.443889 0.889111,0.443889 0.889111,0.406963 0.926037,0.406963 0.926037,0.369926 0.889111,0.369926 0.889111,0.406963 0.852185,0.406963 0.852185,0.369926 0.889111,0.369926 0.889111,0.333000 0.852074,0.333000 0.852074,0.295963 0.814926,0.295963 0.814926,0.333000 0.852074,0.333000 0.852074,0.370037 0.814926,0.370037 0.814926,0.333000 0.777889,0.333000 0.777889,0.296074 0.814815,0.296074 0.814815,0.259037 0.777889,0.259037 0.777889,0.296074 0.740963,0.296074 0.740963,0.259037 0.777889,0.259037 0.777889,0.222111 0.814926,0.222111 0.814926,0.259148 0.852074,0.259148 0.852074,0.222111 0.814926,0.222111 0.814926,0.185074 0.852074,0.185074 0.852074,0.222111 0.889111,0.222111 0.889111,0.259037 0.852185,0.259037 0.852185,0.296074 0.889111,0.296074 0.889111,0.259037 0.926037,0.259037 0.926037,0.296074 0.889111,0.296074 0.889111,0.333000 0.926037,0.333000 0.926037,0.369926 0.963074,0.369926 0.963074,0.333000 0.926037,0.333000 0.926037,0.296074 0.963074,0.296074 0.963074,0.333000 1.000000,0.333000 1.000000,0.296074 1.036926,0.296074 1.036926,0.259037 1.000000,0.259037 1.000000,0.296074 0.963074,0.296074 0.963074,0.259037 1.000000,0.259037 1.000000,0.222111 1.036926,0.222111 1.036926,0.259037 1.073963,0.259037 1.073963,0.222111 1.036926,0.222111 1.036926,0.185185 1.073963,0.185185 1.073963,0.222111 1.110889,0.222111 1.110889,0.185074 1.147926,0.185074 1.147926,0.147926 1.110889,0.147926 1.110889,0.185074 1.073852,0.185074 1.073852,0.147926 1.110889,0.147926 1.110889,0.110889 1.073963,0.110889 1.073963,0.073963 1.036926,0.073963 1.036926,0.110889 1.073963,0.110889 1.073963,0.147815 1.036926,0.147815 1.036926,0.110889 1.000000,0.110889 1.000000,0.147926 0.962963,0.147926 0.962963,0.185074 1.000000,0.185074 1.000000,0.147926 1.037037,0.147926 1.037037,0.185074 1.000000,0.185074 1.000000,0.222111 0.963074,0.222111 0.963074,0.185185 0.926037,0.185185 0.926037,0.222111 0.963074,0.222111 0.963074,0.259037 0.926037,0.259037 0.926037,0.222111 0.889111,0.222111 0.889111,0.185074 0.926148,0.185074 0.926148,0.147926 0.889111,0.147926 0.889111,0.185074 0.852074,0.185074 0.852074,0.147926 0.889111,0.147926 0.889111,0.110889 0.926037,0.110889 0.926037,0.147815 0.963074,0.147815 0.963074,0.110889 0.926037,0.110889 0.926037,0.073963 0.963074,0.073963 0.963074,0.110889 1.000000,0.110889 1.000000,0.073963 1.036926,0.073963 1.036926,0.036926 1.000000,0.036926 1.000000,0.073963 0.963074,0.073963 0.963074,0.036926 1.000000,0.036926 1.000000,0.000000 0.963074,0.000000 0.963074,-0.036926 0.926037,-0.036926 0.926037,0.000000 0.963074,0.000000 0.963074,0.036926 0.926037,0.036926 0.926037,0.000000 0.889111,0.000000 0.889111,-0.036926 0.926037,-0.036926 0.926037,-0.073963 0.889111,-0.073963 0.889111,-0.036926 0.852185,-0.036926 0.852185,-0.073963 0.889111,-0.073963 0.889111,-0.110889 0.852074,-0.110889 0.852074,-0.147926 0.814926,-0.147926 0.814926,-0.110889 0.852074,-0.110889 0.852074,-0.073852 0.814926,-0.073852 0.814926,-0.110889 0.777889,-0.110889 0.777889,-0.073963 0.740963,-0.073963 0.740963,-0.036926 0.777889,-0.036926 0.777889,-0.073963 0.814815,-0.073963 0.814815,-0.036926 0.777889,-0.036926 0.777889,0.000000 0.814926,0.000000 0.814926,0.037037 0.852074,0.037037 0.852074,0.000000 0.814926,0.000000 0.814926,-0.037037 0.852074,-0.037037 0.852074,0.000000 0.889111,0.000000 0.889111,0.036926 0.852185,0.036926 0.852185,0.073963 0.889111,0.073963 0.889111,0.036926 0.926037,0.036926 0.926037,0.073963 0.889111,0.073963 0.889111,0.110889 0.852074,0.110889 0.852074,0.073852 0.814926,0.073852 0.814926,0.110889 0.852074,0.110889 0.852074,0.147926 0.814926,0.147926 0.814926,0.110889 0.777889,0.110889 0.777889,0.073963 0.814815,0.073963 0.814815,0.036926 0.777889,0.036926 0.777889,0.073963 0.740963,0.073963 0.740963,0.036926 0.777889,0.036926 0.777889,0.000000 0.740963,0.000000 0.740963,-0.036926 0.703926,-0.036926 0.703926,0.000000 0.740963,0.000000 0.740963,0.036926 0.703926,0.036926 0.703926,0.000000 0.667000,0.000000 0.667000,-0.036926 0.703926,-0.036926 0.703926,-0.073963 0.667000,-0.073963 0.667000,-0.036926 0.630074,-0.036926 0.630074,-0.073963 0.667000,-0.073963 0.667000,-0.110889 0.703926,-0.110889 0.703926,-0.073963 0.740963,-0.073963 0.740963,-0.110889 0.703926,-0.110889 0.703926,-0.147815 0.740963,-0.147815 0.740963,-0.110889 0.777889,-0.110889 0.777889,-0.147926 0.814926,-0.147926 0.814926,-0.185074 0.777889,-0.185074 0.777889,-0.147926 0.740852,-0.147926 0.740852,-0.185074 0.777889,-0.185074 0.777889,-0.222111 0.740963,-0.222111 0.740963,-0.259037 0.703926,-0.259037 0.703926,-0.222111 0.740963,-0.222111 0.740963,-0.185185 0.703926,-0.185185 0.703926,-0.222111 0.667000,-0.222111 0.667000,-0.185074 0.629963,-0.185074 0.629963,-0.147926 0.667000,-0.147926 0.667000,-0.185074 0.704037,-0.185074 0.704037,-0.147926 0.667000,-0.147926 0.667000,-0.110889 0.630074,-0.110889 0.630074,-0.147815 0.593037,-0.147815 0.593037,-0.110889 0.630074,-0.110889 0.630074,-0.073963 0.593037,-0.073963 0.593037,-0.110889 0.556111,-0.110889 0.556111,-0.147926 0.593148,-0.147926 0.593148,-0.185074 0.556111,-0.185074 0.556111,-0.147926 0.519074,-0.147926 0.519074,-0.185074 0.556111,-0.185074 0.556111,-0.222111 0.593037,-0.222111 0.593037,-0.185185 0.630074,-0.185185 0.630074,-0.222111 0.593037,-0.222111 0.593037,-0.259037 0.630074,-0.259037 0.630074,-0.222111 0.667000,-0.222111 0.667000,-0.259037 0.703926,-0.259037 0.703926,-0.296074 0.667000,-0.296074 0.667000,-0.259037 0.630074,-0.259037 0.630074,-0.296074 0.667000,-0.296074 0.667000,-0.333000 0.629963,-0.333000 0.629963,-0.370037 0.592815,-0.370037 0.592815,-0.333000 0.629963,-0.333000 0.629963,-0.295963 0.592815,-0.295963 0.592815,-0.333000 0.555778,-0.333000 0.555778,-0.370037 0.592815,-0.370037 0.592815,-0.407185 0.555778,-0.407185 0.555778,-0.370037 0.518741,-0.370037 0.518741,-0.407185 0.555778,-0.407185 0.555778,-0.444222 0.518630,-0.444222 0.518630,-0.481370 0.481370,-0.481370 0.481370,-0.444222 0.518630,-0.444222 0.518630,-0.407074 0.481370,-0.407074 0.481370,-0.444222 0.444222,-0.444222 0.444222,-0.407185 0.407185,-0.407185 0.407185,-0.370037 0.444222,-0.370037 0.444222,-0.407185 0.481259,-0.407185 0.481259,-0.370037 0.444222,-0.370037 0.444222,-0.333000 0.481370,-0.333000 0.481370,-0.295852 0.518630,-0.295852 0.518630,-0.333000 0.481370,-0.333000 0.481370,-0.370148 0.518630,-0.370148 0.518630,-0.333000 0.555778,-0.333000 0.555778,-0.295963 0.518741,-0.295963 0.518741,-0.258815 0.555778,-0.258815 0.555778,-0.295963 0.592815,-0.295963 0.592815,-0.258815 0.555778,-0.258815 0.555778,-0.221778 0.518630,-0.221778 0.518630,-0.258926 0.481370,-0.258926 0.481370,-0.221778 0.518630,-0.221778 0.518630,-0.184630 0.481370,-0.184630 0.481370,-0.221778 0.444222,-0.221778 0.444222,-0.258815 0.481259,-0.258815 0.481259,-0.295963 0.444222,-0.295963 0.444222,-0.258815 0.407185,-0.258815 0.407185,-0.295963 0.444222,-0.295963 0.444222,-0.333000 0.407185,-0.333000 0.407185,-0.370037 0.370037,-0.370037 0.370037,-0.333000 0.407185,-0.333000 0.407185,-0.295963 0.370037,-0.295963 0.370037,-0.333000 0.333000,-0.333000 0.333000,-0.296074 0.296074,-0.296074 0.296074,-0.259037 0.333000,-0.259037 0.333000,-0.296074 0.369926,-0.296074 0.369926,-0.259037 0.333000,-0.259037 0.333000,-0.222111 0.296074,-0.222111 0.296074,-0.259037 0.259037,-0.259037 0.259037,-0.222111 0.296074,-0.222111 0.296074,-0.185185 0.259037,-0.185185 0.259037,-0.222111 0.222111,-0.222111 0.222111,-0.185074 0.185074,-0.185074 0.185074,-0.147926 0.222111,-0.147926 0.222111,-0.185074 0.259148,-0.185074 0.259148,-0.147926 0.222111,-0.147926 0.222111,-0.110889 0.259037,-0.110889 0.259037,-0.073963 0.296074,-0.073963 0.296074,-0.110889 0.259037,-0.110889 0.259037,-0.147815 0.296074,-0.147815 0.296074,-0.110889 0.333000,-0.110889 0.333000,-0.147926 0.370037,-0.147926 0.370037,-0.185074 0.333000,-0.185074 0.333000,-0.147926 0.295963,-0.147926 0.295963,-0.185074 0.333000,-0.185074 0.333000,-0.222111 0.369926,-0.222111 0.369926,-0.185185 0.406963,-0.185185 0.406963,-0.222111 0.369926,-0.222111 0.369926,-0.259037 0.406963,-0.259037 0.406963,-0.222111 0.443889,-0.222111 0.443889,-0.185074 0.406852,-0.185074 0.406852,-0.147926 0.443889,-0.147926 0.443889,-0.185074 0.480926,-0.185074 0.480926,-0.147926 0.443889,-0.147926 0.443889,-0.110889 0.406963,-0.110889 0.406963,-0.147815 0.369926,-0.147815 0.369926,-0.110889 0.406963,-0.110889 0.406963,-0.073963 0.369926,-0.073963 0.369926,-0.110889 0.333000,-0.110889 0.333000,-0.073963 0.296074,-0.073963 0.296074,-0.036926 0.333000,-0.036926 0.333000,-0.073963 0.369926,-0.073963 0.369926,-0.036926 0.333000,-0.036926 0.333000,0.000000 0.370037,0.000000 0.370037,0.037037 0.407185,0.037037 0.407185,0.000000 0.370037,0.000000 0.370037,-0.037037 0.407185,-0.037037 0.407185,0.000000 0.444222,0.000000 0.444222,0.037037 0.407185,0.037037 0.407185,0.074185 0.444222,0.074185 0.444222,0.037037 0.481259,0.037037 0.481259,0.074185 0.444222,0.074185 0.444222,0.111222 0.481370,0.111222 0.481370,0.148370 0.518630,0.148370 0.518630,0.111222 0.481370,0.111222 0.481370,0.074074 0.518630,0.074074 0.518630,0.111222 0.555778,0.111222 0.555778,0.074185 0.592815,0.074185 0.592815,0.037037 0.555778,0.037037 0.555778,0.074185 0.518741,0.074185 0.518741,0.037037 0.555778,0.037037 0.555778,0.000000 0.518630,0.000000 0.518630,-0.037148 0.481370,-0.037148 0.481370,0.000000 0.518630,0.000000 0.518630,0.037148 0.481370,0.037148 0.481370,0.000000 0.444222,0.000000 0.444222,-0.037037 0.481259,-0.037037 0.481259,-0.074185 0.444222,-0.074185 0.444222,-0.037037 0.407185,-0.037037 0.407185,-0.074185 0.444222,-0.074185 0.444222,-0.111222 0.481370,-0.111222 0.481370,-0.074074 0.518630,-0.074074 0.518630,-0.111222 0.481370,-0.111222 0.481370,-0.148370 0.518630,-0.148370 0.518630,-0.111222 0.555778,-0.111222 0.555778,-0.074185 0.518741,-0.074185 0.518741,-0.037037 0.555778,-0.037037 0.555778,-0.074185 0.592815,-0.074185 0.592815,-0.037037 0.555778,-0.037037 0.555778,0.000000 0.592815,0.000000 0.592815,0.037037 0.629963,0.037037 0.629963,0.000000 0.592815,0.000000 0.592815,-0.037037 0.629963,-0.037037 0.629963,0.000000 0.667000,0.000000 0.667000,0.036926 0.630074,0.036926 0.630074,0.073963 0.667000,0.073963 0.667000,0.036926 0.703926,0.036926 0.703926,0.073963 0.667000,0.073963 0.667000,0.110889 0.630074,0.110889 0.630074,0.073963 0.593037,0.073963 0.593037,0.110889 0.630074,0.110889 0.630074,0.147815 0.593037,0.147815 0.593037,0.110889 0.556111,0.110889 0.556111,0.147926 0.519074,0.147926 0.519074,0.185074 0.556111,0.185074 0.556111,0.147926 0.593148,0.147926 0.593148,0.185074 0.556111,0.185074 0.556111,0.222111 0.593037,0.222111 0.593037,0.259037 0.630074,0.259037 0.630074,0.222111 0.593037,0.222111 0.593037,0.185185 0.630074,0.185185 0.630074,0.222111 0.667000,0.222111 0.667000,0.185074 0.704037,0.185074 0.704037,0.147926 0.667000,0.147926 0.667000,0.185074 0.629963,0.185074 0.629963,0.147926 0.667000,0.147926 0.667000,0.110889 0.703926,0.110889 0.703926,0.147815 0.740963,0.147815 0.740963,0.110889 0.703926,0.110889 0.703926,0.073963 0.740963,0.073963 0.740963,0.110889 0.777889,0.110889 0.777889,0.147926 0.740852,0.147926 0.740852,0.185074 0.777889,0.185074 0.777889,0.147926 0.814926,0.147926 0.814926,0.185074 0.777889,0.185074 0.777889,0.222111 0.740963,0.222111 0.740963,0.185185 0.703926,0.185185 0.703926,0.222111 0.740963,0.222111 0.740963,0.259037 0.703926,0.259037 0.703926,0.222111 0.667000,0.222111 0.667000,0.259037 0.630074,0.259037 0.630074,0.296074 0.667000,0.296074 0.667000,0.259037 0.703926,0.259037 0.703926,0.296074 0.667000,0.296074 0.667000,0.333000 0.629963,0.333000 0.629963,0.295963 0.592815,0.295963 0.592815,0.333000 0.629963,0.333000 0.629963,0.370037 0.592815,0.370037 0.592815,0.333000 0.555778,0.333000 0.555778,0.295963 0.592815,0.295963 0.592815,0.258815 0.555778,0.258815 0.555778,0.295963 0.518741,0.295963 0.518741,0.258815 0.555778,0.258815 0.555778,0.221778 0.518630,0.221778 0.518630,0.184630 0.481370,0.184630 0.481370,0.221778 0.518630,0.221778 0.518630,0.258926 0.481370,0.258926 0.481370,0.221778 0.444222,0.221778 0.444222,0.258815 0.407185,0.258815 0.407185,0.295963 0.444222,0.295963 0.444222,0.258815 0.481259,0.258815 0.481259,0.295963 0.444222,0.295963 0.444222,0.333000 0.481370,0.333000 0.481370,0.370148 0.518630,0.370148 0.518630,0.333000 0.481370,0.333000 0.481370,0.295852 0.518630,0.295852 0.518630,0.333000 0.555778,0.333000 0.555778,0.370037 0.518741,0.370037 0.518741,0.407185 0.555778,0.407185 0.555778,0.370037 0.592815,0.370037 0.592815,0.407185 0.555778,0.407185 0.555778,0.444222 0.518630,0.444222 0.518630,0.407074 0.481370,0.407074 0.481370,0.444222 0.518630,0.444222 0.518630,0.481370 0.481370,0.481370 0.481370,0.444222 0.444222,0.444222 0.444222,0.407185 0.481259,0.407185 0.481259,0.370037 0.444222,0.370037 0.444222,0.407185 0.407185,0.407185 0.407185,0.370037 0.444222,0.370037 0.444222,0.333000 0.407185,0.333000 0.407185,0.295963 0.370037,0.295963 0.370037,0.333000 0.407185,0.333000 0.407185,0.370037 0.370037,0.370037 0.370037,0.333000 0.333000,0.333000 0.333000,0.296074 0.369926,0.296074 0.369926,0.259037 0.333000,0.259037 0.333000,0.296074 0.296074,0.296074 0.296074,0.259037 0.333000,0.259037 0.333000,0.222111 0.369926,0.222111 0.369926,0.259037 0.406963,0.259037 0.406963,0.222111 0.369926,0.222111 0.369926,0.185185 0.406963,0.185185 0.406963,0.222111 0.443889,0.222111 0.443889,0.185074 0.480926,0.185074 0.480926,0.147926 0.443889,0.147926 0.443889,0.185074 0.406852,0.185074 0.406852,0.147926 0.443889,0.147926 0.443889,0.110889 0.406963,0.110889 0.406963,0.073963 0.369926,0.073963 0.369926,0.110889 0.406963,0.110889 0.406963,0.147815 0.369926,0.147815 0.369926,0.110889 0.333000,0.110889 0.333000,0.147926 0.295963,0.147926 0.295963,0.185074 0.333000,0.185074 0.333000,0.147926 0.370037,0.147926 0.370037,0.185074 0.333000,0.185074 0.333000,0.222111 0.296074,0.222111 0.296074,0.185185 0.259037,0.185185 0.259037,0.222111 0.296074,0.222111 0.296074,0.259037 0.259037,0.259037 0.259037,0.222111 0.222111,0.222111 0.222111,0.185074 0.259148,0.185074 0.259148,0.147926 0.222111,0.147926 0.222111,0.185074 0.185074,0.185074 0.185074,0.147926 0.222111,0.147926 0.222111,0.110889 0.259037,0.110889 0.259037,0.147815 0.296074,0.147815 0.296074,0.110889 0.259037,0.110889 0.259037,0.073963 0.296074,0.073963 0.296074,0.110889 0.333000,0.110889 0.333000,0.073963 0.369926,0.073963 0.369926,0.036926 0.333000,0.036926 0.333000,0.073963 0.296074,0.073963 0.296074,0.036926 0.333000,0.036926 0.333000,0.000000 0.296074,0.000000 0.296074,-0.036926 0.259037,-0.036926 0.259037,0.000000 0.296074,0.000000 0.296074,0.036926 0.259037,0.036926 0.259037,0.000000 0.222111,0.000000 0.222111,-0.036926 0.259037,-0.036926 0.259037,-0.073963 0.222111,-0.073963 0.222111,-0.036926 0.185185,-0.036926 0.185185,-0.073963 0.222111,-0.073963 0.222111,-0.110889 0.185074,-0.110889 0.185074,-0.147926 0.147926,-0.147926 0.147926,-0.110889 0.185074,-0.110889 0.185074,-0.073852 0.147926,-0.073852 0.147926,-0.110889 0.110889,-0.110889 0.110889,-0.073963 0.073963,-0.073963 0.073963,-0.036926 0.110889,-0.036926 0.110889,-0.073963 0.147815,-0.073963 0.147815,-0.036926 0.110889,-0.036926 0.110889,0.000000 0.147926,0.000000 0.147926,0.037037 0.185074,0.037037 0.185074,0.000000 0.147926,0.000000 0.147926,-0.037037 0.185074,-0.037037 0.185074,0.000000 0.222111,0.000000 0.222111,0.036926 0.185185,0.036926 0.185185,0.073963 0.222111,0.073963 0.222111,0.036926 0.259037,0.036926 0.259037,0.073963 0.222111,0.073963 0.222111,0.110889 0.185074,0.110889 0.185074,0.073852 0.147926,0.073852 0.147926,0.110889 0.185074,0.110889 0.185074,0.147926 0.147926,0.147926 0.147926,0.110889 0.110889,0.110889 0.110889,0.073963 0.147815,0.073963 0.147815,0.036926 0.110889,0.036926 0.110889,0.073963 0.073963,0.073963 0.073963,0.036926 0.110889,0.036926 0.110889,0.000000 0.073963,0.000000 0.073963,-0.036926 0.036926,-0.036926 0.036926,0.000000 0.073963,0.000000 0.073963,0.036926 0.036926,0.036926 0.036926,0.000000 " />
	</g>
</svg>