<svg version='1.1' width='1.990998' height='2.051032' viewbox='0 0 1.990998 2.051032' xmlns='http://www.w3.org/2000/svg'>
	<g transform='translate(0.995499,1.025516)'>
<polygon style='fill:none; stroke: black; stroke-width: 0.02px' points="0.866025,0.500000 0.862832,0.492984 0.855158,0.492239 0.851965,0.485222 0.844290,0.484477 0.839805,0.490752 0.832131,0.490007 0.828938,0.482990 0.821263,0.482245 0.818070,0.475229 0.810396,0.474484 0.805911,0.480758 0.798236,0.480013 0.793751,0.486288 0.796942,0.493311 0.792457,0.499586 0.784782,0.498841 0.780298,0.505115 0.772623,0.504370 0.769430,0.497354 0.761755,0.496609 0.758562,0.489592 0.750888,0.488847 0.746403,0.495122 0.738728,0.494377 0.735535,0.487360 0.727861,0.486615 0.724668,0.479599 0.716993,0.478854 0.712508,0.485128 0.704834,0.484384 0.700349,0.490658 0.703539,0.497681 0.699055,0.503956 0.691380,0.503211 0.686895,0.509485 0.679221,0.508740 0.674736,0.515015 0.677926,0.522038 0.673441,0.528312 0.676632,0.535336 0.684311,0.536087 0.687502,0.543110 0.683017,0.549385 0.686207,0.556408 0.681722,0.562682 0.674048,0.561937 0.669563,0.568212 0.661888,0.567467 0.657404,0.573741 0.660594,0.580765 0.656109,0.587039 0.648435,0.586294 0.643950,0.592569 0.636275,0.591824 0.633082,0.584807 0.625408,0.584062 0.622215,0.577046 0.614540,0.576301 0.610055,0.582575 0.602381,0.581830 0.599188,0.574814 0.591513,0.574069 0.588320,0.567053 0.580646,0.566308 0.576161,0.572582 0.568486,0.571837 0.564001,0.578111 0.567192,0.585135 0.562707,0.591409 0.555032,0.590664 0.550547,0.596939 0.542873,0.596194 0.539680,0.589177 0.532005,0.588432 0.528812,0.581416 0.521138,0.580671 0.516653,0.586945 0.508978,0.586200 0.505785,0.579184 0.498111,0.578439 0.494918,0.571423 0.487243,0.570678 0.482758,0.576952 0.475084,0.576207 0.470599,0.582482 0.473789,0.589505 0.469305,0.595779 0.461630,0.595034 0.457145,0.601309 0.449471,0.600564 0.444986,0.606838 0.448176,0.613862 0.443691,0.620136 0.446882,0.627160 0.454561,0.627910 0.457752,0.634934 0.453267,0.641208 0.456457,0.648232 0.451972,0.654506 0.444298,0.653761 0.439813,0.660035 0.432138,0.659291 0.427653,0.665565 0.430844,0.672588 0.426359,0.678863 0.418685,0.678118 0.414200,0.684392 0.406525,0.683647 0.402040,0.689922 0.405231,0.696945 0.400746,0.703219 0.403936,0.710243 0.411616,0.710994 0.414806,0.718017 0.410321,0.724292 0.413512,0.731315 0.409027,0.737589 0.412217,0.744613 0.419897,0.745364 0.423087,0.752387 0.430767,0.753138 0.435259,0.746862 0.442938,0.747613 0.446129,0.754636 0.453808,0.755387 0.456999,0.762411 0.452514,0.768685 0.455704,0.775708 0.451219,0.781983 0.454410,0.789006 0.462089,0.789757 0.465280,0.796781 0.460795,0.803055 0.463985,0.810078 0.459500,0.816353 0.451826,0.815608 0.447341,0.821882 0.439666,0.821137 0.435181,0.827412 0.438372,0.834435 0.433887,0.840709 0.426212,0.839965 0.421728,0.846239 0.414053,0.845494 0.409568,0.851768 0.412759,0.858792 0.408274,0.865066 0.411464,0.872090 0.419144,0.872840 0.422334,0.879864 0.417849,0.886138 0.421040,0.893162 0.416555,0.899436 0.408880,0.898691 0.404395,0.904966 0.396721,0.904221 0.392236,0.910495 0.395426,0.917518 0.390942,0.923793 0.383267,0.923048 0.378782,0.929322 0.371108,0.928577 0.367915,0.921561 0.360240,0.920816 0.357047,0.913800 0.349373,0.913055 0.344888,0.919329 0.337213,0.918584 0.334020,0.911568 0.326346,0.910823 0.323152,0.903806 0.315478,0.903061 0.310993,0.909336 0.303319,0.908591 0.298834,0.914865 0.302024,0.921889 0.297539,0.928163 0.289865,0.927418 0.285380,0.933692 0.277705,0.932947 0.274512,0.925931 0.266838,0.925186 0.263645,0.918170 0.255970,0.917425 0.251485,0.923699 0.243811,0.922954 0.240618,0.915938 0.232943,0.915193 0.229750,0.908176 0.222076,0.907431 0.217591,0.913706 0.209916,0.912961 0.205431,0.919235 0.208622,0.926259 0.204137,0.932533 0.196462,0.931788 0.191978,0.938063 0.184303,0.937318 0.179818,0.943592 0.183009,0.950615 0.178524,0.956890 0.181714,0.963913 0.189394,0.964664 0.192584,0.971688 0.188099,0.977962 0.191290,0.984985 0.186805,0.991260 0.179130,0.990515 0.174645,0.996789 0.166971,0.996044 0.162486,1.002319 0.165676,1.009342 0.161191,1.015616 0.153517,1.014872 0.149032,1.021146 0.141358,1.020401 0.138165,1.013385 0.130490,1.012640 0.127297,1.005623 0.119622,1.004878 0.115138,1.011153 0.107463,1.010408 0.104270,1.003391 0.096595,1.002646 0.093402,0.995630 0.085728,0.994885 0.081243,1.001159 0.073568,1.000414 0.069084,1.006689 0.072274,1.013712 0.067789,1.019987 0.060115,1.019242 0.055630,1.025516 0.047955,1.024771 0.044762,1.017755 0.037088,1.017010 0.033895,1.009993 0.026220,1.009248 0.021735,1.015523 0.014061,1.014778 0.010868,1.007761 0.003193,1.007016 0.000000,1.000000 0.004480,0.993727 0.001288,0.986708 0.005768,0.980434 0.002575,0.973415 -0.005101,0.972669 -0.008293,0.965650 -0.003813,0.959376 -0.007005,0.952358 -0.002525,0.946084 -0.005717,0.939065 -0.013394,0.938318 -0.016586,0.931300 -0.024262,0.930553 -0.028749,0.936828 -0.036425,0.936081 -0.039617,0.929062 -0.047294,0.928315 -0.050486,0.921296 -0.046006,0.915023 -0.049198,0.908004 -0.044718,0.901730 -0.047910,0.894712 -0.055586,0.893965 -0.058779,0.886946 -0.054299,0.880673 -0.057491,0.873654 -0.053011,0.867380 -0.056203,0.860361 -0.063879,0.859615 -0.067071,0.852596 -0.074748,0.851849 -0.079235,0.858124 -0.086911,0.857377 -0.090103,0.850358 -0.097779,0.849611 -0.100972,0.842592 -0.108648,0.841846 -0.113135,0.848120 -0.120811,0.847374 -0.125299,0.853648 -0.122109,0.860674 -0.126596,0.866949 -0.134273,0.866202 -0.138760,0.872477 -0.146436,0.871730 -0.149628,0.864711 -0.157304,0.863965 -0.160497,0.856946 -0.168173,0.856199 -0.172660,0.862474 -0.180336,0.861727 -0.183528,0.854708 -0.191205,0.853961 -0.194397,0.846942 -0.189917,0.840669 -0.193109,0.833650 -0.188629,0.827377 -0.191821,0.820358 -0.199497,0.819611 -0.202690,0.812592 -0.198210,0.806319 -0.201402,0.799300 -0.196922,0.793026 -0.200114,0.786008 -0.207790,0.785261 -0.210982,0.778242 -0.218659,0.777495 -0.223146,0.783770 -0.230822,0.783023 -0.234014,0.776004 -0.241690,0.775257 -0.244883,0.768239 -0.240403,0.761965 -0.243595,0.754946 -0.239115,0.748673 -0.242307,0.741654 -0.249983,0.740907 -0.253175,0.733888 -0.248695,0.727615 -0.251888,0.720596 -0.247408,0.714323 -0.250600,0.707304 -0.258276,0.706557 -0.261468,0.699538 -0.269144,0.698791 -0.273632,0.705066 -0.281308,0.704319 -0.284500,0.697301 -0.292176,0.696554 -0.295368,0.689535 -0.303044,0.688788 -0.307532,0.695063 -0.315208,0.694316 -0.319695,0.700591 -0.316506,0.707617 -0.320993,0.713891 -0.328669,0.713145 -0.333157,0.719419 -0.340833,0.718673 -0.344025,0.711654 -0.351701,0.710907 -0.354893,0.703888 -0.362569,0.703141 -0.367057,0.709416 -0.374733,0.708669 -0.377925,0.701650 -0.385601,0.700904 -0.388793,0.693885 -0.396470,0.693138 -0.400957,0.699413 -0.408633,0.698666 -0.413120,0.704941 -0.409931,0.711967 -0.414418,0.718241 -0.422094,0.717494 -0.426582,0.723769 -0.434258,0.723022 -0.438745,0.729297 -0.435555,0.736323 -0.440043,0.742598 -0.436853,0.749624 -0.429172,0.750376 -0.425983,0.757402 -0.430470,0.763677 -0.427280,0.770703 -0.431768,0.776978 -0.439444,0.776231 -0.443931,0.782506 -0.451607,0.781759 -0.456095,0.788033 -0.452905,0.795059 -0.457392,0.801334 -0.465069,0.800587 -0.469556,0.806862 -0.477232,0.806115 -0.480424,0.799096 -0.488100,0.798350 -0.491293,0.791331 -0.498969,0.790584 -0.503456,0.796859 -0.511132,0.796112 -0.514324,0.789093 -0.522001,0.788346 -0.525193,0.781327 -0.532869,0.780581 -0.537356,0.786855 -0.545032,0.786109 -0.549520,0.792383 -0.546330,0.799409 -0.550817,0.805684 -0.558494,0.804937 -0.562981,0.811212 -0.570657,0.810465 -0.573849,0.803446 -0.581525,0.802699 -0.584718,0.795681 -0.592394,0.794934 -0.596881,0.801209 -0.604557,0.800462 -0.607749,0.793443 -0.615426,0.792696 -0.618618,0.785677 -0.614138,0.779404 -0.617330,0.772385 -0.612850,0.766112 -0.616042,0.759093 -0.623718,0.758346 -0.626911,0.751327 -0.622431,0.745054 -0.625623,0.738035 -0.621143,0.731761 -0.624335,0.724743 -0.632011,0.723996 -0.635203,0.716977 -0.642880,0.716230 -0.647367,0.722505 -0.655043,0.721758 -0.658235,0.714739 -0.665911,0.713992 -0.669104,0.706974 -0.664624,0.700700 -0.667816,0.693681 -0.663336,0.687408 -0.666528,0.680389 -0.674204,0.679642 -0.677396,0.672623 -0.672916,0.666350 -0.676109,0.659331 -0.671629,0.653058 -0.674821,0.646039 -0.682497,0.645292 -0.685689,0.638273 -0.693365,0.637526 -0.697853,0.643801 -0.705529,0.643054 -0.708721,0.636035 -0.716397,0.635289 -0.719589,0.628270 -0.727266,0.627523 -0.731753,0.633798 -0.739429,0.633051 -0.743916,0.639326 -0.740727,0.646352 -0.745214,0.652626 -0.752890,0.651880 -0.757378,0.658154 -0.765054,0.657407 -0.768246,0.650389 -0.775922,0.649642 -0.779114,0.642623 -0.786790,0.641876 -0.791278,0.648151 -0.798954,0.647404 -0.802146,0.640385 -0.809822,0.639639 -0.813014,0.632620 -0.808534,0.626346 -0.811727,0.619327 -0.807247,0.613054 -0.810439,0.606035 -0.818115,0.605288 -0.821307,0.598270 -0.816827,0.591996 -0.820019,0.584977 -0.815540,0.578704 -0.818732,0.571685 -0.826408,0.570938 -0.829600,0.563919 -0.837276,0.563172 -0.841764,0.569447 -0.849440,0.568700 -0.852632,0.561682 -0.860308,0.560935 -0.863500,0.553916 -0.859020,0.547642 -0.862212,0.540624 -0.857733,0.534350 -0.860925,0.527331 -0.868601,0.526585 -0.871793,0.519566 -0.867313,0.513292 -0.870505,0.506273 -0.866025,0.500000 -0.858352,0.500743 -0.853870,0.494469 -0.846197,0.495212 -0.841715,0.488938 -0.844906,0.481917 -0.840424,0.475643 -0.832751,0.476386 -0.828268,0.470112 -0.820595,0.470855 -0.816113,0.464581 -0.819304,0.457560 -0.814822,0.451286 -0.818013,0.444265 -0.825691,0.443516 -0.828882,0.436495 -0.824400,0.430221 -0.827591,0.423200 -0.823109,0.416926 -0.815436,0.417669 -0.810954,0.411395 -0.803281,0.412138 -0.798798,0.405864 -0.801990,0.398843 -0.797507,0.392569 -0.789834,0.393312 -0.785352,0.387038 -0.777679,0.387781 -0.773196,0.381507 -0.776388,0.374486 -0.771905,0.368212 -0.775097,0.361191 -0.782774,0.360442 -0.785966,0.353421 -0.781483,0.347147 -0.784675,0.340126 -0.780192,0.333852 -0.783384,0.326831 -0.791061,0.326082 -0.794253,0.319061 -0.801931,0.318312 -0.806420,0.324588 -0.814098,0.323839 -0.817289,0.316818 -0.824967,0.316069 -0.828158,0.309048 -0.823676,0.302774 -0.826867,0.295753 -0.822385,0.289479 -0.825576,0.282458 -0.833254,0.281709 -0.836445,0.274688 -0.831963,0.268414 -0.835154,0.261393 -0.830672,0.255119 -0.822999,0.255862 -0.818517,0.249588 -0.810844,0.250331 -0.806361,0.244057 -0.809553,0.237036 -0.805070,0.230762 -0.797397,0.231505 -0.792915,0.225231 -0.785242,0.225974 -0.780760,0.219700 -0.783951,0.212679 -0.779468,0.206405 -0.782660,0.199384 -0.790338,0.198635 -0.793529,0.191614 -0.789046,0.185340 -0.792238,0.178319 -0.787755,0.172045 -0.780082,0.172788 -0.775600,0.166514 -0.767927,0.167257 -0.763445,0.160983 -0.766636,0.153962 -0.762154,0.147688 -0.754481,0.148431 -0.749998,0.142157 -0.742325,0.142900 -0.737843,0.136626 -0.741034,0.129605 -0.736552,0.123331 -0.739743,0.116310 -0.747421,0.115561 -0.750612,0.108540 -0.746130,0.102266 -0.749321,0.095245 -0.744839,0.088971 -0.748030,0.081950 -0.755708,0.081201 -0.758899,0.074180 -0.766577,0.073431 -0.771067,0.079706 -0.778745,0.078958 -0.781936,0.071936 -0.789614,0.071188 -0.792805,0.064166 -0.788323,0.057893 -0.791514,0.050871 -0.787032,0.044598 -0.790223,0.037576 -0.797901,0.036828 -0.801092,0.029806 -0.796610,0.023533 -0.799801,0.016511 -0.795318,0.010237 -0.798510,0.003216 -0.806188,0.002468 -0.809379,-0.004554 -0.817057,-0.005302 -0.821546,0.000973 -0.829224,0.000224 -0.832416,-0.006797 -0.840093,-0.007546 -0.843285,-0.014567 -0.850962,-0.015316 -0.855452,-0.009041 -0.863130,-0.009789 -0.867620,-0.003514 -0.864431,0.003514 -0.868921,0.009789 -0.876599,0.009041 -0.881088,0.015316 -0.888766,0.014567 -0.891957,0.007546 -0.899635,0.006797 -0.902827,-0.000224 -0.910504,-0.000973 -0.914994,0.005302 -0.922672,0.004554 -0.925863,-0.002468 -0.933541,-0.003216 -0.936732,-0.010237 -0.932250,-0.016511 -0.935441,-0.023533 -0.930959,-0.029806 -0.934150,-0.036828 -0.941828,-0.037576 -0.945019,-0.044598 -0.940537,-0.050871 -0.943728,-0.057893 -0.939246,-0.064166 -0.942437,-0.071188 -0.950115,-0.071936 -0.953306,-0.078958 -0.960984,-0.079706 -0.965474,-0.073431 -0.973152,-0.074180 -0.976343,-0.081201 -0.984021,-0.081950 -0.987212,-0.088971 -0.982730,-0.095245 -0.985921,-0.102266 -0.981438,-0.108540 -0.984630,-0.115561 -0.992308,-0.116310 -0.995499,-0.123331 -0.991016,-0.129605 -0.994208,-0.136626 -0.989725,-0.142900 -0.982052,-0.142157 -0.977570,-0.148431 -0.969897,-0.147688 -0.965415,-0.153962 -0.968606,-0.160983 -0.964124,-0.167257 -0.956451,-0.166514 -0.951968,-0.172788 -0.944295,-0.172045 -0.939813,-0.178319 -0.943004,-0.185340 -0.938522,-0.191614 -0.941713,-0.198635 -0.949391,-0.199384 -0.952582,-0.206405 -0.948100,-0.212679 -0.951291,-0.219700 -0.946809,-0.225974 -0.939136,-0.225231 -0.934654,-0.231505 -0.926981,-0.230762 -0.922498,-0.237036 -0.925690,-0.244057 -0.921207,-0.250331 -0.913534,-0.249588 -0.909052,-0.255862 -0.901379,-0.255119 -0.896896,-0.261393 -0.900088,-0.268414 -0.895605,-0.274688 -0.898797,-0.281709 -0.906474,-0.282458 -0.909666,-0.289479 -0.905183,-0.295753 -0.908375,-0.302774 -0.903892,-0.309048 -0.907084,-0.316069 -0.914761,-0.316818 -0.917953,-0.323839 -0.925631,-0.324588 -0.930120,-0.318312 -0.937798,-0.319061 -0.940989,-0.326082 -0.948667,-0.326831 -0.951858,-0.333852 -0.947376,-0.340126 -0.950567,-0.347147 -0.946085,-0.353421 -0.949276,-0.360442 -0.956954,-0.361191 -0.960145,-0.368212 -0.955663,-0.374486 -0.958854,-0.381507 -0.954372,-0.387781 -0.946699,-0.387038 -0.942217,-0.393312 -0.934544,-0.392569 -0.930061,-0.398843 -0.933253,-0.405864 -0.928770,-0.412138 -0.921097,-0.411395 -0.916615,-0.417669 -0.908942,-0.416926 -0.904460,-0.423200 -0.907651,-0.430221 -0.903168,-0.436495 -0.906360,-0.443516 -0.914038,-0.444265 -0.917229,-0.451286 -0.912746,-0.457560 -0.915938,-0.464581 -0.911455,-0.470855 -0.903782,-0.470112 -0.899300,-0.476386 -0.891627,-0.475643 -0.887145,-0.481917 -0.890336,-0.488938 -0.885854,-0.495212 -0.878181,-0.494469 -0.873698,-0.500743 -0.866025,-0.500000 -0.862832,-0.492984 -0.855158,-0.492239 -0.851965,-0.485222 -0.844290,-0.484477 -0.839805,-0.490752 -0.832131,-0.490007 -0.828938,-0.482990 -0.821263,-0.482245 -0.818070,-0.475229 -0.810396,-0.474484 -0.805911,-0.480758 -0.798236,-0.480013 -0.793751,-0.486288 -0.796942,-0.493311 -0.792457,-0.499586 -0.784782,-0.498841 -0.780298,-0.505115 -0.772623,-0.504370 -0.769430,-0.497354 -0.761755,-0.496609 -0.758562,-0.489592 -0.750888,-0.488847 -0.746403,-0.495122 -0.738728,-0.494377 -0.735535,-0.487360 -0.727861,-0.486615 -0.724668,-0.479599 -0.716993,-0.478854 -0.712508,-0.485128 -0.704834,-0.484384 -0.700349,-0.490658 -0.703539,-0.497681 -0.699055,-0.503956 -0.691380,-0.503211 -0.686895,-0.509485 -0.679221,-0.508740 -0.674736,-0.515015 -0.677926,-0.522038 -0.673441,-0.528312 -0.676632,-0.535336 -0.684311,-0.536087 -0.687502,-0.543110 -0.683017,-0.549385 -0.686207,-0.556408 -0.681722,-0.562682 -0.674048,-0.561937 -0.669563,-0.568212 -0.661888,-0.567467 -0.657404,-0.573741 -0.660594,-0.580765 -0.656109,-0.587039 -0.648435,-0.586294 -0.643950,-0.592569 -0.636275,-0.591824 -0.633082,-0.584807 -0.625408,-0.584062 -0.622215,-0.577046 -0.614540,-0.576301 -0.610055,-0.582575 -0.602381,-0.581830 -0.599188,-0.574814 -0.591513,-0.574069 -0.588320,-0.567053 -0.580646,-0.566308 -0.576161,-0.572582 -0.568486,-0.571837 -0.564001,-0.578111 -0.567192,-0.585135 -0.562707,-0.591409 -0.555032,-0.590664 -0.550547,-0.596939 -0.542873,-0.596194 -0.539680,-0.589177 -0.532005,-0.588432 -0.528812,-0.581416 -0.521138,-0.580671 -0.516653,-0.586945 -0.508978,-0.586200 -0.505785,-0.579184 -0.498111,-0.578439 -0.494918,-0.571423 -0.487243,-0.570678 -0.482758,-0.576952 -0.475084,-0.576207 -0.470599,-0.582482 -0.473789,-0.589505 -0.469305,-0.595779 -0.461630,-0.595034 -0.457145,-0.601309 -0.449471,-0.600564 -0.444986,-0.606838 -0.448176,-0.613862 -0.443691,-0.620136 -0.446882,-0.627160 -0.454561,-0.627910 -0.457752,-0.634934 -0.453267,-0.641208 -0.456457,-0.648232 -0.451972,-0.654506 -0.444298,-0.653761 -0.439813,-0.660035 -0.432138,-0.659291 -0.427653,-0.665565 -0.430844,-0.672588 -0.426359,-0.678863 -0.418685,-0.678118 -0.414200,-0.684392 -0.406525,-0.683647 -0.402040,-0.689922 -0.405231,-0.696945 -0.400746,-0.703219 -0.403936,-0.710243 -0.411616,-0.710994 -0.414806,-0.718017 -0.410321,-0.724292 -0.413512,-0.731315 -0.409027,-0.737589 -0.412217,-0.744613 -0.419897,-0.745364 -0.423087,-0.752387 -0.430767,-0.753138 -0.435259,-0.746862 -0.442938,-0.747613 -0.446129,-0.754636 -0.453808,-0.755387 -0.456999,-0.762411 -0.452514,-0.768685 -0.455704,-0.775708 -0.451219,-0.781983 -0.454410,-0.789006 -0.462089,-0.789757 -0.465280,-0.796781 -0.460795,-0.803055 -0.463985,-0.810078 -0.459500,-0.816353 -0.451826,-0.815608 -0.447341,-0.821882 -0.439666,-0.821137 -0.435181,-0.827412 -0.438372,-0.834435 -0.433887,-0.840709 -0.426212,-0.839965 -0.421728,-0.846239 -0.414053,-0.845494 -0.409568,-0.851768 -0.412759,-0.858792 -0.408274,-0.865066 -0.411464,-0.872090 -0.419144,-0.872840 -0.422334,-0.879864 -0.417849,-0.886138 -0.421040,-0.893162 -0.416555,-0.899436 -0.408880,-0.898691 -0.404395,-0.904966 -0.396721,-0.904221 -0.392236,-0.910495 -0.395426,-0.917518 -0.390942,-0.923793 -0.383267,-0.923048 -0.378782,-0.929322 -0.371108,-0.928577 -0.367915,-0.921561 -0.360240,-0.920816 -0.357047,-0.913800 -0.349373,-0.913055 -0.344888,-0.919329 -0.337213,-0.918584 -0.334020,-0.911568 -0.326346,-0.910823 -0.323152,-0.903806 -0.315478,-0.903061 -0.310993,-0.909336 -0.303319,-0.908591 -0.298834,-0.914865 -0.302024,-0.921889 -0.297539,-0.928163 -0.289865,-0.927418 -0.285380,-0.933692 -0.277705,-0.932947 -0.274512,-0.925931 -0.266838,-0.925186 -0.263645,-0.918170 -0.255970,-0.917425 -0.251485,-0.923699 -0.243811,-0.922954 -0.240618,-0.915938 -0.232943,-0.915193 -0.229750,-0.908176 -0.222076,-0.907431 -0.217591,-0.913706 -0.209916,-0.912961 -0.205431,-0.919235 -0.208622,-0.926259 -0.204137,-0.932533 -0.196462,-0.931788 -0.191978,-0.938063 -0.184303,-0.937318 -0.179818,-0.943592 -0.183009,-0.950615 -0.178524,-0.956890 -0.181714,-0.963913 -0.189394,-0.964664 -0.192584,-0.971688 -0.188099,-0.977962 -0.191290,-0.984985 -0.186805,-0.991260 -0.179130,-0.990515 -0.174645,-0.996789 -0.166971,-0.996044 -0.162486,-1.002319 -0.165676,-1.009342 -0.161191,-1.015616 -0.153517,-1.014872 -0.149032,-1.021146 -0.141358,-1.020401 -0.138165,-1.013385 -0.130490,-1.012640 -0.127297,-1.005623 -0.119622,-1.004878 -0.115138,-1.011153 -0.107463,-1.010408 -0.104270,-1.003391 -0.096595,-1.002646 -0.093402,-0.995630 -0.085728,-0.994885 -0.081243,-1.001159 -0.073568,-1.000414 -0.069084,-1.006689 -0.072274,-1.013712 -0.067789,-1.019987 -0.060115,-1.019242 -0.055630,-1.025516 -0.047955,-1.024771 -0.044762,-1.017755 -0.037088,-1.017010 -0.033895,-1.009993 -0.026220,-1.009248 -0.021735,-1.015523 -0.014061,-1.014778 -0.010868,-1.007761 -0.003193,-1.007016 -0.000000,-1.000000 -0.004480,-0.993727 -0.001288,-0.986708 -0.005768,-0.980434 -0.002575,-0.973415 0.005101,-0.972669 0.008293,-0.965650 0.003813,-0.959376 0.007005,-0.952358 0.002525,-0.946084 0.005717,-0.939065 0.013394,-0.938318 0.016586,-0.931300 0.024262,-0.930553 0.028749,-0.936828 0.036425,-0.936081 0.039617,-0.929062 0.047294,-0.928315 0.050486,-0.921296 0.046006,-0.915023 0.049198,-0.908004 0.044718,-0.901730 0.047910,-0.894712 0.055586,-0.893965 0.058779,-0.886946 0.054299,-0.880673 0.057491,-0.873654 0.053011,-0.867380 0.056203,-0.860361 0.063879,-0.859615 0.067071,-0.852596 0.074748,-0.851849 0.079235,-0.858124 0.086911,-0.857377 0.090103,-0.850358 0.097779,-0.849611 0.100972,-0.842592 0.108648,-0.841846 0.113135,-0.848120 0.120811,-0.847374 0.125299,-0.853648 0.122109,-0.860674 0.126596,-0.866949 0.134273,-0.866202 0.138760,-0.872477 0.146436,-0.871730 0.149628,-0.864711 0.157304,-0.863965 0.160497,-0.856946 0.168173,-0.856199 0.172660,-0.862474 0.180336,-0.861727 0.183528,-0.854708 0.191205,-0.853961 0.194397,-0.846942 0.189917,-0.840669 0.193109,-0.833650 0.188629,-0.827377 0.191821,-0.820358 0.199497,-0.819611 0.202690,-0.812592 0.198210,-0.806319 0.201402,-0.799300 0.196922,-0.793026 0.200114,-0.786008 0.207790,-0.785261 0.210982,-0.778242 0.218659,-0.777495 0.223146,-0.783770 0.230822,-0.783023 0.234014,-0.776004 0.241690,-0.775257 0.244883,-0.768239 0.240403,-0.761965 0.243595,-0.754946 0.239115,-0.748673 0.242307,-0.741654 0.249983,-0.740907 0.253175,-0.733888 0.248695,-0.727615 0.251888,-0.720596 0.247408,-0.714323 0.250600,-0.707304 0.258276,-0.706557 0.261468,-0.699538 0.269144,-0.698791 0.273632,-0.705066 0.281308,-0.704319 0.284500,-0.697301 0.292176,-0.696554 0.295368,-0.689535 0.303044,-0.688788 0.307532,-0.695063 0.315208,-0.694316 0.319695,-0.700591 0.316506,-0.707617 0.320993,-0.713891 0.328669,-0.713145 0.333157,-0.719419 0.340833,-0.718673 0.344025,-0.711654 0.351701,-0.710907 0.354893,-0.703888 0.362569,-0.703141 0.367057,-0.709416 0.374733,-0.708669 0.377925,-0.701650 0.385601,-0.700904 0.388793,-0.693885 0.396470,-0.693138 0.400957,-0.699413 0.408633,-0.698666 0.413120,-0.704941 0.409931,-0.711967 0.414418,-0.718241 0.422094,-0.717494 0.426582,-0.723769 0.434258,-0.723022 0.438745,-0.729297 0.435555,-0.736323 0.440043,-0.742598 0.436853,-0.749624 0.429172,-0.750376 0.425983,-0.757402 0.430470,-0.763677 0.427280,-0.770703 0.431768,-0.776978 0.439444,-0.776231 0.443931,-0.782506 0.451607,-0.781759 0.456095,-0.788033 0.452905,-0.795059 0.457392,-0.801334 0.465069,-0.800587 0.469556,-0.806862 0.477232,-0.806115 0.480424,-0.799096 0.488100,-0.798350 0.491293,-0.791331 0.498969,-0.790584 0.503456,-0.796859 0.511132,-0.796112 0.514324,-0.789093 0.522001,-0.788346 0.525193,-0.781327 0.532869,-0.780581 0.537356,-0.786855 0.545032,-0.786109 0.549520,-0.792383 0.546330,-0.799409 0.550817,-0.805684 0.558494,-0.804937 0.562981,-0.811212 0.570657,-0.810465 0.573849,-0.803446 0.581525,-0.802699 0.584718,-0.795681 0.592394,-0.794934 0.596881,-0.801209 0.604557,-0.800462 0.607749,-0.793443 0.615426,-0.792696 0.618618,-0.785677 0.614138,-0.779404 0.617330,-0.772385 0.612850,-0.766112 0.616042,-0.759093 0.623718,-0.758346 0.626911,-0.751327 0.622431,-0.745054 0.625623,-0.738035 0.621143,-0.731761 0.624335,-0.724743 0.632011,-0.723996 0.635203,-0.716977 0.642880,-0.716230 0.647367,-0.722505 0.655043,-0.721758 0.658235,-0.714739 0.665911,-0.713992 0.669104,-0.706974 0.664624,-0.700700 0.667816,-0.693681 0.663336,-0.687408 0.666528,-0.680389 0.674204,-0.679642 0.677396,-0.672623 0.672916,-0.666350 0.676109,-0.659331 0.671629,-0.653058 0.674821,-0.646039 0.682497,-0.645292 0.685689,-0.638273 0.693365,-0.637526 0.697853,-0.643801 0.705529,-0.643054 0.708721,-0.636035 0.716397,-0.635289 0.719589,-0.628270 0.727266,-0.627523 0.731753,-0.633798 0.739429,-0.633051 0.743916,-0.639326 0.740727,-0.646352 0.745214,-0.652626 0.752890,-0.651880 0.757378,-0.658154 0.765054,-0.657407 0.768246,-0.650389 0.775922,-0.649642 0.779114,-0.642623 0.786790,-0.641876 0.791278,-0.648151 0.798954,-0.647404 0.802146,-0.640385 0.809822,-0.639639 0.813014,-0.632620 0.808534,-0.626346 0.811727,-0.619327 0.807247,-0.613054 0.810439,-0.606035 0.818115,-0.605288 0.821307,-0.598270 0.816827,-0.591996 0.820019,-0.584977 0.815540,-0.578704 0.818732,-0.571685 0.826408,-0.570938 0.829600,-0.563919 0.837276,-0.563172 0.841764,-0.569447 0.849440,-0.568700 0.852632,-0.561682 0.860308,-0.560935 0.863500,-0.553916 0.859020,-0.547642 0.862212,-0.540624 0.857733,-0.534350 0.860925,-0.527331 0.868601,-0.526585 0.871793,-0.519566 0.867313,-0.513292 0.870505,-0.506273 0.866025,-0.500000 0.858352,-0.500743 0.853870,-0.494469 0.846197,-0.495212 0.841715,-0.488938 0.844906,-0.481917 0.840424,-0.475643 0.832751,-0.476386 0.828268,-0.470112 0.820595,-0.470855 0.816113,-0.464581 0.819304,-0.457560 0.814822,-0.451286 0.818013,-0.444265 0.825691,-0.443516 0.828882,-0.436495 0.824400,-0.430221 0.827591,-0.423200 0.823109,-0.416926 0.815436,-0.417669 0.810954,-0.411395 0.803281,-0.412138 0.798798,-0.405864 0.801990,-0.398843 0.797507,-0.392569 0.789834,-0.393312 0.785352,-0.387038 0.777679,-0.387781 0.773196,-0.381507 0.776388,-0.374486 0.771905,-0.368212 0.775097,-0.361191 0.782774,-0.360442 0.785966,-0.353421 0.781483,-0.347147 0.784675,-0.340126 0.780192,-0.333852 0.783384,-0.326831 0.791061,-0.326082 0.794253,-0.319061 0.801931,-0.318312 0.806420,-0.324588 0.814098,-0.323839 0.817289,-0.316818 0.824967,-0.316069 0.828158,-0.309048 0.823676,-0.302774 0.826867,-0.295753 0.822385,-0.289479 0.825576,-0.282458 0.833254,-0.281709 0.836445,-0.274688 0.831963,-0.268414 0.835154,-0.261393 0.830672,-0.255119 0.822999,-0.255862 0.818517,-0.249588 0.810844,-0.250331 0.806361,-0.244057 0.809553,-0.237036 0.805070,-0.230762 0.797397,-0.231505 0.792915,-0.225231 0.785242,-0.225974 0.780760,-0.219700 0.783951,-0.212679 0.779468,-0.206405 0.782660,-0.199384 0.790338,-0.198635 0.793529,-0.191614 0.789046,-0.185340 0.792238,-0.178319 0.787755,-0.172045 0.780082,-0.172788 0.775600,-0.166514 0.767927,-0.167257 0.763445,-0.160983 0.766636,-0.153962 0.762154,-0.147688 0.754481,-0.148431 0.749998,-0.142157 0.742325,-0.142900 0.737843,-0.136626 0.741034,-0.129605 0.736552,-0.123331 0.739743,-0.116310 0.747421,-0.115561 0.750612,-0.108540 0.746130,-0.102266 0.749321,-0.095245 0.744839,-0.088971 0.748030,-0.081950 0.755708,-0.081201 0.758899,-0.074180 0.766577,-0.073431 0.771067,-0.079706 0.778745,-0.078958 0.781936,-0.071936 0.789614,-0.071188 0.792805,-0.064166 0.788323,-0.057893 0.791514,-0.050871 0.787032,-0.044598 0.790223,-0.037576 0.797901,-0.036828 0.801092,-0.029806 0.796610,-0.023533 0.799801,-0.016511 0.795318,-0.010237 0.798510,-0.003216 0.806188,-0.002468 0.809379,0.004554 0.817057,0.005302 0.821546,-0.000973 0.829224,-0.000224 0.832416,0.006797 0.840093,0.007546 0.843285,0.014567 0.850962,0.015316 0.855452,0.009041 0.863130,0.009789 0.867620,0.003514 0.864431,-0.003514 0.868921,-0.009789 0.876599,-0.009041 0.881088,-0.015316 0.888766,-0.014567 0.891957,-0.007546 0.899635,-0.006797 0.902827,0.000224 0.910504,0.000973 0.914994,-0.005302 0.922672,-0.004554 0.925863,0.002468 0.933541,0.003216 0.936732,0.010237 0.932250,0.016511 0.935441,0.023533 0.930959,0.029806 0.934150,0.036828 0.941828,0.037576 0.945019,0.044598 0.940537,0.050871 0.943728,0.057893 0.939246,0.064166 0.942437,0.071188 0.950115,0.071936 0.953306,0.078958 0.960984,0.079706 0.965474,0.073431 0.973152,0.074180 0.976343,0.081201 0.984021,0.081950 0.987212,0.088971 0.982730,0.095245 0.985921,0.102266 0.981438,0.108540 0.984630,0.115561 0.992308,0.116310 0.995499,0.123331 0.991016,0.129605 0.994208,0.136626 0.989725,0.142900 0.982052,0.142157 0.977570,0.148431 0.969897,0.147688 0.965415,0.153962 0.968606,0.160983 0.964124,0.167257 0.956451,0.166514 0.951968,0.172788 0.944295,0.172045 0.939813,0.178319 0.943004,0.185340 0.938522,0.191614 0.941713,0.198635 0.949391,0.199384 0.952582,0.206405 0.948100,0.212679 0.951291,0.219700 0.946809,0.225974 0.939136,0.225231 0.934654,0.231505 0.926981,0.230762 0.922498,0.237036 0.925690,0.244057 0.921207,0.250331 0.913534,0.249588 0.909052,0.255862 0.901379,0.255119 0.896896,0.261393 0.900088,0.268414 0.895605,0.274688 0.898797,0.281709 0.906474,0.282458 0.909666,0.289479 0.905183,0.295753 0.908375,0.302774 0.903892,0.309048 0.907084,0.316069 0.914761,0.316818 0.917953,0.323839 0.925631,0.324588 0.930120,0.318312 0.937798,0.319061 0.940989,0.326082 0.948667,0.326831 0.951858,0.333852 0.947376,0.340126 0.950567,0.347147 0.946085,0.353421 0.949276,0.360442 0.956954,0.361191 0.960145,0.368212 0.955663,0.374486 0.958854,0.381507 0.954372,0.387781 0.946699,0.387038 0.942217,0.393312 0.934544,0.392569 0.930061,0.398843 0.933253,0.405864 0.928770,0.412138 0.921097,0.411395 0.916615,0.417669 0.908942,0.416926 0.904460,0.423200 0.907651,0.430221 0.903168,0.436495 0.906360,0.443516 0.914038,0.444265 0.917229,0.451286 0.912746,0.457560 0.915938,0.464581 0.911455,0.470855 0.903782,0.470112 0.899300,0.476386 0.891627,0.475643 0.887145,0.481917 0.890336,0.488938 0.885854,0.495212 0.878181,0.494469 0.873698,0.500743 " />
	</g>
</svg>