<svg version='1.1' width='1.000000' height='1.000000' viewbox='0 0 1.000000 1.000000' xmlns='http://www.w3.org/2000/svg'>
	<g transform='translate(-0.000000,-0.000000)'>
<polygon style='fill: black; stroke: none;' points="0.000000,0.000000 0.000000,0.025480 0.026542,0.026542 0.000000,0.027604 0.000000,0.053084 0.026542,0.054146 0.028754,0.026542 0.028754,0.054234 0.055296,0.055296 0.028754,0.056358 0.028754,0.084050 0.026542,0.056446 0.000000,0.057508 0.000000,0.082988 0.026542,0.084050 0.000000,0.085112 0.000000,0.110592 0.026542,0.111654 0.028754,0.084050 0.028754,0.111742 0.055296,0.112804 0.057508,0.085200 0.028846,0.081746 0.057692,0.082900 0.059904,0.055296 0.059904,0.082988 0.088750,0.084142 0.059904,0.085296 0.059904,0.112988 0.086446,0.114050 0.088658,0.086446 0.088658,0.114138 0.115200,0.115200 0.088658,0.116262 0.088658,0.143954 0.086446,0.116350 0.059904,0.117412 0.059904,0.145104 0.088750,0.146258 0.059904,0.147412 0.059904,0.175104 0.057692,0.147500 0.028846,0.148654 0.057508,0.145200 0.055296,0.117596 0.028754,0.118658 0.028754,0.146350 0.026542,0.118746 0.000000,0.119808 0.000000,0.145288 0.026542,0.146350 0.000000,0.147412 0.000000,0.172892 0.026542,0.173954 0.028754,0.146350 0.028754,0.174042 0.055296,0.175104 0.028754,0.176166 0.028754,0.203858 0.026542,0.176254 0.000000,0.177316 0.000000,0.202796 0.026542,0.203858 0.000000,0.204920 0.000000,0.230400 0.026542,0.231462 0.028754,0.203858 0.028754,0.231550 0.055296,0.232612 0.057508,0.205008 0.028846,0.201554 0.057692,0.202708 0.059904,0.175104 0.059904,0.202796 0.088750,0.203950 0.059904,0.205104 0.059904,0.232796 0.086446,0.233858 0.088658,0.206254 0.088658,0.233946 0.115200,0.235008 0.117412,0.207404 0.088750,0.203950 0.117596,0.205104 0.119808,0.177500 0.091146,0.174046 0.086354,0.203758 0.088758,0.173758 0.060096,0.170304 0.088942,0.171458 0.091346,0.141458 0.091346,0.171554 0.120192,0.172708 0.122404,0.145104 0.093742,0.141650 0.122588,0.142804 0.124800,0.115200 0.124800,0.142892 0.153646,0.144046 0.124800,0.145200 0.124800,0.172892 0.153646,0.174046 0.156050,0.144046 0.156050,0.174142 0.184896,0.175296 0.156050,0.176450 0.156050,0.206546 0.153646,0.176546 0.124800,0.177700 0.124800,0.205392 0.153646,0.206546 0.124800,0.207700 0.124800,0.235392 0.151342,0.236454 0.153554,0.208850 0.153554,0.236542 0.180096,0.237604 0.182308,0.210000 0.153646,0.206546 0.182492,0.207700 0.184704,0.180096 0.184704,0.207788 0.213550,0.208942 0.184704,0.210096 0.184704,0.237788 0.211246,0.238850 0.213458,0.211246 0.213458,0.238938 0.240000,0.240000 0.213458,0.241062 0.213458,0.268754 0.211246,0.241150 0.184704,0.242212 0.184704,0.269904 0.213550,0.271058 0.184704,0.272212 0.184704,0.299904 0.182492,0.272300 0.153646,0.273454 0.182308,0.270000 0.180096,0.242396 0.153554,0.243458 0.153554,0.271150 0.151342,0.243546 0.124800,0.244608 0.124800,0.272300 0.153646,0.273454 0.124800,0.274608 0.124800,0.302300 0.153646,0.303454 0.156050,0.273454 0.156050,0.303550 0.184896,0.304704 0.156050,0.305858 0.156050,0.335954 0.153646,0.305954 0.124800,0.307108 0.124800,0.334800 0.153646,0.335954 0.124800,0.337108 0.124800,0.364800 0.122588,0.337196 0.093742,0.338350 0.122404,0.334896 0.120192,0.307292 0.091346,0.308446 0.091346,0.338542 0.088942,0.308542 0.060096,0.309696 0.088758,0.306242 0.086354,0.276242 0.091146,0.305954 0.119808,0.302500 0.117596,0.274896 0.088750,0.276050 0.117412,0.272596 0.115200,0.244992 0.088658,0.246054 0.088658,0.273746 0.086446,0.246142 0.059904,0.247204 0.059904,0.274896 0.088750,0.276050 0.059904,0.277204 0.059904,0.304896 0.057692,0.277292 0.028846,0.278446 0.057508,0.274992 0.055296,0.247388 0.028754,0.248450 0.028754,0.276142 0.026542,0.248538 0.000000,0.249600 0.000000,0.275080 0.026542,0.276142 0.000000,0.277204 0.000000,0.302684 0.026542,0.303746 0.028754,0.276142 0.028754,0.303834 0.055296,0.304896 0.028754,0.305958 0.028754,0.333650 0.026542,0.306046 0.000000,0.307108 0.000000,0.332588 0.026542,0.333650 0.000000,0.334712 0.000000,0.360192 0.026542,0.361254 0.028754,0.333650 0.028754,0.361342 0.055296,0.362404 0.057508,0.334800 0.028846,0.331346 0.057692,0.332500 0.059904,0.304896 0.059904,0.332588 0.088750,0.333742 0.059904,0.334896 0.059904,0.362588 0.086446,0.363650 0.088658,0.336046 0.088658,0.363738 0.115200,0.364800 0.088658,0.365862 0.088658,0.393554 0.086446,0.365950 0.059904,0.367012 0.059904,0.394704 0.088750,0.395858 0.059904,0.397012 0.059904,0.424704 0.057692,0.397100 0.028846,0.398254 0.057508,0.394800 0.055296,0.367196 0.028754,0.368258 0.028754,0.395950 0.026542,0.368346 0.000000,0.369408 0.000000,0.394888 0.026542,0.395950 0.000000,0.397012 0.000000,0.422492 0.026542,0.423554 0.028754,0.395950 0.028754,0.423642 0.055296,0.424704 0.028754,0.425766 0.028754,0.453458 0.026542,0.425854 0.000000,0.426916 0.000000,0.452396 0.026542,0.453458 0.000000,0.454520 0.000000,0.480000 0.026542,0.481062 0.028754,0.453458 0.028754,0.481150 0.055296,0.482212 0.057508,0.454608 0.028846,0.451154 0.057692,0.452308 0.059904,0.424704 0.059904,0.452396 0.088750,0.453550 0.059904,0.454704 0.059904,0.482396 0.086446,0.483458 0.088658,0.455854 0.088658,0.483546 0.115200,0.484608 0.117412,0.457004 0.088750,0.453550 0.117596,0.454704 0.119808,0.427100 0.091146,0.423646 0.086354,0.453358 0.088758,0.423358 0.060096,0.419904 0.088942,0.421058 0.091346,0.391058 0.091346,0.421154 0.120192,0.422308 0.122404,0.394704 0.093742,0.391250 0.122588,0.392404 0.124800,0.364800 0.124800,0.392492 0.153646,0.393646 0.124800,0.394800 0.124800,0.422492 0.153646,0.423646 0.156050,0.393646 0.156050,0.423742 0.184896,0.424896 0.156050,0.426050 0.156050,0.456146 0.153646,0.426146 0.124800,0.427300 0.124800,0.454992 0.153646,0.456146 0.124800,0.457300 0.124800,0.484992 0.151342,0.486054 0.153554,0.458450 0.153554,0.486142 0.180096,0.487204 0.182308,0.459600 0.153646,0.456146 0.182492,0.457300 0.184704,0.429696 0.184704,0.457388 0.213550,0.458542 0.184704,0.459696 0.184704,0.487388 0.211246,0.488450 0.213458,0.460846 0.213458,0.488538 0.240000,0.489600 0.242212,0.461996 0.213550,0.458542 0.242396,0.459696 0.244608,0.432092 0.215946,0.428638 0.211154,0.458350 0.213558,0.428350 0.184896,0.424896 0.213742,0.426050 0.216146,0.396050 0.216146,0.426146 0.244992,0.427300 0.247204,0.399696 0.218542,0.396242 0.247388,0.397396 0.249600,0.369792 0.220938,0.366338 0.216146,0.396050 0.218550,0.366050 0.189888,0.362596 0.185096,0.392308 0.215846,0.398538 0.184696,0.394784 0.179904,0.424496 0.182308,0.394496 0.151158,0.390742 0.182508,0.391996 0.184912,0.361996 0.156250,0.358542 0.151458,0.388254 0.153862,0.358254 0.125200,0.354800 0.154046,0.355954 0.156450,0.325954 0.156450,0.356050 0.185296,0.357204 0.187700,0.327204 0.156550,0.323450 0.187900,0.324704 0.190304,0.294704 0.190304,0.324800 0.221654,0.326054 0.190304,0.327308 0.190304,0.357404 0.219150,0.358558 0.221554,0.328558 0.221554,0.358654 0.250400,0.359808 0.252612,0.332204 0.223950,0.328750 0.252796,0.329904 0.255008,0.302300 0.226346,0.298846 0.221554,0.328558 0.223958,0.298558 0.195296,0.295104 0.224142,0.296258 0.226546,0.266258 0.226546,0.296354 0.255392,0.297508 0.257604,0.269904 0.228942,0.266450 0.257788,0.267604 0.260000,0.240000 0.260000,0.267692 0.288846,0.268846 0.260000,0.270000 0.260000,0.297692 0.288846,0.298846 0.291250,0.268846 0.291250,0.298942 0.320096,0.300096 0.291250,0.301250 0.291250,0.331346 0.288846,0.301346 0.260000,0.302500 0.260000,0.330192 0.288846,0.331346 0.260000,0.332500 0.260000,0.360192 0.288846,0.361346 0.291250,0.331346 0.291250,0.361442 0.320096,0.362596 0.322500,0.332596 0.291350,0.328842 0.322700,0.330096 0.325104,0.300096 0.325104,0.330192 0.356454,0.331446 0.325104,0.332700 0.325104,0.362796 0.353950,0.363950 0.356354,0.333950 0.356354,0.364046 0.385200,0.365200 0.356354,0.366354 0.356354,0.396450 0.353950,0.366450 0.325104,0.367604 0.325104,0.397700 0.356454,0.398954 0.325104,0.400208 0.325104,0.430304 0.322700,0.400304 0.291350,0.401558 0.322500,0.397804 0.320096,0.367804 0.291250,0.368958 0.291250,0.399054 0.288846,0.369054 0.260000,0.370208 0.260000,0.397900 0.288846,0.399054 0.260000,0.400208 0.260000,0.427900 0.288846,0.429054 0.291250,0.399054 0.291250,0.429150 0.320096,0.430304 0.291250,0.431458 0.291250,0.461554 0.288846,0.431554 0.260000,0.432708 0.260000,0.460400 0.288846,0.461554 0.260000,0.462708 0.260000,0.490400 0.286542,0.491462 0.288754,0.463858 0.288754,0.491550 0.315296,0.492612 0.317508,0.465008 0.288846,0.461554 0.317692,0.462708 0.319904,0.435104 0.319904,0.462796 0.348750,0.463950 0.319904,0.465104 0.319904,0.492796 0.346446,0.493858 0.348658,0.466254 0.348658,0.493946 0.375200,0.495008 0.377412,0.467404 0.348750,0.463950 0.377596,0.465104 0.379808,0.437500 0.351146,0.434046 0.346354,0.463758 0.348758,0.433758 0.320096,0.430304 0.348942,0.431458 0.351346,0.401458 0.351346,0.431554 0.380192,0.432708 0.382404,0.405104 0.353742,0.401650 0.382588,0.402804 0.384800,0.375200 0.384800,0.402892 0.413646,0.404046 0.384800,0.405200 0.384800,0.432892 0.413646,0.434046 0.416050,0.404046 0.416050,0.434142 0.444896,0.435296 0.416050,0.436450 0.416050,0.466546 0.413646,0.436546 0.384800,0.437700 0.384800,0.465392 0.413646,0.466546 0.384800,0.467700 0.384800,0.495392 0.411342,0.496454 0.413554,0.468850 0.413554,0.496542 0.440096,0.497604 0.442308,0.470000 0.413646,0.466546 0.442492,0.467700 0.444704,0.440096 0.444704,0.467788 0.473550,0.468942 0.444704,0.470096 0.444704,0.497788 0.471246,0.498850 0.473458,0.471246 0.473458,0.498938 0.500000,0.500000 0.473458,0.501062 0.473458,0.528754 0.471246,0.501150 0.444704,0.502212 0.444704,0.529904 0.473550,0.531058 0.444704,0.532212 0.444704,0.559904 0.442492,0.532300 0.413646,0.533454 0.442308,0.530000 0.440096,0.502396 0.413554,0.503458 0.413554,0.531150 0.411342,0.503546 0.384800,0.504608 0.384800,0.532300 0.413646,0.533454 0.384800,0.534608 0.384800,0.562300 0.413646,0.563454 0.416050,0.533454 0.416050,0.563550 0.444896,0.564704 0.416050,0.565858 0.416050,0.595954 0.413646,0.565954 0.384800,0.567108 0.384800,0.594800 0.413646,0.595954 0.384800,0.597108 0.384800,0.624800 0.382588,0.597196 0.353742,0.598350 0.382404,0.594896 0.380192,0.567292 0.351346,0.568446 0.351346,0.598542 0.348942,0.568542 0.320096,0.569696 0.348758,0.566242 0.346354,0.536242 0.351146,0.565954 0.379808,0.562500 0.377596,0.534896 0.348750,0.536050 0.377412,0.532596 0.375200,0.504992 0.348658,0.506054 0.348658,0.533746 0.346446,0.506142 0.319904,0.507204 0.319904,0.534896 0.348750,0.536050 0.319904,0.537204 0.319904,0.564896 0.317692,0.537292 0.288846,0.538446 0.317508,0.534992 0.315296,0.507388 0.288754,0.508450 0.288754,0.536142 0.286542,0.508538 0.260000,0.509600 0.260000,0.537292 0.288846,0.538446 0.260000,0.539600 0.260000,0.567292 0.288846,0.568446 0.291250,0.538446 0.291250,0.568542 0.320096,0.569696 0.291250,0.570850 0.291250,0.600946 0.288846,0.570946 0.260000,0.572100 0.260000,0.599792 0.288846,0.600946 0.260000,0.602100 0.260000,0.629792 0.288846,0.630946 0.291250,0.600946 0.291250,0.631042 0.320096,0.632196 0.322500,0.602196 0.291350,0.598442 0.322700,0.599696 0.325104,0.569696 0.325104,0.599792 0.356454,0.601046 0.325104,0.602300 0.325104,0.632396 0.353950,0.633550 0.356354,0.603550 0.356354,0.633646 0.385200,0.634800 0.356354,0.635954 0.356354,0.666050 0.353950,0.636050 0.325104,0.637204 0.325104,0.667300 0.356454,0.668554 0.325104,0.669808 0.325104,0.699904 0.322700,0.669904 0.291350,0.671158 0.322500,0.667404 0.320096,0.637404 0.291250,0.638558 0.291250,0.668654 0.288846,0.638654 0.260000,0.639808 0.260000,0.667500 0.288846,0.668654 0.260000,0.669808 0.260000,0.697500 0.288846,0.698654 0.291250,0.668654 0.291250,0.698750 0.320096,0.699904 0.291250,0.701058 0.291250,0.731154 0.288846,0.701154 0.260000,0.702308 0.260000,0.730000 0.288846,0.731154 0.260000,0.732308 0.260000,0.760000 0.257788,0.732396 0.228942,0.733550 0.257604,0.730096 0.255392,0.702492 0.226546,0.703646 0.226546,0.733742 0.224142,0.703742 0.195296,0.704896 0.223958,0.701442 0.221554,0.671442 0.226346,0.701154 0.255008,0.697700 0.252796,0.670096 0.223950,0.671250 0.252612,0.667796 0.250400,0.640192 0.221554,0.641346 0.221554,0.671442 0.219150,0.641442 0.190304,0.642596 0.190304,0.672692 0.221654,0.673946 0.190304,0.675200 0.190304,0.705296 0.187900,0.675296 0.156550,0.676550 0.187700,0.672796 0.185296,0.642796 0.156450,0.643950 0.156450,0.674046 0.154046,0.644046 0.125200,0.645200 0.153862,0.641746 0.151458,0.611746 0.156250,0.641458 0.184912,0.638004 0.182508,0.608004 0.151158,0.609258 0.182308,0.605504 0.179904,0.575504 0.184696,0.605216 0.215846,0.601462 0.185096,0.607692 0.189888,0.637404 0.218550,0.633950 0.216146,0.603950 0.220938,0.633662 0.249600,0.630208 0.247388,0.602604 0.218542,0.603758 0.247204,0.600304 0.244992,0.572700 0.216146,0.573854 0.216146,0.603950 0.213742,0.573950 0.184896,0.575104 0.213558,0.571650 0.211154,0.541650 0.215946,0.571362 0.244608,0.567908 0.242396,0.540304 0.213550,0.541458 0.242212,0.538004 0.240000,0.510400 0.213458,0.511462 0.213458,0.539154 0.211246,0.511550 0.184704,0.512612 0.184704,0.540304 0.213550,0.541458 0.184704,0.542612 0.184704,0.570304 0.182492,0.542700 0.153646,0.543854 0.182308,0.540400 0.180096,0.512796 0.153554,0.513858 0.153554,0.541550 0.151342,0.513946 0.124800,0.515008 0.124800,0.542700 0.153646,0.543854 0.124800,0.545008 0.124800,0.572700 0.153646,0.573854 0.156050,0.543854 0.156050,0.573950 0.184896,0.575104 0.156050,0.576258 0.156050,0.606354 0.153646,0.576354 0.124800,0.577508 0.124800,0.605200 0.153646,0.606354 0.124800,0.607508 0.124800,0.635200 0.122588,0.607596 0.093742,0.608750 0.122404,0.605296 0.120192,0.577692 0.091346,0.578846 0.091346,0.608942 0.088942,0.578942 0.060096,0.580096 0.088758,0.576642 0.086354,0.546642 0.091146,0.576354 0.119808,0.572900 0.117596,0.545296 0.088750,0.546450 0.117412,0.542996 0.115200,0.515392 0.088658,0.516454 0.088658,0.544146 0.086446,0.516542 0.059904,0.517604 0.059904,0.545296 0.088750,0.546450 0.059904,0.547604 0.059904,0.575296 0.057692,0.547692 0.028846,0.548846 0.057508,0.545392 0.055296,0.517788 0.028754,0.518850 0.028754,0.546542 0.026542,0.518938 0.000000,0.520000 0.000000,0.545480 0.026542,0.546542 0.000000,0.547604 0.000000,0.573084 0.026542,0.574146 0.028754,0.546542 0.028754,0.574234 0.055296,0.575296 0.028754,0.576358 0.028754,0.604050 0.026542,0.576446 0.000000,0.577508 0.000000,0.602988 0.026542,0.604050 0.000000,0.605112 0.000000,0.630592 0.026542,0.631654 0.028754,0.604050 0.028754,0.631742 0.055296,0.632804 0.057508,0.605200 0.028846,0.601746 0.057692,0.602900 0.059904,0.575296 0.059904,0.602988 0.088750,0.604142 0.059904,0.605296 0.059904,0.632988 0.086446,0.634050 0.088658,0.606446 0.088658,0.634138 0.115200,0.635200 0.088658,0.636262 0.088658,0.663954 0.086446,0.636350 0.059904,0.637412 0.059904,0.665104 0.088750,0.666258 0.059904,0.667412 0.059904,0.695104 0.057692,0.667500 0.028846,0.668654 0.057508,0.665200 0.055296,0.637596 0.028754,0.638658 0.028754,0.666350 0.026542,0.638746 0.000000,0.639808 0.000000,0.665288 0.026542,0.666350 0.000000,0.667412 0.000000,0.692892 0.026542,0.693954 0.028754,0.666350 0.028754,0.694042 0.055296,0.695104 0.028754,0.696166 0.028754,0.723858 0.026542,0.696254 0.000000,0.697316 0.000000,0.722796 0.026542,0.723858 0.000000,0.724920 0.000000,0.750400 0.026542,0.751462 0.028754,0.723858 0.028754,0.751550 0.055296,0.752612 0.057508,0.725008 0.028846,0.721554 0.057692,0.722708 0.059904,0.695104 0.059904,0.722796 0.088750,0.723950 0.059904,0.725104 0.059904,0.752796 0.086446,0.753858 0.088658,0.726254 0.088658,0.753946 0.115200,0.755008 0.117412,0.727404 0.088750,0.723950 0.117596,0.725104 0.119808,0.697500 0.091146,0.694046 0.086354,0.723758 0.088758,0.693758 0.060096,0.690304 0.088942,0.691458 0.091346,0.661458 0.091346,0.691554 0.120192,0.692708 0.122404,0.665104 0.093742,0.661650 0.122588,0.662804 0.124800,0.635200 0.124800,0.662892 0.153646,0.664046 0.124800,0.665200 0.124800,0.692892 0.153646,0.694046 0.156050,0.664046 0.156050,0.694142 0.184896,0.695296 0.156050,0.696450 0.156050,0.726546 0.153646,0.696546 0.124800,0.697700 0.124800,0.725392 0.153646,0.726546 0.124800,0.727700 0.124800,0.755392 0.151342,0.756454 0.153554,0.728850 0.153554,0.756542 0.180096,0.757604 0.182308,0.730000 0.153646,0.726546 0.182492,0.727700 0.184704,0.700096 0.184704,0.727788 0.213550,0.728942 0.184704,0.730096 0.184704,0.757788 0.211246,0.758850 0.213458,0.731246 0.213458,0.758938 0.240000,0.760000 0.213458,0.761062 0.213458,0.788754 0.211246,0.761150 0.184704,0.762212 0.184704,0.789904 0.213550,0.791058 0.184704,0.792212 0.184704,0.819904 0.182492,0.792300 0.153646,0.793454 0.182308,0.790000 0.180096,0.762396 0.153554,0.763458 0.153554,0.791150 0.151342,0.763546 0.124800,0.764608 0.124800,0.792300 0.153646,0.793454 0.124800,0.794608 0.124800,0.822300 0.153646,0.823454 0.156050,0.793454 0.156050,0.823550 0.184896,0.824704 0.156050,0.825858 0.156050,0.855954 0.153646,0.825954 0.124800,0.827108 0.124800,0.854800 0.153646,0.855954 0.124800,0.857108 0.124800,0.884800 0.122588,0.857196 0.093742,0.858350 0.122404,0.854896 0.120192,0.827292 0.091346,0.828446 0.091346,0.858542 0.088942,0.828542 0.060096,0.829696 0.088758,0.826242 0.086354,0.796242 0.091146,0.825954 0.119808,0.822500 0.117596,0.794896 0.088750,0.796050 0.117412,0.792596 0.115200,0.764992 0.088658,0.766054 0.088658,0.793746 0.086446,0.766142 0.059904,0.767204 0.059904,0.794896 0.088750,0.796050 0.059904,0.797204 0.059904,0.824896 0.057692,0.797292 0.028846,0.798446 0.057508,0.794992 0.055296,0.767388 0.028754,0.768450 0.028754,0.796142 0.026542,0.768538 0.000000,0.769600 0.000000,0.795080 0.026542,0.796142 0.000000,0.797204 0.000000,0.822684 0.026542,0.823746 0.028754,0.796142 0.028754,0.823834 0.055296,0.824896 0.028754,0.825958 0.028754,0.853650 0.026542,0.826046 0.000000,0.827108 0.000000,0.852588 0.026542,0.853650 0.000000,0.854712 0.000000,0.880192 0.026542,0.881254 0.028754,0.853650 0.028754,0.881342 0.055296,0.882404 0.057508,0.854800 0.028846,0.851346 0.057692,0.852500 0.059904,0.824896 0.059904,0.852588 0.088750,0.853742 0.059904,0.854896 0.059904,0.882588 0.086446,0.883650 0.088658,0.856046 0.088658,0.883738 0.115200,0.884800 0.088658,0.885862 0.088658,0.913554 0.086446,0.885950 0.059904,0.887012 0.059904,0.914704 0.088750,0.915858 0.059904,0.917012 0.059904,0.944704 0.057692,0.917100 0.028846,0.918254 0.057508,0.914800 0.055296,0.887196 0.028754,0.888258 0.028754,0.915950 0.026542,0.888346 0.000000,0.889408 0.000000,0.914888 0.026542,0.915950 0.000000,0.917012 0.000000,0.942492 0.026542,0.943554 0.028754,0.915950 0.028754,0.943642 0.055296,0.944704 0.028754,0.945766 0.028754,0.973458 0.026542,0.945854 0.000000,0.946916 0.000000,0.972396 0.026542,0.973458 0.000000,0.974520 0.000000,1.000000 0.025480,1.000000 0.026542,0.973458 0.027604,1.000000 0.053084,1.000000 0.054146,0.973458 0.026542,0.971246 0.054234,0.971246 0.055296,0.944704 0.056358,0.971246 0.084050,0.971246 0.056446,0.973458 0.057508,1.000000 0.082988,1.000000 0.084050,0.973458 0.085112,1.000000 0.110592,1.000000 0.111654,0.973458 0.084050,0.971246 0.111742,0.971246 0.112804,0.944704 0.085200,0.942492 0.081746,0.971154 0.082900,0.942308 0.055296,0.940096 0.082988,0.940096 0.084142,0.911250 0.085296,0.940096 0.112988,0.940096 0.114050,0.913554 0.086446,0.911342 0.114138,0.911342 0.115200,0.884800 0.116262,0.911342 0.143954,0.911342 0.116350,0.913554 0.117412,0.940096 0.145104,0.940096 0.146258,0.911250 0.147412,0.940096 0.175104,0.940096 0.147500,0.942308 0.148654,0.971154 0.145200,0.942492 0.117596,0.944704 0.118658,0.971246 0.146350,0.971246 0.118746,0.973458 0.119808,1.000000 0.145288,1.000000 0.146350,0.973458 0.147412,1.000000 0.172892,1.000000 0.173954,0.973458 0.146350,0.971246 0.174042,0.971246 0.175104,0.944704 0.176166,0.971246 0.203858,0.971246 0.176254,0.973458 0.177316,1.000000 0.202796,1.000000 0.203858,0.973458 0.204920,1.000000 0.230400,1.000000 0.231462,0.973458 0.203858,0.971246 0.231550,0.971246 0.232612,0.944704 0.205008,0.942492 0.201554,0.971154 0.202708,0.942308 0.175104,0.940096 0.202796,0.940096 0.203950,0.911250 0.205104,0.940096 0.232796,0.940096 0.233858,0.913554 0.206254,0.911342 0.233946,0.911342 0.235008,0.884800 0.207404,0.882588 0.203950,0.911250 0.205104,0.882404 0.177500,0.880192 0.174046,0.908854 0.203758,0.913646 0.173758,0.911242 0.170304,0.939904 0.171458,0.911058 0.141458,0.908654 0.171554,0.908654 0.172708,0.879808 0.145104,0.877596 0.141650,0.906258 0.142804,0.877412 0.115200,0.875200 0.142892,0.875200 0.144046,0.846354 0.145200,0.875200 0.172892,0.875200 0.174046,0.846354 0.144046,0.843950 0.174142,0.843950 0.175296,0.815104 0.176450,0.843950 0.206546,0.843950 0.176546,0.846354 0.177700,0.875200 0.205392,0.875200 0.206546,0.846354 0.207700,0.875200 0.235392,0.875200 0.236454,0.848658 0.208850,0.846446 0.236542,0.846446 0.237604,0.819904 0.210000,0.817692 0.206546,0.846354 0.207700,0.817508 0.180096,0.815296 0.207788,0.815296 0.208942,0.786450 0.210096,0.815296 0.237788,0.815296 0.238850,0.788754 0.211246,0.786542 0.238938,0.786542 0.240000,0.760000 0.241062,0.786542 0.268754,0.786542 0.241150,0.788754 0.242212,0.815296 0.269904,0.815296 0.271058,0.786450 0.272212,0.815296 0.299904,0.815296 0.272300,0.817508 0.273454,0.846354 0.270000,0.817692 0.242396,0.819904 0.243458,0.846446 0.271150,0.846446 0.243546,0.848658 0.244608,0.875200 0.272300,0.875200 0.273454,0.846354 0.274608,0.875200 0.302300,0.875200 0.303454,0.846354 0.273454,0.843950 0.303550,0.843950 0.304704,0.815104 0.305858,0.843950 0.335954,0.843950 0.305954,0.846354 0.307108,0.875200 0.334800,0.875200 0.335954,0.846354 0.337108,0.875200 0.364800,0.875200 0.337196,0.877412 0.338350,0.906258 0.334896,0.877596 0.307292,0.879808 0.308446,0.908654 0.338542,0.908654 0.308542,0.911058 0.309696,0.939904 0.306242,0.911242 0.276242,0.913646 0.305954,0.908854 0.302500,0.880192 0.274896,0.882404 0.276050,0.911250 0.272596,0.882588 0.244992,0.884800 0.246054,0.911342 0.273746,0.911342 0.246142,0.913554 0.247204,0.940096 0.274896,0.940096 0.276050,0.911250 0.277204,0.940096 0.304896,0.940096 0.277292,0.942308 0.278446,0.971154 0.274992,0.942492 0.247388,0.944704 0.248450,0.971246 0.276142,0.971246 0.248538,0.973458 0.249600,1.000000 0.275080,1.000000 0.276142,0.973458 0.277204,1.000000 0.302684,1.000000 0.303746,0.973458 0.276142,0.971246 0.303834,0.971246 0.304896,0.944704 0.305958,0.971246 0.333650,0.971246 0.306046,0.973458 0.307108,1.000000 0.332588,1.000000 0.333650,0.973458 0.334712,1.000000 0.360192,1.000000 0.361254,0.973458 0.333650,0.971246 0.361342,0.971246 0.362404,0.944704 0.334800,0.942492 0.331346,0.971154 0.332500,0.942308 0.304896,0.940096 0.332588,0.940096 0.333742,0.911250 0.334896,0.940096 0.362588,0.940096 0.363650,0.913554 0.336046,0.911342 0.363738,0.911342 0.364800,0.884800 0.365862,0.911342 0.393554,0.911342 0.365950,0.913554 0.367012,0.940096 0.394704,0.940096 0.395858,0.911250 0.397012,0.940096 0.424704,0.940096 0.397100,0.942308 0.398254,0.971154 0.394800,0.942492 0.367196,0.944704 0.368258,0.971246 0.395950,0.971246 0.368346,0.973458 0.369408,1.000000 0.394888,1.000000 0.395950,0.973458 0.397012,1.000000 0.422492,1.000000 0.423554,0.973458 0.395950,0.971246 0.423642,0.971246 0.424704,0.944704 0.425766,0.971246 0.453458,0.971246 0.425854,0.973458 0.426916,1.000000 0.452396,1.000000 0.453458,0.973458 0.454520,1.000000 0.480000,1.000000 0.481062,0.973458 0.453458,0.971246 0.481150,0.971246 0.482212,0.944704 0.454608,0.942492 0.451154,0.971154 0.452308,0.942308 0.424704,0.940096 0.452396,0.940096 0.453550,0.911250 0.454704,0.940096 0.482396,0.940096 0.483458,0.913554 0.455854,0.911342 0.483546,0.911342 0.484608,0.884800 0.457004,0.882588 0.453550,0.911250 0.454704,0.882404 0.427100,0.880192 0.423646,0.908854 0.453358,0.913646 0.423358,0.911242 0.419904,0.939904 0.421058,0.911058 0.391058,0.908654 0.421154,0.908654 0.422308,0.879808 0.394704,0.877596 0.391250,0.906258 0.392404,0.877412 0.364800,0.875200 0.392492,0.875200 0.393646,0.846354 0.394800,0.875200 0.422492,0.875200 0.423646,0.846354 0.393646,0.843950 0.423742,0.843950 0.424896,0.815104 0.426050,0.843950 0.456146,0.843950 0.426146,0.846354 0.427300,0.875200 0.454992,0.875200 0.456146,0.846354 0.457300,0.875200 0.484992,0.875200 0.486054,0.848658 0.458450,0.846446 0.486142,0.846446 0.487204,0.819904 0.459600,0.817692 0.456146,0.846354 0.457300,0.817508 0.429696,0.815296 0.457388,0.815296 0.458542,0.786450 0.459696,0.815296 0.487388,0.815296 0.488450,0.788754 0.460846,0.786542 0.488538,0.786542 0.489600,0.760000 0.461996,0.757788 0.458542,0.786450 0.459696,0.757604 0.432092,0.755392 0.428638,0.784054 0.458350,0.788846 0.428350,0.786442 0.424896,0.815104 0.426050,0.786258 0.396050,0.783854 0.426146,0.783854 0.427300,0.755008 0.399696,0.752796 0.396242,0.781458 0.397396,0.752612 0.369792,0.750400 0.366338,0.779062 0.396050,0.783854 0.366050,0.781450 0.362596,0.810112 0.392308,0.814904 0.398538,0.784154 0.394784,0.815304 0.424496,0.820096 0.394496,0.817692 0.390742,0.848842 0.391996,0.817492 0.361996,0.815088 0.358542,0.843750 0.388254,0.848542 0.358254,0.846138 0.354800,0.874800 0.355954,0.845954 0.325954,0.843550 0.356050,0.843550 0.357204,0.814704 0.327204,0.812300 0.323450,0.843450 0.324704,0.812100 0.294704,0.809696 0.324800,0.809696 0.326054,0.778346 0.327308,0.809696 0.357404,0.809696 0.358558,0.780850 0.328558,0.778446 0.358654,0.778446 0.359808,0.749600 0.332204,0.747388 0.328750,0.776050 0.329904,0.747204 0.302300,0.744992 0.298846,0.773654 0.328558,0.778446 0.298558,0.776042 0.295104,0.804704 0.296258,0.775858 0.266258,0.773454 0.296354,0.773454 0.297508,0.744608 0.269904,0.742396 0.266450,0.771058 0.267604,0.742212 0.240000,0.740000 0.267692,0.740000 0.268846,0.711154 0.270000,0.740000 0.297692,0.740000 0.298846,0.711154 0.268846,0.708750 0.298942,0.708750 0.300096,0.679904 0.301250,0.708750 0.331346,0.708750 0.301346,0.711154 0.302500,0.740000 0.330192,0.740000 0.331346,0.711154 0.332500,0.740000 0.360192,0.740000 0.361346,0.711154 0.331346,0.708750 0.361442,0.708750 0.362596,0.679904 0.332596,0.677500 0.328842,0.708650 0.330096,0.677300 0.300096,0.674896 0.330192,0.674896 0.331446,0.643546 0.332700,0.674896 0.362796,0.674896 0.363950,0.646050 0.333950,0.643646 0.364046,0.643646 0.365200,0.614800 0.366354,0.643646 0.396450,0.643646 0.366450,0.646050 0.367604,0.674896 0.397700,0.674896 0.398954,0.643546 0.400208,0.674896 0.430304,0.674896 0.400304,0.677300 0.401558,0.708650 0.397804,0.677500 0.367804,0.679904 0.368958,0.708750 0.399054,0.708750 0.369054,0.711154 0.370208,0.740000 0.397900,0.740000 0.399054,0.711154 0.400208,0.740000 0.427900,0.740000 0.429054,0.711154 0.399054,0.708750 0.429150,0.708750 0.430304,0.679904 0.431458,0.708750 0.461554,0.708750 0.431554,0.711154 0.432708,0.740000 0.460400,0.740000 0.461554,0.711154 0.462708,0.740000 0.490400,0.740000 0.491462,0.713458 0.463858,0.711246 0.491550,0.711246 0.492612,0.684704 0.465008,0.682492 0.461554,0.711154 0.462708,0.682308 0.435104,0.680096 0.462796,0.680096 0.463950,0.651250 0.465104,0.680096 0.492796,0.680096 0.493858,0.653554 0.466254,0.651342 0.493946,0.651342 0.495008,0.624800 0.467404,0.622588 0.463950,0.651250 0.465104,0.622404 0.437500,0.620192 0.434046,0.648854 0.463758,0.653646 0.433758,0.651242 0.430304,0.679904 0.431458,0.651058 0.401458,0.648654 0.431554,0.648654 0.432708,0.619808 0.405104,0.617596 0.401650,0.646258 0.402804,0.617412 0.375200,0.615200 0.402892,0.615200 0.404046,0.586354 0.405200,0.615200 0.432892,0.615200 0.434046,0.586354 0.404046,0.583950 0.434142,0.583950 0.435296,0.555104 0.436450,0.583950 0.466546,0.583950 0.436546,0.586354 0.437700,0.615200 0.465392,0.615200 0.466546,0.586354 0.467700,0.615200 0.495392,0.615200 0.496454,0.588658 0.468850,0.586446 0.496542,0.586446 0.497604,0.559904 0.470000,0.557692 0.466546,0.586354 0.467700,0.557508 0.440096,0.555296 0.467788,0.555296 0.468942,0.526450 0.470096,0.555296 0.497788,0.555296 0.498850,0.528754 0.471246,0.526542 0.498938,0.526542 0.500000,0.500000 0.501062,0.526542 0.528754,0.526542 0.501150,0.528754 0.502212,0.555296 0.529904,0.555296 0.531058,0.526450 0.532212,0.555296 0.559904,0.555296 0.532300,0.557508 0.533454,0.586354 0.530000,0.557692 0.502396,0.559904 0.503458,0.586446 0.531150,0.586446 0.503546,0.588658 0.504608,0.615200 0.532300,0.615200 0.533454,0.586354 0.534608,0.615200 0.562300,0.615200 0.563454,0.586354 0.533454,0.583950 0.563550,0.583950 0.564704,0.555104 0.565858,0.583950 0.595954,0.583950 0.565954,0.586354 0.567108,0.615200 0.594800,0.615200 0.595954,0.586354 0.597108,0.615200 0.624800,0.615200 0.597196,0.617412 0.598350,0.646258 0.594896,0.617596 0.567292,0.619808 0.568446,0.648654 0.598542,0.648654 0.568542,0.651058 0.569696,0.679904 0.566242,0.651242 0.536242,0.653646 0.565954,0.648854 0.562500,0.620192 0.534896,0.622404 0.536050,0.651250 0.532596,0.622588 0.504992,0.624800 0.506054,0.651342 0.533746,0.651342 0.506142,0.653554 0.507204,0.680096 0.534896,0.680096 0.536050,0.651250 0.537204,0.680096 0.564896,0.680096 0.537292,0.682308 0.538446,0.711154 0.534992,0.682492 0.507388,0.684704 0.508450,0.711246 0.536142,0.711246 0.508538,0.713458 0.509600,0.740000 0.537292,0.740000 0.538446,0.711154 0.539600,0.740000 0.567292,0.740000 0.568446,0.711154 0.538446,0.708750 0.568542,0.708750 0.569696,0.679904 0.570850,0.708750 0.600946,0.708750 0.570946,0.711154 0.572100,0.740000 0.599792,0.740000 0.600946,0.711154 0.602100,0.740000 0.629792,0.740000 0.630946,0.711154 0.600946,0.708750 0.631042,0.708750 0.632196,0.679904 0.602196,0.677500 0.598442,0.708650 0.599696,0.677300 0.569696,0.674896 0.599792,0.674896 0.601046,0.643546 0.602300,0.674896 0.632396,0.674896 0.633550,0.646050 0.603550,0.643646 0.633646,0.643646 0.634800,0.614800 0.635954,0.643646 0.666050,0.643646 0.636050,0.646050 0.637204,0.674896 0.667300,0.674896 0.668554,0.643546 0.669808,0.674896 0.699904,0.674896 0.669904,0.677300 0.671158,0.708650 0.667404,0.677500 0.637404,0.679904 0.638558,0.708750 0.668654,0.708750 0.638654,0.711154 0.639808,0.740000 0.667500,0.740000 0.668654,0.711154 0.669808,0.740000 0.697500,0.740000 0.698654,0.711154 0.668654,0.708750 0.698750,0.708750 0.699904,0.679904 0.701058,0.708750 0.731154,0.708750 0.701154,0.711154 0.702308,0.740000 0.730000,0.740000 0.731154,0.711154 0.732308,0.740000 0.760000,0.740000 0.732396,0.742212 0.733550,0.771058 0.730096,0.742396 0.702492,0.744608 0.703646,0.773454 0.733742,0.773454 0.703742,0.775858 0.704896,0.804704 0.701442,0.776042 0.671442,0.778446 0.701154,0.773654 0.697700,0.744992 0.670096,0.747204 0.671250,0.776050 0.667796,0.747388 0.640192,0.749600 0.641346,0.778446 0.671442,0.778446 0.641442,0.780850 0.642596,0.809696 0.672692,0.809696 0.673946,0.778346 0.675200,0.809696 0.705296,0.809696 0.675296,0.812100 0.676550,0.843450 0.672796,0.812300 0.642796,0.814704 0.643950,0.843550 0.674046,0.843550 0.644046,0.845954 0.645200,0.874800 0.641746,0.846138 0.611746,0.848542 0.641458,0.843750 0.638004,0.815088 0.608004,0.817492 0.609258,0.848842 0.605504,0.817692 0.575504,0.820096 0.605216,0.815304 0.601462,0.784154 0.607692,0.814904 0.637404,0.810112 0.633950,0.781450 0.603950,0.783854 0.633662,0.779062 0.630208,0.750400 0.602604,0.752612 0.603758,0.781458 0.600304,0.752796 0.572700,0.755008 0.573854,0.783854 0.603950,0.783854 0.573950,0.786258 0.575104,0.815104 0.571650,0.786442 0.541650,0.788846 0.571362,0.784054 0.567908,0.755392 0.540304,0.757604 0.541458,0.786450 0.538004,0.757788 0.510400,0.760000 0.511462,0.786542 0.539154,0.786542 0.511550,0.788754 0.512612,0.815296 0.540304,0.815296 0.541458,0.786450 0.542612,0.815296 0.570304,0.815296 0.542700,0.817508 0.543854,0.846354 0.540400,0.817692 0.512796,0.819904 0.513858,0.846446 0.541550,0.846446 0.513946,0.848658 0.515008,0.875200 0.542700,0.875200 0.543854,0.846354 0.545008,0.875200 0.572700,0.875200 0.573854,0.846354 0.543854,0.843950 0.573950,0.843950 0.575104,0.815104 0.576258,0.843950 0.606354,0.843950 0.576354,0.846354 0.577508,0.875200 0.605200,0.875200 0.606354,0.846354 0.607508,0.875200 0.635200,0.875200 0.607596,0.877412 0.608750,0.906258 0.605296,0.877596 0.577692,0.879808 0.578846,0.908654 0.608942,0.908654 0.578942,0.911058 0.580096,0.939904 0.576642,0.911242 0.546642,0.913646 0.576354,0.908854 0.572900,0.880192 0.545296,0.882404 0.546450,0.911250 0.542996,0.882588 0.515392,0.884800 0.516454,0.911342 0.544146,0.911342 0.516542,0.913554 0.517604,0.940096 0.545296,0.940096 0.546450,0.911250 0.547604,0.940096 0.575296,0.940096 0.547692,0.942308 0.548846,0.971154 0.545392,0.942492 0.517788,0.944704 0.518850,0.971246 0.546542,0.971246 0.518938,0.973458 0.520000,1.000000 0.545480,1.000000 0.546542,0.973458 0.547604,1.000000 0.573084,1.000000 0.574146,0.973458 0.546542,0.971246 0.574234,0.971246 0.575296,0.944704 0.576358,0.971246 0.604050,0.971246 0.576446,0.973458 0.577508,1.000000 0.602988,1.000000 0.604050,0.973458 0.605112,1.000000 0.630592,1.000000 0.631654,0.973458 0.604050,0.971246 0.631742,0.971246 0.632804,0.944704 0.605200,0.942492 0.601746,0.971154 0.602900,0.942308 0.575296,0.940096 0.602988,0.940096 0.604142,0.911250 0.605296,0.940096 0.632988,0.940096 0.634050,0.913554 0.606446,0.911342 0.634138,0.911342 0.635200,0.884800 0.636262,0.911342 0.663954,0.911342 0.636350,0.913554 0.637412,0.940096 0.665104,0.940096 0.666258,0.911250 0.667412,0.940096 0.695104,0.940096 0.667500,0.942308 0.668654,0.971154 0.665200,0.942492 0.637596,0.944704 0.638658,0.971246 0.666350,0.971246 0.638746,0.973458 0.639808,1.000000 0.665288,1.000000 0.666350,0.973458 0.667412,1.000000 0.692892,1.000000 0.693954,0.973458 0.666350,0.971246 0.694042,0.971246 0.695104,0.944704 0.696166,0.971246 0.723858,0.971246 0.696254,0.973458 0.697316,1.000000 0.722796,1.000000 0.723858,0.973458 0.724920,1.000000 0.750400,1.000000 0.751462,0.973458 0.723858,0.971246 0.751550,0.971246 0.752612,0.944704 0.725008,0.942492 0.721554,0.971154 0.722708,0.942308 0.695104,0.940096 0.722796,0.940096 0.723950,0.911250 0.725104,0.940096 0.752796,0.940096 0.753858,0.913554 0.726254,0.911342 0.753946,0.911342 0.755008,0.884800 0.727404,0.882588 0.723950,0.911250 0.725104,0.882404 0.697500,0.880192 0.694046,0.908854 0.723758,0.913646 0.693758,0.911242 0.690304,0.939904 0.691458,0.911058 0.661458,0.908654 0.691554,0.908654 0.692708,0.879808 0.665104,0.877596 0.661650,0.906258 0.662804,0.877412 0.635200,0.875200 0.662892,0.875200 0.664046,0.846354 0.665200,0.875200 0.692892,0.875200 0.694046,0.846354 0.664046,0.843950 0.694142,0.843950 0.695296,0.815104 0.696450,0.843950 0.726546,0.843950 0.696546,0.846354 0.697700,0.875200 0.725392,0.875200 0.726546,0.846354 0.727700,0.875200 0.755392,0.875200 0.756454,0.848658 0.728850,0.846446 0.756542,0.846446 0.757604,0.819904 0.730000,0.817692 0.726546,0.846354 0.727700,0.817508 0.700096,0.815296 0.727788,0.815296 0.728942,0.786450 0.730096,0.815296 0.757788,0.815296 0.758850,0.788754 0.731246,0.786542 0.758938,0.786542 0.760000,0.760000 0.761062,0.786542 0.788754,0.786542 0.761150,0.788754 0.762212,0.815296 0.789904,0.815296 0.791058,0.786450 0.792212,0.815296 0.819904,0.815296 0.792300,0.817508 0.793454,0.846354 0.790000,0.817692 0.762396,0.819904 0.763458,0.846446 0.791150,0.846446 0.763546,0.848658 0.764608,0.875200 0.792300,0.875200 0.793454,0.846354 0.794608,0.875200 0.822300,0.875200 0.823454,0.846354 0.793454,0.843950 0.823550,0.843950 0.824704,0.815104 0.825858,0.843950 0.855954,0.843950 0.825954,0.846354 0.827108,0.875200 0.854800,0.875200 0.855954,0.846354 0.857108,0.875200 0.884800,0.875200 0.857196,0.877412 0.858350,0.906258 0.854896,0.877596 0.827292,0.879808 0.828446,0.908654 0.858542,0.908654 0.828542,0.911058 0.829696,0.939904 0.826242,0.911242 0.796242,0.913646 0.825954,0.908854 0.822500,0.880192 0.794896,0.882404 0.796050,0.911250 0.792596,0.882588 0.764992,0.884800 0.766054,0.911342 0.793746,0.911342 0.766142,0.913554 0.767204,0.940096 0.794896,0.940096 0.796050,0.911250 0.797204,0.940096 0.824896,0.940096 0.797292,0.942308 0.798446,0.971154 0.794992,0.942492 0.767388,0.944704 0.768450,0.971246 0.796142,0.971246 0.768538,0.973458 0.769600,1.000000 0.795080,1.000000 0.796142,0.973458 0.797204,1.000000 0.822684,1.000000 0.823746,0.973458 0.796142,0.971246 0.823834,0.971246 0.824896,0.944704 0.825958,0.971246 0.853650,0.971246 0.826046,0.973458 0.827108,1.000000 0.852588,1.000000 0.853650,0.973458 0.854712,1.000000 0.880192,1.000000 0.881254,0.973458 0.853650,0.971246 0.881342,0.971246 0.882404,0.944704 0.854800,0.942492 0.851346,0.971154 0.852500,0.942308 0.824896,0.940096 0.852588,0.940096 0.853742,0.911250 0.854896,0.940096 0.882588,0.940096 0.883650,0.913554 0.856046,0.911342 0.883738,0.911342 0.884800,0.884800 0.885862,0.911342 0.913554,0.911342 0.885950,0.913554 0.887012,0.940096 0.914704,0.940096 0.915858,0.911250 0.917012,0.940096 0.944704,0.940096 0.917100,0.942308 0.918254,0.971154 0.914800,0.942492 0.887196,0.944704 0.888258,0.971246 0.915950,0.971246 0.888346,0.973458 0.889408,1.000000 0.914888,1.000000 0.915950,0.973458 0.917012,1.000000 0.942492,1.000000 0.943554,0.973458 0.915950,0.971246 0.943642,0.971246 0.944704,0.944704 0.945766,0.971246 0.973458,0.971246 0.945854,0.973458 0.946916,1.000000 0.972396,1.000000 0.973458,0.973458 0.974520,1.000000 1.000000,1.000000 1.000000,0.974520 0.973458,0.973458 1.000000,0.972396 1.000000,0.946916 0.973458,0.945854 0.971246,0.973458 0.971246,0.945766 0.944704,0.944704 0.971246,0.943642 0.971246,0.915950 0.973458,0.943554 1.000000,0.942492 1.000000,0.917012 0.973458,0.915950 1.000000,0.914888 1.000000,0.889408 0.973458,0.888346 0.971246,0.915950 0.971246,0.888258 0.944704,0.887196 0.942492,0.914800 0.971154,0.918254 0.942308,0.917100 0.940096,0.944704 0.940096,0.917012 0.911250,0.915858 0.940096,0.914704 0.940096,0.887012 0.913554,0.885950 0.911342,0.913554 0.911342,0.885862 0.884800,0.884800 0.911342,0.883738 0.911342,0.856046 0.913554,0.883650 0.940096,0.882588 0.940096,0.854896 0.911250,0.853742 0.940096,0.852588 0.940096,0.824896 0.942308,0.852500 0.971154,0.851346 0.942492,0.854800 0.944704,0.882404 0.971246,0.881342 0.971246,0.853650 0.973458,0.881254 1.000000,0.880192 1.000000,0.854712 0.973458,0.853650 1.000000,0.852588 1.000000,0.827108 0.973458,0.826046 0.971246,0.853650 0.971246,0.825958 0.944704,0.824896 0.971246,0.823834 0.971246,0.796142 0.973458,0.823746 1.000000,0.822684 1.000000,0.797204 0.973458,0.796142 1.000000,0.795080 1.000000,0.769600 0.973458,0.768538 0.971246,0.796142 0.971246,0.768450 0.944704,0.767388 0.942492,0.794992 0.971154,0.798446 0.942308,0.797292 0.940096,0.824896 0.940096,0.797204 0.911250,0.796050 0.940096,0.794896 0.940096,0.767204 0.913554,0.766142 0.911342,0.793746 0.911342,0.766054 0.884800,0.764992 0.882588,0.792596 0.911250,0.796050 0.882404,0.794896 0.880192,0.822500 0.908854,0.825954 0.913646,0.796242 0.911242,0.826242 0.939904,0.829696 0.911058,0.828542 0.908654,0.858542 0.908654,0.828446 0.879808,0.827292 0.877596,0.854896 0.906258,0.858350 0.877412,0.857196 0.875200,0.884800 0.875200,0.857108 0.846354,0.855954 0.875200,0.854800 0.875200,0.827108 0.846354,0.825954 0.843950,0.855954 0.843950,0.825858 0.815104,0.824704 0.843950,0.823550 0.843950,0.793454 0.846354,0.823454 0.875200,0.822300 0.875200,0.794608 0.846354,0.793454 0.875200,0.792300 0.875200,0.764608 0.848658,0.763546 0.846446,0.791150 0.846446,0.763458 0.819904,0.762396 0.817692,0.790000 0.846354,0.793454 0.817508,0.792300 0.815296,0.819904 0.815296,0.792212 0.786450,0.791058 0.815296,0.789904 0.815296,0.762212 0.788754,0.761150 0.786542,0.788754 0.786542,0.761062 0.760000,0.760000 0.786542,0.758938 0.786542,0.731246 0.788754,0.758850 0.815296,0.757788 0.815296,0.730096 0.786450,0.728942 0.815296,0.727788 0.815296,0.700096 0.817508,0.727700 0.846354,0.726546 0.817692,0.730000 0.819904,0.757604 0.846446,0.756542 0.846446,0.728850 0.848658,0.756454 0.875200,0.755392 0.875200,0.727700 0.846354,0.726546 0.875200,0.725392 0.875200,0.697700 0.846354,0.696546 0.843950,0.726546 0.843950,0.696450 0.815104,0.695296 0.843950,0.694142 0.843950,0.664046 0.846354,0.694046 0.875200,0.692892 0.875200,0.665200 0.846354,0.664046 0.875200,0.662892 0.875200,0.635200 0.877412,0.662804 0.906258,0.661650 0.877596,0.665104 0.879808,0.692708 0.908654,0.691554 0.908654,0.661458 0.911058,0.691458 0.939904,0.690304 0.911242,0.693758 0.913646,0.723758 0.908854,0.694046 0.880192,0.697500 0.882404,0.725104 0.911250,0.723950 0.882588,0.727404 0.884800,0.755008 0.911342,0.753946 0.911342,0.726254 0.913554,0.753858 0.940096,0.752796 0.940096,0.725104 0.911250,0.723950 0.940096,0.722796 0.940096,0.695104 0.942308,0.722708 0.971154,0.721554 0.942492,0.725008 0.944704,0.752612 0.971246,0.751550 0.971246,0.723858 0.973458,0.751462 1.000000,0.750400 1.000000,0.724920 0.973458,0.723858 1.000000,0.722796 1.000000,0.697316 0.973458,0.696254 0.971246,0.723858 0.971246,0.696166 0.944704,0.695104 0.971246,0.694042 0.971246,0.666350 0.973458,0.693954 1.000000,0.692892 1.000000,0.667412 0.973458,0.666350 1.000000,0.665288 1.000000,0.639808 0.973458,0.638746 0.971246,0.666350 0.971246,0.638658 0.944704,0.637596 0.942492,0.665200 0.971154,0.668654 0.942308,0.667500 0.940096,0.695104 0.940096,0.667412 0.911250,0.666258 0.940096,0.665104 0.940096,0.637412 0.913554,0.636350 0.911342,0.663954 0.911342,0.636262 0.884800,0.635200 0.911342,0.634138 0.911342,0.606446 0.913554,0.634050 0.940096,0.632988 0.940096,0.605296 0.911250,0.604142 0.940096,0.602988 0.940096,0.575296 0.942308,0.602900 0.971154,0.601746 0.942492,0.605200 0.944704,0.632804 0.971246,0.631742 0.971246,0.604050 0.973458,0.631654 1.000000,0.630592 1.000000,0.605112 0.973458,0.604050 1.000000,0.602988 1.000000,0.577508 0.973458,0.576446 0.971246,0.604050 0.971246,0.576358 0.944704,0.575296 0.971246,0.574234 0.971246,0.546542 0.973458,0.574146 1.000000,0.573084 1.000000,0.547604 0.973458,0.546542 1.000000,0.545480 1.000000,0.520000 0.973458,0.518938 0.971246,0.546542 0.971246,0.518850 0.944704,0.517788 0.942492,0.545392 0.971154,0.548846 0.942308,0.547692 0.940096,0.575296 0.940096,0.547604 0.911250,0.546450 0.940096,0.545296 0.940096,0.517604 0.913554,0.516542 0.911342,0.544146 0.911342,0.516454 0.884800,0.515392 0.882588,0.542996 0.911250,0.546450 0.882404,0.545296 0.880192,0.572900 0.908854,0.576354 0.913646,0.546642 0.911242,0.576642 0.939904,0.580096 0.911058,0.578942 0.908654,0.608942 0.908654,0.578846 0.879808,0.577692 0.877596,0.605296 0.906258,0.608750 0.877412,0.607596 0.875200,0.635200 0.875200,0.607508 0.846354,0.606354 0.875200,0.605200 0.875200,0.577508 0.846354,0.576354 0.843950,0.606354 0.843950,0.576258 0.815104,0.575104 0.843950,0.573950 0.843950,0.543854 0.846354,0.573854 0.875200,0.572700 0.875200,0.545008 0.846354,0.543854 0.875200,0.542700 0.875200,0.515008 0.848658,0.513946 0.846446,0.541550 0.846446,0.513858 0.819904,0.512796 0.817692,0.540400 0.846354,0.543854 0.817508,0.542700 0.815296,0.570304 0.815296,0.542612 0.786450,0.541458 0.815296,0.540304 0.815296,0.512612 0.788754,0.511550 0.786542,0.539154 0.786542,0.511462 0.760000,0.510400 0.757788,0.538004 0.786450,0.541458 0.757604,0.540304 0.755392,0.567908 0.784054,0.571362 0.788846,0.541650 0.786442,0.571650 0.815104,0.575104 0.786258,0.573950 0.783854,0.603950 0.783854,0.573854 0.755008,0.572700 0.752796,0.600304 0.781458,0.603758 0.752612,0.602604 0.750400,0.630208 0.779062,0.633662 0.783854,0.603950 0.781450,0.633950 0.810112,0.637404 0.814904,0.607692 0.784154,0.601462 0.815304,0.605216 0.820096,0.575504 0.817692,0.605504 0.848842,0.609258 0.817492,0.608004 0.815088,0.638004 0.843750,0.641458 0.848542,0.611746 0.846138,0.641746 0.874800,0.645200 0.845954,0.644046 0.843550,0.674046 0.843550,0.643950 0.814704,0.642796 0.812300,0.672796 0.843450,0.676550 0.812100,0.675296 0.809696,0.705296 0.809696,0.675200 0.778346,0.673946 0.809696,0.672692 0.809696,0.642596 0.780850,0.641442 0.778446,0.671442 0.778446,0.641346 0.749600,0.640192 0.747388,0.667796 0.776050,0.671250 0.747204,0.670096 0.744992,0.697700 0.773654,0.701154 0.778446,0.671442 0.776042,0.701442 0.804704,0.704896 0.775858,0.703742 0.773454,0.733742 0.773454,0.703646 0.744608,0.702492 0.742396,0.730096 0.771058,0.733550 0.742212,0.732396 0.740000,0.760000 0.740000,0.732308 0.711154,0.731154 0.740000,0.730000 0.740000,0.702308 0.711154,0.701154 0.708750,0.731154 0.708750,0.701058 0.679904,0.699904 0.708750,0.698750 0.708750,0.668654 0.711154,0.698654 0.740000,0.697500 0.740000,0.669808 0.711154,0.668654 0.740000,0.667500 0.740000,0.639808 0.711154,0.638654 0.708750,0.668654 0.708750,0.638558 0.679904,0.637404 0.677500,0.667404 0.708650,0.671158 0.677300,0.669904 0.674896,0.699904 0.674896,0.669808 0.643546,0.668554 0.674896,0.667300 0.674896,0.637204 0.646050,0.636050 0.643646,0.666050 0.643646,0.635954 0.614800,0.634800 0.643646,0.633646 0.643646,0.603550 0.646050,0.633550 0.674896,0.632396 0.674896,0.602300 0.643546,0.601046 0.674896,0.599792 0.674896,0.569696 0.677300,0.599696 0.708650,0.598442 0.677500,0.602196 0.679904,0.632196 0.708750,0.631042 0.708750,0.600946 0.711154,0.630946 0.740000,0.629792 0.740000,0.602100 0.711154,0.600946 0.740000,0.599792 0.740000,0.572100 0.711154,0.570946 0.708750,0.600946 0.708750,0.570850 0.679904,0.569696 0.708750,0.568542 0.708750,0.538446 0.711154,0.568446 0.740000,0.567292 0.740000,0.539600 0.711154,0.538446 0.740000,0.537292 0.740000,0.509600 0.713458,0.508538 0.711246,0.536142 0.711246,0.508450 0.684704,0.507388 0.682492,0.534992 0.711154,0.538446 0.682308,0.537292 0.680096,0.564896 0.680096,0.537204 0.651250,0.536050 0.680096,0.534896 0.680096,0.507204 0.653554,0.506142 0.651342,0.533746 0.651342,0.506054 0.624800,0.504992 0.622588,0.532596 0.651250,0.536050 0.622404,0.534896 0.620192,0.562500 0.648854,0.565954 0.653646,0.536242 0.651242,0.566242 0.679904,0.569696 0.651058,0.568542 0.648654,0.598542 0.648654,0.568446 0.619808,0.567292 0.617596,0.594896 0.646258,0.598350 0.617412,0.597196 0.615200,0.624800 0.615200,0.597108 0.586354,0.595954 0.615200,0.594800 0.615200,0.567108 0.586354,0.565954 0.583950,0.595954 0.583950,0.565858 0.555104,0.564704 0.583950,0.563550 0.583950,0.533454 0.586354,0.563454 0.615200,0.562300 0.615200,0.534608 0.586354,0.533454 0.615200,0.532300 0.615200,0.504608 0.588658,0.503546 0.586446,0.531150 0.586446,0.503458 0.559904,0.502396 0.557692,0.530000 0.586354,0.533454 0.557508,0.532300 0.555296,0.559904 0.555296,0.532212 0.526450,0.531058 0.555296,0.529904 0.555296,0.502212 0.528754,0.501150 0.526542,0.528754 0.526542,0.501062 0.500000,0.500000 0.526542,0.498938 0.526542,0.471246 0.528754,0.498850 0.555296,0.497788 0.555296,0.470096 0.526450,0.468942 0.555296,0.467788 0.555296,0.440096 0.557508,0.467700 0.586354,0.466546 0.557692,0.470000 0.559904,0.497604 0.586446,0.496542 0.586446,0.468850 0.588658,0.496454 0.615200,0.495392 0.615200,0.467700 0.586354,0.466546 0.615200,0.465392 0.615200,0.437700 0.586354,0.436546 0.583950,0.466546 0.583950,0.436450 0.555104,0.435296 0.583950,0.434142 0.583950,0.404046 0.586354,0.434046 0.615200,0.432892 0.615200,0.405200 0.586354,0.404046 0.615200,0.402892 0.615200,0.375200 0.617412,0.402804 0.646258,0.401650 0.617596,0.405104 0.619808,0.432708 0.648654,0.431554 0.648654,0.401458 0.651058,0.431458 0.679904,0.430304 0.651242,0.433758 0.653646,0.463758 0.648854,0.434046 0.620192,0.437500 0.622404,0.465104 0.651250,0.463950 0.622588,0.467404 0.624800,0.495008 0.651342,0.493946 0.651342,0.466254 0.653554,0.493858 0.680096,0.492796 0.680096,0.465104 0.651250,0.463950 0.680096,0.462796 0.680096,0.435104 0.682308,0.462708 0.711154,0.461554 0.682492,0.465008 0.684704,0.492612 0.711246,0.491550 0.711246,0.463858 0.713458,0.491462 0.740000,0.490400 0.740000,0.462708 0.711154,0.461554 0.740000,0.460400 0.740000,0.432708 0.711154,0.431554 0.708750,0.461554 0.708750,0.431458 0.679904,0.430304 0.708750,0.429150 0.708750,0.399054 0.711154,0.429054 0.740000,0.427900 0.740000,0.400208 0.711154,0.399054 0.740000,0.397900 0.740000,0.370208 0.711154,0.369054 0.708750,0.399054 0.708750,0.368958 0.679904,0.367804 0.677500,0.397804 0.708650,0.401558 0.677300,0.400304 0.674896,0.430304 0.674896,0.400208 0.643546,0.398954 0.674896,0.397700 0.674896,0.367604 0.646050,0.366450 0.643646,0.396450 0.643646,0.366354 0.614800,0.365200 0.643646,0.364046 0.643646,0.333950 0.646050,0.363950 0.674896,0.362796 0.674896,0.332700 0.643546,0.331446 0.674896,0.330192 0.674896,0.300096 0.677300,0.330096 0.708650,0.328842 0.677500,0.332596 0.679904,0.362596 0.708750,0.361442 0.708750,0.331346 0.711154,0.361346 0.740000,0.360192 0.740000,0.332500 0.711154,0.331346 0.740000,0.330192 0.740000,0.302500 0.711154,0.301346 0.708750,0.331346 0.708750,0.301250 0.679904,0.300096 0.708750,0.298942 0.708750,0.268846 0.711154,0.298846 0.740000,0.297692 0.740000,0.270000 0.711154,0.268846 0.740000,0.267692 0.740000,0.240000 0.742212,0.267604 0.771058,0.266450 0.742396,0.269904 0.744608,0.297508 0.773454,0.296354 0.773454,0.266258 0.775858,0.296258 0.804704,0.295104 0.776042,0.298558 0.778446,0.328558 0.773654,0.298846 0.744992,0.302300 0.747204,0.329904 0.776050,0.328750 0.747388,0.332204 0.749600,0.359808 0.778446,0.358654 0.778446,0.328558 0.780850,0.358558 0.809696,0.357404 0.809696,0.327308 0.778346,0.326054 0.809696,0.324800 0.809696,0.294704 0.812100,0.324704 0.843450,0.323450 0.812300,0.327204 0.814704,0.357204 0.843550,0.356050 0.843550,0.325954 0.845954,0.355954 0.874800,0.354800 0.846138,0.358254 0.848542,0.388254 0.843750,0.358542 0.815088,0.361996 0.817492,0.391996 0.848842,0.390742 0.817692,0.394496 0.820096,0.424496 0.815304,0.394784 0.784154,0.398538 0.814904,0.392308 0.810112,0.362596 0.781450,0.366050 0.783854,0.396050 0.779062,0.366338 0.750400,0.369792 0.752612,0.397396 0.781458,0.396242 0.752796,0.399696 0.755008,0.427300 0.783854,0.426146 0.783854,0.396050 0.786258,0.426050 0.815104,0.424896 0.786442,0.428350 0.788846,0.458350 0.784054,0.428638 0.755392,0.432092 0.757604,0.459696 0.786450,0.458542 0.757788,0.461996 0.760000,0.489600 0.786542,0.488538 0.786542,0.460846 0.788754,0.488450 0.815296,0.487388 0.815296,0.459696 0.786450,0.458542 0.815296,0.457388 0.815296,0.429696 0.817508,0.457300 0.846354,0.456146 0.817692,0.459600 0.819904,0.487204 0.846446,0.486142 0.846446,0.458450 0.848658,0.486054 0.875200,0.484992 0.875200,0.457300 0.846354,0.456146 0.875200,0.454992 0.875200,0.427300 0.846354,0.426146 0.843950,0.456146 0.843950,0.426050 0.815104,0.424896 0.843950,0.423742 0.843950,0.393646 0.846354,0.423646 0.875200,0.422492 0.875200,0.394800 0.846354,0.393646 0.875200,0.392492 0.875200,0.364800 0.877412,0.392404 0.906258,0.391250 0.877596,0.394704 0.879808,0.422308 0.908654,0.421154 0.908654,0.391058 0.911058,0.421058 0.939904,0.419904 0.911242,0.423358 0.913646,0.453358 0.908854,0.423646 0.880192,0.427100 0.882404,0.454704 0.911250,0.453550 0.882588,0.457004 0.884800,0.484608 0.911342,0.483546 0.911342,0.455854 0.913554,0.483458 0.940096,0.482396 0.940096,0.454704 0.911250,0.453550 0.940096,0.452396 0.940096,0.424704 0.942308,0.452308 0.971154,0.451154 0.942492,0.454608 0.944704,0.482212 0.971246,0.481150 0.971246,0.453458 0.973458,0.481062 1.000000,0.480000 1.000000,0.454520 0.973458,0.453458 1.000000,0.452396 1.000000,0.426916 0.973458,0.425854 0.971246,0.453458 0.971246,0.425766 0.944704,0.424704 0.971246,0.423642 0.971246,0.395950 0.973458,0.423554 1.000000,0.422492 1.000000,0.397012 0.973458,0.395950 1.000000,0.394888 1.000000,0.369408 0.973458,0.368346 0.971246,0.395950 0.971246,0.368258 0.944704,0.367196 0.942492,0.394800 0.971154,0.398254 0.942308,0.397100 0.940096,0.424704 0.940096,0.397012 0.911250,0.395858 0.940096,0.394704 0.940096,0.367012 0.913554,0.365950 0.911342,0.393554 0.911342,0.365862 0.884800,0.364800 0.911342,0.363738 0.911342,0.336046 0.913554,0.363650 0.940096,0.362588 0.940096,0.334896 0.911250,0.333742 0.940096,0.332588 0.940096,0.304896 0.942308,0.332500 0.971154,0.331346 0.942492,0.334800 0.944704,0.362404 0.971246,0.361342 0.971246,0.333650 0.973458,0.361254 1.000000,0.360192 1.000000,0.334712 0.973458,0.333650 1.000000,0.332588 1.000000,0.307108 0.973458,0.306046 0.971246,0.333650 0.971246,0.305958 0.944704,0.304896 0.971246,0.303834 0.971246,0.276142 0.973458,0.303746 1.000000,0.302684 1.000000,0.277204 0.973458,0.276142 1.000000,0.275080 1.000000,0.249600 0.973458,0.248538 0.971246,0.276142 0.971246,0.248450 0.944704,0.247388 0.942492,0.274992 0.971154,0.278446 0.942308,0.277292 0.940096,0.304896 0.940096,0.277204 0.911250,0.276050 0.940096,0.274896 0.940096,0.247204 0.913554,0.246142 0.911342,0.273746 0.911342,0.246054 0.884800,0.244992 0.882588,0.272596 0.911250,0.276050 0.882404,0.274896 0.880192,0.302500 0.908854,0.305954 0.913646,0.276242 0.911242,0.306242 0.939904,0.309696 0.911058,0.308542 0.908654,0.338542 0.908654,0.308446 0.879808,0.307292 0.877596,0.334896 0.906258,0.338350 0.877412,0.337196 0.875200,0.364800 0.875200,0.337108 0.846354,0.335954 0.875200,0.334800 0.875200,0.307108 0.846354,0.305954 0.843950,0.335954 0.843950,0.305858 0.815104,0.304704 0.843950,0.303550 0.843950,0.273454 0.846354,0.303454 0.875200,0.302300 0.875200,0.274608 0.846354,0.273454 0.875200,0.272300 0.875200,0.244608 0.848658,0.243546 0.846446,0.271150 0.846446,0.243458 0.819904,0.242396 0.817692,0.270000 0.846354,0.273454 0.817508,0.272300 0.815296,0.299904 0.815296,0.272212 0.786450,0.271058 0.815296,0.269904 0.815296,0.242212 0.788754,0.241150 0.786542,0.268754 0.786542,0.241062 0.760000,0.240000 0.786542,0.238938 0.786542,0.211246 0.788754,0.238850 0.815296,0.237788 0.815296,0.210096 0.786450,0.208942 0.815296,0.207788 0.815296,0.180096 0.817508,0.207700 0.846354,0.206546 0.817692,0.210000 0.819904,0.237604 0.846446,0.236542 0.846446,0.208850 0.848658,0.236454 0.875200,0.235392 0.875200,0.207700 0.846354,0.206546 0.875200,0.205392 0.875200,0.177700 0.846354,0.176546 0.843950,0.206546 0.843950,0.176450 0.815104,0.175296 0.843950,0.174142 0.843950,0.144046 0.846354,0.174046 0.875200,0.172892 0.875200,0.145200 0.846354,0.144046 0.875200,0.142892 0.875200,0.115200 0.877412,0.142804 0.906258,0.141650 0.877596,0.145104 0.879808,0.172708 0.908654,0.171554 0.908654,0.141458 0.911058,0.171458 0.939904,0.170304 0.911242,0.173758 0.913646,0.203758 0.908854,0.174046 0.880192,0.177500 0.882404,0.205104 0.911250,0.203950 0.882588,0.207404 0.884800,0.235008 0.911342,0.233946 0.911342,0.206254 0.913554,0.233858 0.940096,0.232796 0.940096,0.205104 0.911250,0.203950 0.940096,0.202796 0.940096,0.175104 0.942308,0.202708 0.971154,0.201554 0.942492,0.205008 0.944704,0.232612 0.971246,0.231550 0.971246,0.203858 0.973458,0.231462 1.000000,0.230400 1.000000,0.204920 0.973458,0.203858 1.000000,0.202796 1.000000,0.177316 0.973458,0.176254 0.971246,0.203858 0.971246,0.176166 0.944704,0.175104 0.971246,0.174042 0.971246,0.146350 0.973458,0.173954 1.000000,0.172892 1.000000,0.147412 0.973458,0.146350 1.000000,0.145288 1.000000,0.119808 0.973458,0.118746 0.971246,0.146350 0.971246,0.118658 0.944704,0.117596 0.942492,0.145200 0.971154,0.148654 0.942308,0.147500 0.940096,0.175104 0.940096,0.147412 0.911250,0.146258 0.940096,0.145104 0.940096,0.117412 0.913554,0.116350 0.911342,0.143954 0.911342,0.116262 0.884800,0.115200 0.911342,0.114138 0.911342,0.086446 0.913554,0.114050 0.940096,0.112988 0.940096,0.085296 0.911250,0.084142 0.940096,0.082988 0.940096,0.055296 0.942308,0.082900 0.971154,0.081746 0.942492,0.085200 0.944704,0.112804 0.971246,0.111742 0.971246,0.084050 0.973458,0.111654 1.000000,0.110592 1.000000,0.085112 0.973458,0.084050 1.000000,0.082988 1.000000,0.057508 0.973458,0.056446 0.971246,0.084050 0.971246,0.056358 0.944704,0.055296 0.971246,0.054234 0.971246,0.026542 0.973458,0.054146 1.000000,0.053084 1.000000,0.027604 0.973458,0.026542 1.000000,0.025480 1.000000,0.000000 0.974520,0.000000 0.973458,0.026542 0.972396,0.000000 0.946916,0.000000 0.945854,0.026542 0.973458,0.028754 0.945766,0.028754 0.944704,0.055296 0.943642,0.028754 0.915950,0.028754 0.943554,0.026542 0.942492,0.000000 0.917012,0.000000 0.915950,0.026542 0.914888,0.000000 0.889408,0.000000 0.888346,0.026542 0.915950,0.028754 0.888258,0.028754 0.887196,0.055296 0.914800,0.057508 0.918254,0.028846 0.917100,0.057692 0.944704,0.059904 0.917012,0.059904 0.915858,0.088750 0.914704,0.059904 0.887012,0.059904 0.885950,0.086446 0.913554,0.088658 0.885862,0.088658 0.884800,0.115200 0.883738,0.088658 0.856046,0.088658 0.883650,0.086446 0.882588,0.059904 0.854896,0.059904 0.853742,0.088750 0.852588,0.059904 0.824896,0.059904 0.852500,0.057692 0.851346,0.028846 0.854800,0.057508 0.882404,0.055296 0.881342,0.028754 0.853650,0.028754 0.881254,0.026542 0.880192,0.000000 0.854712,0.000000 0.853650,0.026542 0.852588,0.000000 0.827108,0.000000 0.826046,0.026542 0.853650,0.028754 0.825958,0.028754 0.824896,0.055296 0.823834,0.028754 0.796142,0.028754 0.823746,0.026542 0.822684,0.000000 0.797204,0.000000 0.796142,0.026542 0.795080,0.000000 0.769600,0.000000 0.768538,0.026542 0.796142,0.028754 0.768450,0.028754 0.767388,0.055296 0.794992,0.057508 0.798446,0.028846 0.797292,0.057692 0.824896,0.059904 0.797204,0.059904 0.796050,0.088750 0.794896,0.059904 0.767204,0.059904 0.766142,0.086446 0.793746,0.088658 0.766054,0.088658 0.764992,0.115200 0.792596,0.117412 0.796050,0.088750 0.794896,0.117596 0.822500,0.119808 0.825954,0.091146 0.796242,0.086354 0.826242,0.088758 0.829696,0.060096 0.828542,0.088942 0.858542,0.091346 0.828446,0.091346 0.827292,0.120192 0.854896,0.122404 0.858350,0.093742 0.857196,0.122588 0.884800,0.124800 0.857108,0.124800 0.855954,0.153646 0.854800,0.124800 0.827108,0.124800 0.825954,0.153646 0.855954,0.156050 0.825858,0.156050 0.824704,0.184896 0.823550,0.156050 0.793454,0.156050 0.823454,0.153646 0.822300,0.124800 0.794608,0.124800 0.793454,0.153646 0.792300,0.124800 0.764608,0.124800 0.763546,0.151342 0.791150,0.153554 0.763458,0.153554 0.762396,0.180096 0.790000,0.182308 0.793454,0.153646 0.792300,0.182492 0.819904,0.184704 0.792212,0.184704 0.791058,0.213550 0.789904,0.184704 0.762212,0.184704 0.761150,0.211246 0.788754,0.213458 0.761062,0.213458 0.760000,0.240000 0.758938,0.213458 0.731246,0.213458 0.758850,0.211246 0.757788,0.184704 0.730096,0.184704 0.728942,0.213550 0.727788,0.184704 0.700096,0.184704 0.727700,0.182492 0.726546,0.153646 0.730000,0.182308 0.757604,0.180096 0.756542,0.153554 0.728850,0.153554 0.756454,0.151342 0.755392,0.124800 0.727700,0.124800 0.726546,0.153646 0.725392,0.124800 0.697700,0.124800 0.696546,0.153646 0.726546,0.156050 0.696450,0.156050 0.695296,0.184896 0.694142,0.156050 0.664046,0.156050 0.694046,0.153646 0.692892,0.124800 0.665200,0.124800 0.664046,0.153646 0.662892,0.124800 0.635200,0.124800 0.662804,0.122588 0.661650,0.093742 0.665104,0.122404 0.692708,0.120192 0.691554,0.091346 0.661458,0.091346 0.691458,0.088942 0.690304,0.060096 0.693758,0.088758 0.723758,0.086354 0.694046,0.091146 0.697500,0.119808 0.725104,0.117596 0.723950,0.088750 0.727404,0.117412 0.755008,0.115200 0.753946,0.088658 0.726254,0.088658 0.753858,0.086446 0.752796,0.059904 0.725104,0.059904 0.723950,0.088750 0.722796,0.059904 0.695104,0.059904 0.722708,0.057692 0.721554,0.028846 0.725008,0.057508 0.752612,0.055296 0.751550,0.028754 0.723858,0.028754 0.751462,0.026542 0.750400,0.000000 0.724920,0.000000 0.723858,0.026542 0.722796,0.000000 0.697316,0.000000 0.696254,0.026542 0.723858,0.028754 0.696166,0.028754 0.695104,0.055296 0.694042,0.028754 0.666350,0.028754 0.693954,0.026542 0.692892,0.000000 0.667412,0.000000 0.666350,0.026542 0.665288,0.000000 0.639808,0.000000 0.638746,0.026542 0.666350,0.028754 0.638658,0.028754 0.637596,0.055296 0.665200,0.057508 0.668654,0.028846 0.667500,0.057692 0.695104,0.059904 0.667412,0.059904 0.666258,0.088750 0.665104,0.059904 0.637412,0.059904 0.636350,0.086446 0.663954,0.088658 0.636262,0.088658 0.635200,0.115200 0.634138,0.088658 0.606446,0.088658 0.634050,0.086446 0.632988,0.059904 0.605296,0.059904 0.604142,0.088750 0.602988,0.059904 0.575296,0.059904 0.602900,0.057692 0.601746,0.028846 0.605200,0.057508 0.632804,0.055296 0.631742,0.028754 0.604050,0.028754 0.631654,0.026542 0.630592,0.000000 0.605112,0.000000 0.604050,0.026542 0.602988,0.000000 0.577508,0.000000 0.576446,0.026542 0.604050,0.028754 0.576358,0.028754 0.575296,0.055296 0.574234,0.028754 0.546542,0.028754 0.574146,0.026542 0.573084,0.000000 0.547604,0.000000 0.546542,0.026542 0.545480,0.000000 0.520000,0.000000 0.518938,0.026542 0.546542,0.028754 0.518850,0.028754 0.517788,0.055296 0.545392,0.057508 0.548846,0.028846 0.547692,0.057692 0.575296,0.059904 0.547604,0.059904 0.546450,0.088750 0.545296,0.059904 0.517604,0.059904 0.516542,0.086446 0.544146,0.088658 0.516454,0.088658 0.515392,0.115200 0.542996,0.117412 0.546450,0.088750 0.545296,0.117596 0.572900,0.119808 0.576354,0.091146 0.546642,0.086354 0.576642,0.088758 0.580096,0.060096 0.578942,0.088942 0.608942,0.091346 0.578846,0.091346 0.577692,0.120192 0.605296,0.122404 0.608750,0.093742 0.607596,0.122588 0.635200,0.124800 0.607508,0.124800 0.606354,0.153646 0.605200,0.124800 0.577508,0.124800 0.576354,0.153646 0.606354,0.156050 0.576258,0.156050 0.575104,0.184896 0.573950,0.156050 0.543854,0.156050 0.573854,0.153646 0.572700,0.124800 0.545008,0.124800 0.543854,0.153646 0.542700,0.124800 0.515008,0.124800 0.513946,0.151342 0.541550,0.153554 0.513858,0.153554 0.512796,0.180096 0.540400,0.182308 0.543854,0.153646 0.542700,0.182492 0.570304,0.184704 0.542612,0.184704 0.541458,0.213550 0.540304,0.184704 0.512612,0.184704 0.511550,0.211246 0.539154,0.213458 0.511462,0.213458 0.510400,0.240000 0.538004,0.242212 0.541458,0.213550 0.540304,0.242396 0.567908,0.244608 0.571362,0.215946 0.541650,0.211154 0.571650,0.213558 0.575104,0.184896 0.573950,0.213742 0.603950,0.216146 0.573854,0.216146 0.572700,0.244992 0.600304,0.247204 0.603758,0.218542 0.602604,0.247388 0.630208,0.249600 0.633662,0.220938 0.603950,0.216146 0.633950,0.218550 0.637404,0.189888 0.607692,0.185096 0.601462,0.215846 0.605216,0.184696 0.575504,0.179904 0.605504,0.182308 0.609258,0.151158 0.608004,0.182508 0.638004,0.184912 0.641458,0.156250 0.611746,0.151458 0.641746,0.153862 0.645200,0.125200 0.644046,0.154046 0.674046,0.156450 0.643950,0.156450 0.642796,0.185296 0.672796,0.187700 0.676550,0.156550 0.675296,0.187900 0.705296,0.190304 0.675200,0.190304 0.673946,0.221654 0.672692,0.190304 0.642596,0.190304 0.641442,0.219150 0.671442,0.221554 0.641346,0.221554 0.640192,0.250400 0.667796,0.252612 0.671250,0.223950 0.670096,0.252796 0.697700,0.255008 0.701154,0.226346 0.671442,0.221554 0.701442,0.223958 0.704896,0.195296 0.703742,0.224142 0.733742,0.226546 0.703646,0.226546 0.702492,0.255392 0.730096,0.257604 0.733550,0.228942 0.732396,0.257788 0.760000,0.260000 0.732308,0.260000 0.731154,0.288846 0.730000,0.260000 0.702308,0.260000 0.701154,0.288846 0.731154,0.291250 0.701058,0.291250 0.699904,0.320096 0.698750,0.291250 0.668654,0.291250 0.698654,0.288846 0.697500,0.260000 0.669808,0.260000 0.668654,0.288846 0.667500,0.260000 0.639808,0.260000 0.638654,0.288846 0.668654,0.291250 0.638558,0.291250 0.637404,0.320096 0.667404,0.322500 0.671158,0.291350 0.669904,0.322700 0.699904,0.325104 0.669808,0.325104 0.668554,0.356454 0.667300,0.325104 0.637204,0.325104 0.636050,0.353950 0.666050,0.356354 0.635954,0.356354 0.634800,0.385200 0.633646,0.356354 0.603550,0.356354 0.633550,0.353950 0.632396,0.325104 0.602300,0.325104 0.601046,0.356454 0.599792,0.325104 0.569696,0.325104 0.599696,0.322700 0.598442,0.291350 0.602196,0.322500 0.632196,0.320096 0.631042,0.291250 0.600946,0.291250 0.630946,0.288846 0.629792,0.260000 0.602100,0.260000 0.600946,0.288846 0.599792,0.260000 0.572100,0.260000 0.570946,0.288846 0.600946,0.291250 0.570850,0.291250 0.569696,0.320096 0.568542,0.291250 0.538446,0.291250 0.568446,0.288846 0.567292,0.260000 0.539600,0.260000 0.538446,0.288846 0.537292,0.260000 0.509600,0.260000 0.508538,0.286542 0.536142,0.288754 0.508450,0.288754 0.507388,0.315296 0.534992,0.317508 0.538446,0.288846 0.537292,0.317692 0.564896,0.319904 0.537204,0.319904 0.536050,0.348750 0.534896,0.319904 0.507204,0.319904 0.506142,0.346446 0.533746,0.348658 0.506054,0.348658 0.504992,0.375200 0.532596,0.377412 0.536050,0.348750 0.534896,0.377596 0.562500,0.379808 0.565954,0.351146 0.536242,0.346354 0.566242,0.348758 0.569696,0.320096 0.568542,0.348942 0.598542,0.351346 0.568446,0.351346 0.567292,0.380192 0.594896,0.382404 0.598350,0.353742 0.597196,0.382588 0.624800,0.384800 0.597108,0.384800 0.595954,0.413646 0.594800,0.384800 0.567108,0.384800 0.565954,0.413646 0.595954,0.416050 0.565858,0.416050 0.564704,0.444896 0.563550,0.416050 0.533454,0.416050 0.563454,0.413646 0.562300,0.384800 0.534608,0.384800 0.533454,0.413646 0.532300,0.384800 0.504608,0.384800 0.503546,0.411342 0.531150,0.413554 0.503458,0.413554 0.502396,0.440096 0.530000,0.442308 0.533454,0.413646 0.532300,0.442492 0.559904,0.444704 0.532212,0.444704 0.531058,0.473550 0.529904,0.444704 0.502212,0.444704 0.501150,0.471246 0.528754,0.473458 0.501062,0.473458 0.500000,0.500000 0.498938,0.473458 0.471246,0.473458 0.498850,0.471246 0.497788,0.444704 0.470096,0.444704 0.468942,0.473550 0.467788,0.444704 0.440096,0.444704 0.467700,0.442492 0.466546,0.413646 0.470000,0.442308 0.497604,0.440096 0.496542,0.413554 0.468850,0.413554 0.496454,0.411342 0.495392,0.384800 0.467700,0.384800 0.466546,0.413646 0.465392,0.384800 0.437700,0.384800 0.436546,0.413646 0.466546,0.416050 0.436450,0.416050 0.435296,0.444896 0.434142,0.416050 0.404046,0.416050 0.434046,0.413646 0.432892,0.384800 0.405200,0.384800 0.404046,0.413646 0.402892,0.384800 0.375200,0.384800 0.402804,0.382588 0.401650,0.353742 0.405104,0.382404 0.432708,0.380192 0.431554,0.351346 0.401458,0.351346 0.431458,0.348942 0.430304,0.320096 0.433758,0.348758 0.463758,0.346354 0.434046,0.351146 0.437500,0.379808 0.465104,0.377596 0.463950,0.348750 0.467404,0.377412 0.495008,0.375200 0.493946,0.348658 0.466254,0.348658 0.493858,0.346446 0.492796,0.319904 0.465104,0.319904 0.463950,0.348750 0.462796,0.319904 0.435104,0.319904 0.462708,0.317692 0.461554,0.288846 0.465008,0.317508 0.492612,0.315296 0.491550,0.288754 0.463858,0.288754 0.491462,0.286542 0.490400,0.260000 0.462708,0.260000 0.461554,0.288846 0.460400,0.260000 0.432708,0.260000 0.431554,0.288846 0.461554,0.291250 0.431458,0.291250 0.430304,0.320096 0.429150,0.291250 0.399054,0.291250 0.429054,0.288846 0.427900,0.260000 0.400208,0.260000 0.399054,0.288846 0.397900,0.260000 0.370208,0.260000 0.369054,0.288846 0.399054,0.291250 0.368958,0.291250 0.367804,0.320096 0.397804,0.322500 0.401558,0.291350 0.400304,0.322700 0.430304,0.325104 0.400208,0.325104 0.398954,0.356454 0.397700,0.325104 0.367604,0.325104 0.366450,0.353950 0.396450,0.356354 0.366354,0.356354 0.365200,0.385200 0.364046,0.356354 0.333950,0.356354 0.363950,0.353950 0.362796,0.325104 0.332700,0.325104 0.331446,0.356454 0.330192,0.325104 0.300096,0.325104 0.330096,0.322700 0.328842,0.291350 0.332596,0.322500 0.362596,0.320096 0.361442,0.291250 0.331346,0.291250 0.361346,0.288846 0.360192,0.260000 0.332500,0.260000 0.331346,0.288846 0.330192,0.260000 0.302500,0.260000 0.301346,0.288846 0.331346,0.291250 0.301250,0.291250 0.300096,0.320096 0.298942,0.291250 0.268846,0.291250 0.298846,0.288846 0.297692,0.260000 0.270000,0.260000 0.268846,0.288846 0.267692,0.260000 0.240000,0.260000 0.267604,0.257788 0.266450,0.228942 0.269904,0.257604 0.297508,0.255392 0.296354,0.226546 0.266258,0.226546 0.296258,0.224142 0.295104,0.195296 0.298558,0.223958 0.328558,0.221554 0.298846,0.226346 0.302300,0.255008 0.329904,0.252796 0.328750,0.223950 0.332204,0.252612 0.359808,0.250400 0.358654,0.221554 0.328558,0.221554 0.358558,0.219150 0.357404,0.190304 0.327308,0.190304 0.326054,0.221654 0.324800,0.190304 0.294704,0.190304 0.324704,0.187900 0.323450,0.156550 0.327204,0.187700 0.357204,0.185296 0.356050,0.156450 0.325954,0.156450 0.355954,0.154046 0.354800,0.125200 0.358254,0.153862 0.388254,0.151458 0.358542,0.156250 0.361996,0.184912 0.391996,0.182508 0.390742,0.151158 0.394496,0.182308 0.424496,0.179904 0.394784,0.184696 0.398538,0.215846 0.392308,0.185096 0.362596,0.189888 0.366050,0.218550 0.396050,0.216146 0.366338,0.220938 0.369792,0.249600 0.397396,0.247388 0.396242,0.218542 0.399696,0.247204 0.427300,0.244992 0.426146,0.216146 0.396050,0.216146 0.426050,0.213742 0.424896,0.184896 0.428350,0.213558 0.458350,0.211154 0.428638,0.215946 0.432092,0.244608 0.459696,0.242396 0.458542,0.213550 0.461996,0.242212 0.489600,0.240000 0.488538,0.213458 0.460846,0.213458 0.488450,0.211246 0.487388,0.184704 0.459696,0.184704 0.458542,0.213550 0.457388,0.184704 0.429696,0.184704 0.457300,0.182492 0.456146,0.153646 0.459600,0.182308 0.487204,0.180096 0.486142,0.153554 0.458450,0.153554 0.486054,0.151342 0.484992,0.124800 0.457300,0.124800 0.456146,0.153646 0.454992,0.124800 0.427300,0.124800 0.426146,0.153646 0.456146,0.156050 0.426050,0.156050 0.424896,0.184896 0.423742,0.156050 0.393646,0.156050 0.423646,0.153646 0.422492,0.124800 0.394800,0.124800 0.393646,0.153646 0.392492,0.124800 0.364800,0.124800 0.392404,0.122588 0.391250,0.093742 0.394704,0.122404 0.422308,0.120192 0.421154,0.091346 0.391058,0.091346 0.421058,0.088942 0.419904,0.060096 0.423358,0.088758 0.453358,0.086354 0.423646,0.091146 0.427100,0.119808 0.454704,0.117596 0.453550,0.088750 0.457004,0.117412 0.484608,0.115200 0.483546,0.088658 0.455854,0.088658 0.483458,0.086446 0.482396,0.059904 0.454704,0.059904 0.453550,0.088750 0.452396,0.059904 0.424704,0.059904 0.452308,0.057692 0.451154,0.028846 0.454608,0.057508 0.482212,0.055296 0.481150,0.028754 0.453458,0.028754 0.481062,0.026542 0.480000,0.000000 0.454520,0.000000 0.453458,0.026542 0.452396,0.000000 0.426916,0.000000 0.425854,0.026542 0.453458,0.028754 0.425766,0.028754 0.424704,0.055296 0.423642,0.028754 0.395950,0.028754 0.423554,0.026542 0.422492,0.000000 0.397012,0.000000 0.395950,0.026542 0.394888,0.000000 0.369408,0.000000 0.368346,0.026542 0.395950,0.028754 0.368258,0.028754 0.367196,0.055296 0.394800,0.057508 0.398254,0.028846 0.397100,0.057692 0.424704,0.059904 0.397012,0.059904 0.395858,0.088750 0.394704,0.059904 0.367012,0.059904 0.365950,0.086446 0.393554,0.088658 0.365862,0.088658 0.364800,0.115200 0.363738,0.088658 0.336046,0.088658 0.363650,0.086446 0.362588,0.059904 0.334896,0.059904 0.333742,0.088750 0.332588,0.059904 0.304896,0.059904 0.332500,0.057692 0.331346,0.028846 0.334800,0.057508 0.362404,0.055296 0.361342,0.028754 0.333650,0.028754 0.361254,0.026542 0.360192,0.000000 0.334712,0.000000 0.333650,0.026542 0.332588,0.000000 0.307108,0.000000 0.306046,0.026542 0.333650,0.028754 0.305958,0.028754 0.304896,0.055296 0.303834,0.028754 0.276142,0.028754 0.303746,0.026542 0.302684,0.000000 0.277204,0.000000 0.276142,0.026542 0.275080,0.000000 0.249600,0.000000 0.248538,0.026542 0.276142,0.028754 0.248450,0.028754 0.247388,0.055296 0.274992,0.057508 0.278446,0.028846 0.277292,0.057692 0.304896,0.059904 0.277204,0.059904 0.276050,0.088750 0.274896,0.059904 0.247204,0.059904 0.246142,0.086446 0.273746,0.088658 0.246054,0.088658 0.244992,0.115200 0.272596,0.117412 0.276050,0.088750 0.274896,0.117596 0.302500,0.119808 0.305954,0.091146 0.276242,0.086354 0.306242,0.088758 0.309696,0.060096 0.308542,0.088942 0.338542,0.091346 0.308446,0.091346 0.307292,0.120192 0.334896,0.122404 0.338350,0.093742 0.337196,0.122588 0.364800,0.124800 0.337108,0.124800 0.335954,0.153646 0.334800,0.124800 0.307108,0.124800 0.305954,0.153646 0.335954,0.156050 0.305858,0.156050 0.304704,0.184896 0.303550,0.156050 0.273454,0.156050 0.303454,0.153646 0.302300,0.124800 0.274608,0.124800 0.273454,0.153646 0.272300,0.124800 0.244608,0.124800 0.243546,0.151342 0.271150,0.153554 0.243458,0.153554 0.242396,0.180096 0.270000,0.182308 0.273454,0.153646 0.272300,0.182492 0.299904,0.184704 0.272212,0.184704 0.271058,0.213550 0.269904,0.184704 0.242212,0.184704 0.241150,0.211246 0.268754,0.213458 0.241062,0.213458 0.240000,0.240000 0.238938,0.213458 0.211246,0.213458 0.238850,0.211246 0.237788,0.184704 0.210096,0.184704 0.208942,0.213550 0.207788,0.184704 0.180096,0.184704 0.207700,0.182492 0.206546,0.153646 0.210000,0.182308 0.237604,0.180096 0.236542,0.153554 0.208850,0.153554 0.236454,0.151342 0.235392,0.124800 0.207700,0.124800 0.206546,0.153646 0.205392,0.124800 0.177700,0.124800 0.176546,0.153646 0.206546,0.156050 0.176450,0.156050 0.175296,0.184896 0.174142,0.156050 0.144046,0.156050 0.174046,0.153646 0.172892,0.124800 0.145200,0.124800 0.144046,0.153646 0.142892,0.124800 0.115200,0.124800 0.142804,0.122588 0.141650,0.093742 0.145104,0.122404 0.172708,0.120192 0.171554,0.091346 0.141458,0.091346 0.171458,0.088942 0.170304,0.060096 0.173758,0.088758 0.203758,0.086354 0.174046,0.091146 0.177500,0.119808 0.205104,0.117596 0.203950,0.088750 0.207404,0.117412 0.235008,0.115200 0.233946,0.088658 0.206254,0.088658 0.233858,0.086446 0.232796,0.059904 0.205104,0.059904 0.203950,0.088750 0.202796,0.059904 0.175104,0.059904 0.202708,0.057692 0.201554,0.028846 0.205008,0.057508 0.232612,0.055296 0.231550,0.028754 0.203858,0.028754 0.231462,0.026542 0.230400,0.000000 0.204920,0.000000 0.203858,0.026542 0.202796,0.000000 0.177316,0.000000 0.176254,0.026542 0.203858,0.028754 0.176166,0.028754 0.175104,0.055296 0.174042,0.028754 0.146350,0.028754 0.173954,0.026542 0.172892,0.000000 0.147412,0.000000 0.146350,0.026542 0.145288,0.000000 0.119808,0.000000 0.118746,0.026542 0.146350,0.028754 0.118658,0.028754 0.117596,0.055296 0.145200,0.057508 0.148654,0.028846 0.147500,0.057692 0.175104,0.059904 0.147412,0.059904 0.146258,0.088750 0.145104,0.059904 0.117412,0.059904 0.116350,0.086446 0.143954,0.088658 0.116262,0.088658 0.115200,0.115200 0.114138,0.088658 0.086446,0.088658 0.114050,0.086446 0.112988,0.059904 0.085296,0.059904 0.084142,0.088750 0.082988,0.059904 0.055296,0.059904 0.082900,0.057692 0.081746,0.028846 0.085200,0.057508 0.112804,0.055296 0.111742,0.028754 0.084050,0.028754 0.111654,0.026542 0.110592,0.000000 0.085112,0.000000 0.084050,0.026542 0.082988,0.000000 0.057508,0.000000 0.056446,0.026542 0.084050,0.028754 0.056358,0.028754 0.055296,0.055296 0.054234,0.028754 0.026542,0.028754 0.054146,0.026542 0.053084,0.000000 0.027604,0.000000 0.026542,0.026542 0.025480,0.000000 " />
	</g>
</svg>