<svg version='1.1' width='1.350408' height='0.806325' viewbox='0 0 1.350408 0.806325' xmlns='http://www.w3.org/2000/svg'>
	<g transform='translate(0.109163,0.561007)'>
		<polyline style='fill: none; stroke: black; stroke-width: 0.005px; ' points="0.000000,0.000000 1.000000,0.000000 " />
		<polyline style='fill: none; stroke: black; stroke-width: 0.005px; ' points="0.000000,0.000000 0.500000,-0.450000 1.000000,0.000000 " />
		<polyline style='fill: none; stroke: black; stroke-width: 0.005px; ' points="0.000000,0.000000 0.452500,0.000000 0.500000,-0.450000 0.952500,-0.450000 1.000000,0.000000 " />
		<polyline style='fill: none; stroke: black; stroke-width: 0.005px; ' points="0.000000,0.000000 0.226250,0.203625 0.452500,0.000000 0.273750,-0.246375 0.500000,-0.450000 0.726250,-0.246375 0.952500,-0.450000 1.178750,-0.246375 1.000000,0.000000 " />
		<polyline style='fill: none; stroke: black; stroke-width: 0.005px; ' points="0.000000,0.000000 0.021494,0.203625 0.226250,0.203625 0.247744,0.000000 0.452500,0.000000 0.473994,-0.203625 0.273750,-0.246375 0.295244,-0.450000 0.500000,-0.450000 0.521494,-0.246375 0.726250,-0.246375 0.747744,-0.450000 0.952500,-0.450000 0.973994,-0.246375 1.178750,-0.246375 1.200244,-0.042750 1.000000,0.000000 " />
		<polyline style='fill: none; stroke: black; stroke-width: 0.005px; ' points="0.000000,0.000000 -0.080884,0.111485 0.021494,0.203625 0.123872,0.111485 0.226250,0.203625 0.328628,0.111485 0.247744,0.000000 0.350122,-0.092140 0.452500,0.000000 0.554878,-0.092140 0.473994,-0.203625 0.354634,-0.134890 0.273750,-0.246375 0.376128,-0.338515 0.295244,-0.450000 0.397622,-0.542140 0.500000,-0.450000 0.419116,-0.338515 0.521494,-0.246375 0.623872,-0.338515 0.726250,-0.246375 0.828628,-0.338515 0.747744,-0.450000 0.850122,-0.542140 0.952500,-0.450000 0.871616,-0.338515 0.973994,-0.246375 1.076372,-0.338515 1.178750,-0.246375 1.097866,-0.134890 1.200244,-0.042750 1.119359,0.068735 1.000000,0.000000 " />
		<polyline style='fill: none; stroke: black; stroke-width: 0.005px; ' points="0.000000,0.000000 -0.090610,0.019344 -0.080884,0.111485 0.011768,0.111485 0.021494,0.203625 0.114146,0.203625 0.123872,0.111485 0.216524,0.111485 0.226250,0.203625 0.318902,0.203625 0.328628,0.111485 0.238018,0.092140 0.247744,0.000000 0.340396,0.000000 0.350122,-0.092140 0.442774,-0.092140 0.452500,0.000000 0.545152,-0.000000 0.554878,-0.092140 0.464268,-0.111485 0.473994,-0.203625 0.383383,-0.222969 0.354634,-0.134890 0.264024,-0.154235 0.273750,-0.246375 0.366402,-0.246375 0.376128,-0.338515 0.285518,-0.357860 0.295244,-0.450000 0.387896,-0.450000 0.397622,-0.542140 0.490274,-0.542140 0.500000,-0.450000 0.409390,-0.430656 0.419116,-0.338515 0.511768,-0.338515 0.521494,-0.246375 0.614146,-0.246375 0.623872,-0.338515 0.716524,-0.338515 0.726250,-0.246375 0.818902,-0.246375 0.828628,-0.338515 0.738018,-0.357860 0.747744,-0.450000 0.840396,-0.450000 0.850122,-0.542140 0.942774,-0.542140 0.952500,-0.450000 0.861890,-0.430656 0.871616,-0.338515 0.964268,-0.338515 0.973994,-0.246375 1.066646,-0.246375 1.076372,-0.338515 1.169024,-0.338515 1.178750,-0.246375 1.088140,-0.227031 1.097866,-0.134890 1.190518,-0.134890 1.200244,-0.042750 1.109633,-0.023406 1.119359,0.068735 1.028749,0.088079 1.000000,0.000000 " />
		<polyline style='fill: none; stroke: black; stroke-width: 0.005px; ' points="0.000000,0.000000 -0.054010,-0.031102 -0.090610,0.019344 -0.044284,0.061038 -0.080884,0.111485 -0.034558,0.153178 0.011768,0.111485 0.058094,0.153178 0.021494,0.203625 0.067820,0.245318 0.114146,0.203625 0.077546,0.153178 0.123872,0.111485 0.170198,0.153178 0.216524,0.111485 0.262850,0.153178 0.226250,0.203625 0.272576,0.245318 0.318902,0.203625 0.282302,0.153178 0.328628,0.111485 0.292028,0.061038 0.238018,0.092140 0.201418,0.041693 0.247744,0.000000 0.294070,0.041693 0.340396,0.000000 0.303796,-0.050447 0.350122,-0.092140 0.396448,-0.050447 0.442774,-0.092140 0.489100,-0.050447 0.452500,0.000000 0.498826,0.041693 0.545152,-0.000000 0.508552,-0.050447 0.554878,-0.092140 0.518278,-0.142587 0.464268,-0.111485 0.427668,-0.161932 0.473994,-0.203625 0.437394,-0.254072 0.383383,-0.222969 0.408644,-0.165993 0.354634,-0.134890 0.318034,-0.185337 0.264024,-0.154235 0.227424,-0.204682 0.273750,-0.246375 0.320076,-0.204682 0.366402,-0.246375 0.329802,-0.296822 0.376128,-0.338515 0.339528,-0.388962 0.285518,-0.357860 0.248918,-0.408307 0.295244,-0.450000 0.341570,-0.408307 0.387896,-0.450000 0.351296,-0.500447 0.397622,-0.542140 0.443948,-0.500447 0.490274,-0.542140 0.536600,-0.500447 0.500000,-0.450000 0.445990,-0.481102 0.409390,-0.430656 0.455716,-0.388962 0.419116,-0.338515 0.465442,-0.296822 0.511768,-0.338515 0.558094,-0.296822 0.521494,-0.246375 0.567820,-0.204682 0.614146,-0.246375 0.577546,-0.296822 0.623872,-0.338515 0.670198,-0.296822 0.716524,-0.338515 0.762850,-0.296822 0.726250,-0.246375 0.772576,-0.204682 0.818902,-0.246375 0.782302,-0.296822 0.828628,-0.338515 0.792028,-0.388962 0.738018,-0.357860 0.701418,-0.408307 0.747744,-0.450000 0.794070,-0.408307 0.840396,-0.450000 0.803796,-0.500447 0.850122,-0.542140 0.896448,-0.500447 0.942774,-0.542140 0.989100,-0.500447 0.952500,-0.450000 0.898490,-0.481102 0.861890,-0.430656 0.908216,-0.388962 0.871616,-0.338515 0.917942,-0.296822 0.964268,-0.338515 1.010594,-0.296822 0.973994,-0.246375 1.020320,-0.204682 1.066646,-0.246375 1.030046,-0.296822 1.076372,-0.338515 1.122698,-0.296822 1.169024,-0.338515 1.215350,-0.296822 1.178750,-0.246375 1.124740,-0.277477 1.088140,-0.227031 1.134466,-0.185337 1.097866,-0.134890 1.144192,-0.093197 1.190518,-0.134890 1.236844,-0.093197 1.200244,-0.042750 1.146234,-0.073852 1.109633,-0.023406 1.155960,0.018288 1.119359,0.068735 1.065349,0.037632 1.028749,0.088079 0.974739,0.056977 1.000000,0.000000 " />
		<polyline style='fill: none; stroke: black; stroke-width: 0.005px; ' points="0.000000,0.000000 -0.013009,-0.039856 -0.054010,-0.031102 -0.049609,0.010591 -0.090610,0.019344 -0.086209,0.061038 -0.044284,0.061038 -0.039883,0.102731 -0.080884,0.111485 -0.076483,0.153178 -0.034558,0.153178 -0.030157,0.111485 0.011768,0.111485 0.016169,0.153178 0.058094,0.153178 0.062495,0.194872 0.021494,0.203625 0.025895,0.245318 0.067820,0.245318 0.072221,0.203625 0.114146,0.203625 0.118547,0.161932 0.077546,0.153178 0.081947,0.111485 0.123872,0.111485 0.128273,0.153178 0.170198,0.153178 0.174599,0.111485 0.216524,0.111485 0.220925,0.153178 0.262850,0.153178 0.267251,0.194872 0.226250,0.203625 0.230651,0.245318 0.272576,0.245318 0.276977,0.203625 0.318902,0.203625 0.323303,0.161932 0.282302,0.153178 0.286703,0.111485 0.328628,0.111485 0.333029,0.069791 0.292028,0.061038 0.279019,0.100894 0.238018,0.092140 0.242419,0.050447 0.201418,0.041693 0.205819,-0.000000 0.247744,0.000000 0.252145,0.041693 0.294070,0.041693 0.298471,0.000000 0.340396,0.000000 0.344797,-0.041693 0.303796,-0.050447 0.308197,-0.092140 0.350122,-0.092140 0.354523,-0.050447 0.396448,-0.050447 0.400849,-0.092140 0.442774,-0.092140 0.447175,-0.050447 0.489100,-0.050447 0.493501,-0.008753 0.452500,0.000000 0.456901,0.041693 0.498826,0.041693 0.503227,-0.000000 0.545152,-0.000000 0.549553,-0.041693 0.508552,-0.050447 0.512953,-0.092140 0.554878,-0.092140 0.559279,-0.133834 0.518278,-0.142587 0.505269,-0.102731 0.464268,-0.111485 0.468669,-0.153178 0.427668,-0.161932 0.432069,-0.203625 0.473994,-0.203625 0.478395,-0.245318 0.437394,-0.254072 0.424385,-0.214216 0.383383,-0.222969 0.370374,-0.183114 0.408644,-0.165993 0.395636,-0.126137 0.354634,-0.134890 0.359035,-0.176584 0.318034,-0.185337 0.305025,-0.145481 0.264024,-0.154235 0.268425,-0.195928 0.227424,-0.204682 0.231825,-0.246375 0.273750,-0.246375 0.278151,-0.204682 0.320076,-0.204682 0.324477,-0.246375 0.366402,-0.246375 0.370803,-0.288068 0.329802,-0.296822 0.334203,-0.338515 0.376128,-0.338515 0.380529,-0.380209 0.339528,-0.388962 0.326519,-0.349106 0.285518,-0.357860 0.289919,-0.399553 0.248918,-0.408307 0.253319,-0.450000 0.295244,-0.450000 0.299645,-0.408307 0.341570,-0.408307 0.345971,-0.450000 0.387896,-0.450000 0.392297,-0.491693 0.351296,-0.500447 0.355697,-0.542140 0.397622,-0.542140 0.402023,-0.500447 0.443948,-0.500447 0.448349,-0.542140 0.490274,-0.542140 0.494675,-0.500447 0.536600,-0.500447 0.541001,-0.458753 0.500000,-0.450000 0.486991,-0.489856 0.445990,-0.481102 0.450391,-0.439409 0.409390,-0.430656 0.413791,-0.388962 0.455716,-0.388962 0.460117,-0.347269 0.419116,-0.338515 0.423517,-0.296822 0.465442,-0.296822 0.469843,-0.338515 0.511768,-0.338515 0.516169,-0.296822 0.558094,-0.296822 0.562495,-0.255128 0.521494,-0.246375 0.525895,-0.204682 0.567820,-0.204682 0.572221,-0.246375 0.614146,-0.246375 0.618547,-0.288068 0.577546,-0.296822 0.581947,-0.338515 0.623872,-0.338515 0.628273,-0.296822 0.670198,-0.296822 0.674599,-0.338515 0.716524,-0.338515 0.720925,-0.296822 0.762850,-0.296822 0.767251,-0.255128 0.726250,-0.246375 0.730651,-0.204682 0.772576,-0.204682 0.776977,-0.246375 0.818902,-0.246375 0.823303,-0.288068 0.782302,-0.296822 0.786703,-0.338515 0.828628,-0.338515 0.833029,-0.380209 0.792028,-0.388962 0.779019,-0.349106 0.738018,-0.357860 0.742419,-0.399553 0.701418,-0.408307 0.705819,-0.450000 0.747744,-0.450000 0.752145,-0.408307 0.794070,-0.408307 0.798471,-0.450000 0.840396,-0.450000 0.844797,-0.491693 0.803796,-0.500447 0.808197,-0.542140 0.850122,-0.542140 0.854523,-0.500447 0.896448,-0.500447 0.900849,-0.542140 0.942774,-0.542140 0.947175,-0.500447 0.989100,-0.500447 0.993501,-0.458753 0.952500,-0.450000 0.939491,-0.489856 0.898490,-0.481102 0.902891,-0.439409 0.861890,-0.430656 0.866291,-0.388962 0.908216,-0.388962 0.912617,-0.347269 0.871616,-0.338515 0.876017,-0.296822 0.917942,-0.296822 0.922343,-0.338515 0.964268,-0.338515 0.968669,-0.296822 1.010594,-0.296822 1.014995,-0.255128 0.973994,-0.246375 0.978395,-0.204682 1.020320,-0.204682 1.024721,-0.246375 1.066646,-0.246375 1.071047,-0.288068 1.030046,-0.296822 1.034447,-0.338515 1.076372,-0.338515 1.080773,-0.296822 1.122698,-0.296822 1.127099,-0.338515 1.169024,-0.338515 1.173425,-0.296822 1.215350,-0.296822 1.219751,-0.255128 1.178750,-0.246375 1.165741,-0.286231 1.124740,-0.277477 1.129141,-0.235784 1.088140,-0.227031 1.092541,-0.185337 1.134466,-0.185337 1.138867,-0.143644 1.097866,-0.134890 1.102267,-0.093197 1.144192,-0.093197 1.148593,-0.134890 1.190518,-0.134890 1.194919,-0.093197 1.236844,-0.093197 1.241245,-0.051503 1.200244,-0.042750 1.187235,-0.082606 1.146234,-0.073852 1.150635,-0.032159 1.109633,-0.023406 1.114034,0.018288 1.155960,0.018288 1.160361,0.059981 1.119359,0.068735 1.106350,0.028879 1.065349,0.037632 1.069750,0.079326 1.028749,0.088079 1.015740,0.048223 0.974739,0.056977 0.961730,0.017121 1.000000,0.000000 " />
		<polyline style='fill: none; stroke: black; stroke-width: 0.005px; ' points="0.000000,0.000000 0.011431,-0.025782 -0.013009,-0.039856 -0.029571,-0.017029 -0.054010,-0.031102 -0.070572,-0.008275 -0.049609,0.010591 -0.066171,0.033418 -0.090610,0.019344 -0.107172,0.042172 -0.086209,0.061038 -0.065247,0.042172 -0.044284,0.061038 -0.060846,0.083865 -0.039883,0.102731 -0.056445,0.125559 -0.080884,0.111485 -0.097446,0.134312 -0.076483,0.153178 -0.055521,0.134312 -0.034558,0.153178 -0.013596,0.134312 -0.030157,0.111485 -0.009195,0.092618 0.011768,0.111485 -0.004794,0.134312 0.016169,0.153178 0.037131,0.134312 0.058094,0.153178 0.041532,0.176005 0.062495,0.194872 0.045933,0.217699 0.021494,0.203625 0.004932,0.226452 0.025895,0.245318 0.046857,0.226452 0.067820,0.245318 0.088782,0.226452 0.072221,0.203625 0.093183,0.184759 0.114146,0.203625 0.135109,0.184759 0.118547,0.161932 0.094107,0.176005 0.077546,0.153178 0.098508,0.134312 0.081947,0.111485 0.102909,0.092618 0.123872,0.111485 0.107310,0.134312 0.128273,0.153178 0.149235,0.134312 0.170198,0.153178 0.191161,0.134312 0.174599,0.111485 0.195562,0.092618 0.216524,0.111485 0.199962,0.134312 0.220925,0.153178 0.241888,0.134312 0.262850,0.153178 0.246289,0.176005 0.267251,0.194872 0.250690,0.217699 0.226250,0.203625 0.209688,0.226452 0.230651,0.245318 0.251614,0.226452 0.272576,0.245318 0.293539,0.226452 0.276977,0.203625 0.297940,0.184759 0.318902,0.203625 0.339865,0.184759 0.323303,0.161932 0.298864,0.176005 0.282302,0.153178 0.303265,0.134312 0.286703,0.111485 0.307666,0.092618 0.328628,0.111485 0.349591,0.092618 0.333029,0.069791 0.308590,0.083865 0.292028,0.061038 0.267588,0.075112 0.279019,0.100894 0.254579,0.114967 0.238018,0.092140 0.258980,0.073274 0.242419,0.050447 0.217979,0.064521 0.201418,0.041693 0.222380,0.022827 0.205819,-0.000000 0.226781,-0.018866 0.247744,0.000000 0.231182,0.022827 0.252145,0.041693 0.273107,0.022827 0.294070,0.041693 0.315032,0.022827 0.298471,0.000000 0.319433,-0.018866 0.340396,0.000000 0.361359,-0.018866 0.344797,-0.041693 0.320357,-0.027620 0.303796,-0.050447 0.324758,-0.069313 0.308197,-0.092140 0.329159,-0.111007 0.350122,-0.092140 0.333560,-0.069313 0.354523,-0.050447 0.375485,-0.069313 0.396448,-0.050447 0.417411,-0.069313 0.400849,-0.092140 0.421812,-0.111007 0.442774,-0.092140 0.426212,-0.069313 0.447175,-0.050447 0.468138,-0.069313 0.489100,-0.050447 0.472539,-0.027620 0.493501,-0.008753 0.476940,0.014074 0.452500,0.000000 0.435938,0.022827 0.456901,0.041693 0.477864,0.022827 0.498826,0.041693 0.519789,0.022827 0.503227,-0.000000 0.524190,-0.018866 0.545152,-0.000000 0.566115,-0.018866 0.549553,-0.041693 0.525114,-0.027620 0.508552,-0.050447 0.529515,-0.069313 0.512953,-0.092140 0.533916,-0.111007 0.554878,-0.092140 0.575841,-0.111007 0.559279,-0.133834 0.534840,-0.119760 0.518278,-0.142587 0.493838,-0.128513 0.505269,-0.102731 0.480829,-0.088658 0.464268,-0.111485 0.485230,-0.130351 0.468669,-0.153178 0.444229,-0.139104 0.427668,-0.161932 0.448630,-0.180798 0.432069,-0.203625 0.453031,-0.222491 0.473994,-0.203625 0.494956,-0.222491 0.478395,-0.245318 0.453955,-0.231245 0.437394,-0.254072 0.412954,-0.239998 0.424385,-0.214216 0.399945,-0.200142 0.383383,-0.222969 0.358944,-0.208896 0.370374,-0.183114 0.397214,-0.191775 0.408644,-0.165993 0.384205,-0.151919 0.395636,-0.126137 0.371196,-0.112063 0.354634,-0.134890 0.375597,-0.153757 0.359035,-0.176584 0.334596,-0.162510 0.318034,-0.185337 0.293595,-0.171263 0.305025,-0.145481 0.280586,-0.131408 0.264024,-0.154235 0.284987,-0.173101 0.268425,-0.195928 0.243985,-0.181854 0.227424,-0.204682 0.248386,-0.223548 0.231825,-0.246375 0.252787,-0.265241 0.273750,-0.246375 0.257188,-0.223548 0.278151,-0.204682 0.299114,-0.223548 0.320076,-0.204682 0.341039,-0.223548 0.324477,-0.246375 0.345440,-0.265241 0.366402,-0.246375 0.387365,-0.265241 0.370803,-0.288068 0.346364,-0.273995 0.329802,-0.296822 0.350765,-0.315688 0.334203,-0.338515 0.355166,-0.357382 0.376128,-0.338515 0.397091,-0.357382 0.380529,-0.380209 0.356090,-0.366135 0.339528,-0.388962 0.315088,-0.374888 0.326519,-0.349106 0.302079,-0.335033 0.285518,-0.357860 0.306480,-0.376726 0.289919,-0.399553 0.265479,-0.385479 0.248918,-0.408307 0.269880,-0.427173 0.253319,-0.450000 0.274281,-0.468866 0.295244,-0.450000 0.278682,-0.427173 0.299645,-0.408307 0.320607,-0.427173 0.341570,-0.408307 0.362532,-0.427173 0.345971,-0.450000 0.366933,-0.468866 0.387896,-0.450000 0.408859,-0.468866 0.392297,-0.491693 0.367857,-0.477620 0.351296,-0.500447 0.372258,-0.519313 0.355697,-0.542140 0.376659,-0.561007 0.397622,-0.542140 0.381060,-0.519313 0.402023,-0.500447 0.422985,-0.519313 0.443948,-0.500447 0.464911,-0.519313 0.448349,-0.542140 0.469312,-0.561007 0.490274,-0.542140 0.473712,-0.519313 0.494675,-0.500447 0.515638,-0.519313 0.536600,-0.500447 0.520039,-0.477620 0.541001,-0.458753 0.524440,-0.435926 0.500000,-0.450000 0.511431,-0.475782 0.486991,-0.489856 0.470429,-0.467029 0.445990,-0.481102 0.429428,-0.458275 0.450391,-0.439409 0.433829,-0.416582 0.409390,-0.430656 0.392828,-0.407828 0.413791,-0.388962 0.434753,-0.407828 0.455716,-0.388962 0.439154,-0.366135 0.460117,-0.347269 0.443555,-0.324441 0.419116,-0.338515 0.402554,-0.315688 0.423517,-0.296822 0.444479,-0.315688 0.465442,-0.296822 0.486404,-0.315688 0.469843,-0.338515 0.490805,-0.357382 0.511768,-0.338515 0.495206,-0.315688 0.516169,-0.296822 0.537131,-0.315688 0.558094,-0.296822 0.541532,-0.273995 0.562495,-0.255128 0.545933,-0.232301 0.521494,-0.246375 0.504932,-0.223548 0.525895,-0.204682 0.546857,-0.223548 0.567820,-0.204682 0.588782,-0.223548 0.572221,-0.246375 0.593183,-0.265241 0.614146,-0.246375 0.635109,-0.265241 0.618547,-0.288068 0.594107,-0.273995 0.577546,-0.296822 0.598508,-0.315688 0.581947,-0.338515 0.602909,-0.357382 0.623872,-0.338515 0.607310,-0.315688 0.628273,-0.296822 0.649235,-0.315688 0.670198,-0.296822 0.691161,-0.315688 0.674599,-0.338515 0.695562,-0.357382 0.716524,-0.338515 0.699962,-0.315688 0.720925,-0.296822 0.741888,-0.315688 0.762850,-0.296822 0.746289,-0.273995 0.767251,-0.255128 0.750690,-0.232301 0.726250,-0.246375 0.709688,-0.223548 0.730651,-0.204682 0.751614,-0.223548 0.772576,-0.204682 0.793539,-0.223548 0.776977,-0.246375 0.797940,-0.265241 0.818902,-0.246375 0.839865,-0.265241 0.823303,-0.288068 0.798864,-0.273995 0.782302,-0.296822 0.803265,-0.315688 0.786703,-0.338515 0.807666,-0.357382 0.828628,-0.338515 0.849591,-0.357382 0.833029,-0.380209 0.808590,-0.366135 0.792028,-0.388962 0.767588,-0.374888 0.779019,-0.349106 0.754579,-0.335033 0.738018,-0.357860 0.758980,-0.376726 0.742419,-0.399553 0.717979,-0.385479 0.701418,-0.408307 0.722380,-0.427173 0.705819,-0.450000 0.726781,-0.468866 0.747744,-0.450000 0.731182,-0.427173 0.752145,-0.408307 0.773107,-0.427173 0.794070,-0.408307 0.815032,-0.427173 0.798471,-0.450000 0.819433,-0.468866 0.840396,-0.450000 0.861359,-0.468866 0.844797,-0.491693 0.820357,-0.477620 0.803796,-0.500447 0.824758,-0.519313 0.808197,-0.542140 0.829159,-0.561007 0.850122,-0.542140 0.833560,-0.519313 0.854523,-0.500447 0.875485,-0.519313 0.896448,-0.500447 0.917411,-0.519313 0.900849,-0.542140 0.921812,-0.561007 0.942774,-0.542140 0.926212,-0.519313 0.947175,-0.500447 0.968138,-0.519313 0.989100,-0.500447 0.972539,-0.477620 0.993501,-0.458753 0.976940,-0.435926 0.952500,-0.450000 0.963931,-0.475782 0.939491,-0.489856 0.922929,-0.467029 0.898490,-0.481102 0.881928,-0.458275 0.902891,-0.439409 0.886329,-0.416582 0.861890,-0.430656 0.845328,-0.407828 0.866291,-0.388962 0.887253,-0.407828 0.908216,-0.388962 0.891654,-0.366135 0.912617,-0.347269 0.896055,-0.324441 0.871616,-0.338515 0.855054,-0.315688 0.876017,-0.296822 0.896979,-0.315688 0.917942,-0.296822 0.938904,-0.315688 0.922343,-0.338515 0.943305,-0.357382 0.964268,-0.338515 0.947706,-0.315688 0.968669,-0.296822 0.989631,-0.315688 1.010594,-0.296822 0.994032,-0.273995 1.014995,-0.255128 0.998433,-0.232301 0.973994,-0.246375 0.957432,-0.223548 0.978395,-0.204682 0.999357,-0.223548 1.020320,-0.204682 1.041282,-0.223548 1.024721,-0.246375 1.045683,-0.265241 1.066646,-0.246375 1.087609,-0.265241 1.071047,-0.288068 1.046607,-0.273995 1.030046,-0.296822 1.051008,-0.315688 1.034447,-0.338515 1.055409,-0.357382 1.076372,-0.338515 1.059810,-0.315688 1.080773,-0.296822 1.101735,-0.315688 1.122698,-0.296822 1.143661,-0.315688 1.127099,-0.338515 1.148062,-0.357382 1.169024,-0.338515 1.152462,-0.315688 1.173425,-0.296822 1.194388,-0.315688 1.215350,-0.296822 1.198789,-0.273995 1.219751,-0.255128 1.203190,-0.232301 1.178750,-0.246375 1.190181,-0.272157 1.165741,-0.286231 1.149179,-0.263404 1.124740,-0.277477 1.108178,-0.254650 1.129141,-0.235784 1.112579,-0.212957 1.088140,-0.227031 1.071578,-0.204203 1.092541,-0.185337 1.113503,-0.204203 1.134466,-0.185337 1.117904,-0.162510 1.138867,-0.143644 1.122305,-0.120816 1.097866,-0.134890 1.081304,-0.112063 1.102267,-0.093197 1.123229,-0.112063 1.144192,-0.093197 1.165154,-0.112063 1.148593,-0.134890 1.169555,-0.153757 1.190518,-0.134890 1.173956,-0.112063 1.194919,-0.093197 1.215881,-0.112063 1.236844,-0.093197 1.220282,-0.070370 1.241245,-0.051503 1.224683,-0.028676 1.200244,-0.042750 1.211674,-0.068532 1.187235,-0.082606 1.170673,-0.059779 1.146234,-0.073852 1.129672,-0.051025 1.150635,-0.032159 1.134073,-0.009332 1.109633,-0.023406 1.093072,-0.000578 1.114034,0.018288 1.134997,-0.000578 1.155960,0.018288 1.139398,0.041115 1.160361,0.059981 1.143799,0.082809 1.119359,0.068735 1.130790,0.042953 1.106350,0.028879 1.089789,0.051706 1.065349,0.037632 1.048788,0.060459 1.069750,0.079326 1.053189,0.102153 1.028749,0.088079 1.040180,0.062297 1.015740,0.048223 0.999179,0.071050 0.974739,0.056977 0.986170,0.031195 0.961730,0.017121 0.973161,-0.008661 1.000000,0.000000 " />
<polyline style='fill: none; stroke: black; stroke-width: 0.005px; ' points="0.000000,0.000000 0.017317,-0.007747 0.011431,-0.025782 -0.007122,-0.021821 -0.013009,-0.039856 -0.031562,-0.035895 -0.029571,-0.017029 -0.048124,-0.013068 -0.054010,-0.031102 -0.072563,-0.027142 -0.070572,-0.008275 -0.051601,-0.008275 -0.049609,0.010591 -0.068162,0.014552 -0.066171,0.033418 -0.084724,0.037379 -0.090610,0.019344 -0.109163,0.023305 -0.107172,0.042172 -0.088201,0.042172 -0.086209,0.061038 -0.067238,0.061038 -0.065247,0.042172 -0.046276,0.042172 -0.044284,0.061038 -0.062837,0.064999 -0.060846,0.083865 -0.041875,0.083865 -0.039883,0.102731 -0.058436,0.106692 -0.056445,0.125559 -0.074998,0.129519 -0.080884,0.111485 -0.099437,0.115446 -0.097446,0.134312 -0.078475,0.134312 -0.076483,0.153178 -0.057512,0.153178 -0.055521,0.134312 -0.036550,0.134312 -0.034558,0.153178 -0.015587,0.153178 -0.013596,0.134312 -0.032149,0.130351 -0.030157,0.111485 -0.011186,0.111485 -0.009195,0.092618 0.009776,0.092618 0.011768,0.111485 -0.006785,0.115446 -0.004794,0.134312 0.014177,0.134312 0.016169,0.153178 0.035140,0.153178 0.037131,0.134312 0.056102,0.134312 0.058094,0.153178 0.039541,0.157139 0.041532,0.176005 0.060503,0.176005 0.062495,0.194872 0.043942,0.198833 0.045933,0.217699 0.027380,0.221660 0.021494,0.203625 0.002941,0.207586 0.004932,0.226452 0.023903,0.226452 0.025895,0.245318 0.044866,0.245318 0.046857,0.226452 0.065828,0.226452 0.067820,0.245318 0.086791,0.245318 0.088782,0.226452 0.070229,0.222491 0.072221,0.203625 0.091192,0.203625 0.093183,0.184759 0.112155,0.184759 0.114146,0.203625 0.133117,0.203625 0.135109,0.184759 0.116555,0.180798 0.118547,0.161932 0.099994,0.157971 0.094107,0.176005 0.075554,0.172044 0.077546,0.153178 0.096517,0.153178 0.098508,0.134312 0.079955,0.130351 0.081947,0.111485 0.100918,0.111485 0.102909,0.092618 0.121880,0.092618 0.123872,0.111485 0.105319,0.115446 0.107310,0.134312 0.126281,0.134312 0.128273,0.153178 0.147244,0.153178 0.149235,0.134312 0.168207,0.134312 0.170198,0.153178 0.189169,0.153178 0.191161,0.134312 0.172608,0.130351 0.174599,0.111485 0.193570,0.111485 0.195562,0.092618 0.214533,0.092618 0.216524,0.111485 0.197971,0.115446 0.199962,0.134312 0.218934,0.134312 0.220925,0.153178 0.239896,0.153178 0.241888,0.134312 0.260859,0.134312 0.262850,0.153178 0.244297,0.157139 0.246289,0.176005 0.265260,0.176005 0.267251,0.194872 0.248698,0.198833 0.250690,0.217699 0.232137,0.221660 0.226250,0.203625 0.207697,0.207586 0.209688,0.226452 0.228660,0.226452 0.230651,0.245318 0.249622,0.245318 0.251614,0.226452 0.270585,0.226452 0.272576,0.245318 0.291547,0.245318 0.293539,0.226452 0.274986,0.222491 0.276977,0.203625 0.295948,0.203625 0.297940,0.184759 0.316911,0.184759 0.318902,0.203625 0.337873,0.203625 0.339865,0.184759 0.321312,0.180798 0.323303,0.161932 0.304750,0.157971 0.298864,0.176005 0.280311,0.172044 0.282302,0.153178 0.301273,0.153178 0.303265,0.134312 0.284712,0.130351 0.286703,0.111485 0.305674,0.111485 0.307666,0.092618 0.326637,0.092618 0.328628,0.111485 0.347599,0.111485 0.349591,0.092618 0.331038,0.088658 0.333029,0.069791 0.314476,0.065830 0.308590,0.083865 0.290037,0.079904 0.292028,0.061038 0.273475,0.057077 0.267588,0.075112 0.284906,0.082859 0.279019,0.100894 0.260466,0.096933 0.254579,0.114967 0.236026,0.111007 0.238018,0.092140 0.256989,0.092140 0.258980,0.073274 0.240427,0.069313 0.242419,0.050447 0.223866,0.046486 0.217979,0.064521 0.199426,0.060560 0.201418,0.041693 0.220389,0.041693 0.222380,0.022827 0.203827,0.018866 0.205819,-0.000000 0.224790,-0.000000 0.226781,-0.018866 0.245752,-0.018866 0.247744,0.000000 0.229191,0.003961 0.231182,0.022827 0.250153,0.022827 0.252145,0.041693 0.271116,0.041693 0.273107,0.022827 0.292078,0.022827 0.294070,0.041693 0.313041,0.041693 0.315032,0.022827 0.296479,0.018866 0.298471,0.000000 0.317442,0.000000 0.319433,-0.018866 0.338405,-0.018866 0.340396,0.000000 0.359367,0.000000 0.361359,-0.018866 0.342805,-0.022827 0.344797,-0.041693 0.326244,-0.045654 0.320357,-0.027620 0.301804,-0.031581 0.303796,-0.050447 0.322767,-0.050447 0.324758,-0.069313 0.306205,-0.073274 0.308197,-0.092140 0.327168,-0.092140 0.329159,-0.111007 0.348130,-0.111007 0.350122,-0.092140 0.331569,-0.088179 0.333560,-0.069313 0.352531,-0.069313 0.354523,-0.050447 0.373494,-0.050447 0.375485,-0.069313 0.394457,-0.069313 0.396448,-0.050447 0.415419,-0.050447 0.417411,-0.069313 0.398858,-0.073274 0.400849,-0.092140 0.419820,-0.092140 0.421812,-0.111007 0.440783,-0.111007 0.442774,-0.092140 0.424221,-0.088179 0.426212,-0.069313 0.445184,-0.069313 0.447175,-0.050447 0.466146,-0.050447 0.468138,-0.069313 0.487109,-0.069313 0.489100,-0.050447 0.470547,-0.046486 0.472539,-0.027620 0.491510,-0.027620 0.493501,-0.008753 0.474948,-0.004792 0.476940,0.014074 0.458387,0.018035 0.452500,0.000000 0.433947,0.003961 0.435938,0.022827 0.454910,0.022827 0.456901,0.041693 0.475872,0.041693 0.477864,0.022827 0.496835,0.022827 0.498826,0.041693 0.517797,0.041693 0.519789,0.022827 0.501236,0.018866 0.503227,-0.000000 0.522198,0.000000 0.524190,-0.018866 0.543161,-0.018866 0.545152,-0.000000 0.564123,0.000000 0.566115,-0.018866 0.547562,-0.022827 0.549553,-0.041693 0.531000,-0.045654 0.525114,-0.027620 0.506561,-0.031581 0.508552,-0.050447 0.527523,-0.050447 0.529515,-0.069313 0.510962,-0.073274 0.512953,-0.092140 0.531924,-0.092140 0.533916,-0.111007 0.552887,-0.111007 0.554878,-0.092140 0.573849,-0.092140 0.575841,-0.111007 0.557288,-0.114967 0.559279,-0.133834 0.540726,-0.137795 0.534840,-0.119760 0.516287,-0.123721 0.518278,-0.142587 0.499725,-0.146548 0.493838,-0.128513 0.511156,-0.120766 0.505269,-0.102731 0.486716,-0.106692 0.480829,-0.088658 0.462276,-0.092618 0.464268,-0.111485 0.483239,-0.111485 0.485230,-0.130351 0.466677,-0.134312 0.468669,-0.153178 0.450116,-0.157139 0.444229,-0.139104 0.425676,-0.143065 0.427668,-0.161932 0.446639,-0.161932 0.448630,-0.180798 0.430077,-0.184759 0.432069,-0.203625 0.451040,-0.203625 0.453031,-0.222491 0.472002,-0.222491 0.473994,-0.203625 0.492965,-0.203625 0.494956,-0.222491 0.476403,-0.226452 0.478395,-0.245318 0.459842,-0.249279 0.453955,-0.231245 0.435402,-0.235206 0.437394,-0.254072 0.418841,-0.258033 0.412954,-0.239998 0.430271,-0.232251 0.424385,-0.214216 0.405832,-0.218177 0.399945,-0.200142 0.381392,-0.204103 0.383383,-0.222969 0.364830,-0.226930 0.358944,-0.208896 0.376261,-0.201148 0.370374,-0.183114 0.387692,-0.175366 0.397214,-0.191775 0.414531,-0.184027 0.408644,-0.165993 0.390091,-0.169954 0.384205,-0.151919 0.401522,-0.144172 0.395636,-0.126137 0.377083,-0.130098 0.371196,-0.112063 0.352643,-0.116024 0.354634,-0.134890 0.373605,-0.134890 0.375597,-0.153757 0.357044,-0.157717 0.359035,-0.176584 0.340482,-0.180545 0.334596,-0.162510 0.316043,-0.166471 0.318034,-0.185337 0.299481,-0.189298 0.293595,-0.171263 0.310912,-0.163516 0.305025,-0.145481 0.286472,-0.149442 0.280586,-0.131408 0.262033,-0.135368 0.264024,-0.154235 0.282995,-0.154235 0.284987,-0.173101 0.266434,-0.177062 0.268425,-0.195928 0.249872,-0.199889 0.243985,-0.181854 0.225432,-0.185815 0.227424,-0.204682 0.246395,-0.204682 0.248386,-0.223548 0.229833,-0.227509 0.231825,-0.246375 0.250796,-0.246375 0.252787,-0.265241 0.271759,-0.265241 0.273750,-0.246375 0.255197,-0.242414 0.257188,-0.223548 0.276160,-0.223548 0.278151,-0.204682 0.297122,-0.204682 0.299114,-0.223548 0.318085,-0.223548 0.320076,-0.204682 0.339047,-0.204682 0.341039,-0.223548 0.322486,-0.227509 0.324477,-0.246375 0.343448,-0.246375 0.345440,-0.265241 0.364411,-0.265241 0.366402,-0.246375 0.385373,-0.246375 0.387365,-0.265241 0.368812,-0.269202 0.370803,-0.288068 0.352250,-0.292029 0.346364,-0.273995 0.327811,-0.277956 0.329802,-0.296822 0.348773,-0.296822 0.350765,-0.315688 0.332212,-0.319649 0.334203,-0.338515 0.353174,-0.338515 0.355166,-0.357382 0.374137,-0.357382 0.376128,-0.338515 0.395099,-0.338515 0.397091,-0.357382 0.378538,-0.361342 0.380529,-0.380209 0.361976,-0.384170 0.356090,-0.366135 0.337537,-0.370096 0.339528,-0.388962 0.320975,-0.392923 0.315088,-0.374888 0.332406,-0.367141 0.326519,-0.349106 0.307966,-0.353067 0.302079,-0.335033 0.283526,-0.338993 0.285518,-0.357860 0.304489,-0.357860 0.306480,-0.376726 0.287927,-0.380687 0.289919,-0.399553 0.271366,-0.403514 0.265479,-0.385479 0.246926,-0.389440 0.248918,-0.408307 0.267889,-0.408307 0.269880,-0.427173 0.251327,-0.431134 0.253319,-0.450000 0.272290,-0.450000 0.274281,-0.468866 0.293252,-0.468866 0.295244,-0.450000 0.276691,-0.446039 0.278682,-0.427173 0.297653,-0.427173 0.299645,-0.408307 0.318616,-0.408307 0.320607,-0.427173 0.339578,-0.427173 0.341570,-0.408307 0.360541,-0.408307 0.362532,-0.427173 0.343979,-0.431134 0.345971,-0.450000 0.364942,-0.450000 0.366933,-0.468866 0.385905,-0.468866 0.387896,-0.450000 0.406867,-0.450000 0.408859,-0.468866 0.390305,-0.472827 0.392297,-0.491693 0.373744,-0.495654 0.367857,-0.477620 0.349304,-0.481581 0.351296,-0.500447 0.370267,-0.500447 0.372258,-0.519313 0.353705,-0.523274 0.355697,-0.542140 0.374668,-0.542140 0.376659,-0.561007 0.395630,-0.561007 0.397622,-0.542140 0.379069,-0.538179 0.381060,-0.519313 0.400031,-0.519313 0.402023,-0.500447 0.420994,-0.500447 0.422985,-0.519313 0.441957,-0.519313 0.443948,-0.500447 0.462919,-0.500447 0.464911,-0.519313 0.446358,-0.523274 0.448349,-0.542140 0.467320,-0.542140 0.469312,-0.561007 0.488283,-0.561007 0.490274,-0.542140 0.471721,-0.538179 0.473712,-0.519313 0.492684,-0.519313 0.494675,-0.500447 0.513646,-0.500447 0.515638,-0.519313 0.534609,-0.519313 0.536600,-0.500447 0.518047,-0.496486 0.520039,-0.477620 0.539010,-0.477620 0.541001,-0.458753 0.522448,-0.454792 0.524440,-0.435926 0.505887,-0.431965 0.500000,-0.450000 0.517317,-0.457747 0.511431,-0.475782 0.492878,-0.471821 0.486991,-0.489856 0.468438,-0.485895 0.470429,-0.467029 0.451876,-0.463068 0.445990,-0.481102 0.427437,-0.477142 0.429428,-0.458275 0.448399,-0.458275 0.450391,-0.439409 0.431838,-0.435448 0.433829,-0.416582 0.415276,-0.412621 0.409390,-0.430656 0.390837,-0.426695 0.392828,-0.407828 0.411799,-0.407828 0.413791,-0.388962 0.432762,-0.388962 0.434753,-0.407828 0.453724,-0.407828 0.455716,-0.388962 0.437163,-0.385001 0.439154,-0.366135 0.458125,-0.366135 0.460117,-0.347269 0.441564,-0.343308 0.443555,-0.324441 0.425002,-0.320481 0.419116,-0.338515 0.400563,-0.334554 0.402554,-0.315688 0.421525,-0.315688 0.423517,-0.296822 0.442488,-0.296822 0.444479,-0.315688 0.463450,-0.315688 0.465442,-0.296822 0.484413,-0.296822 0.486404,-0.315688 0.467851,-0.319649 0.469843,-0.338515 0.488814,-0.338515 0.490805,-0.357382 0.509776,-0.357382 0.511768,-0.338515 0.493215,-0.334554 0.495206,-0.315688 0.514177,-0.315688 0.516169,-0.296822 0.535140,-0.296822 0.537131,-0.315688 0.556102,-0.315688 0.558094,-0.296822 0.539541,-0.292861 0.541532,-0.273995 0.560503,-0.273995 0.562495,-0.255128 0.543942,-0.251167 0.545933,-0.232301 0.527380,-0.228340 0.521494,-0.246375 0.502941,-0.242414 0.504932,-0.223548 0.523903,-0.223548 0.525895,-0.204682 0.544866,-0.204682 0.546857,-0.223548 0.565828,-0.223548 0.567820,-0.204682 0.586791,-0.204682 0.588782,-0.223548 0.570229,-0.227509 0.572221,-0.246375 0.591192,-0.246375 0.593183,-0.265241 0.612155,-0.265241 0.614146,-0.246375 0.633117,-0.246375 0.635109,-0.265241 0.616555,-0.269202 0.618547,-0.288068 0.599994,-0.292029 0.594107,-0.273995 0.575554,-0.277956 0.577546,-0.296822 0.596517,-0.296822 0.598508,-0.315688 0.579955,-0.319649 0.581947,-0.338515 0.600918,-0.338515 0.602909,-0.357382 0.621880,-0.357382 0.623872,-0.338515 0.605319,-0.334554 0.607310,-0.315688 0.626281,-0.315688 0.628273,-0.296822 0.647244,-0.296822 0.649235,-0.315688 0.668207,-0.315688 0.670198,-0.296822 0.689169,-0.296822 0.691161,-0.315688 0.672608,-0.319649 0.674599,-0.338515 0.693570,-0.338515 0.695562,-0.357382 0.714533,-0.357382 0.716524,-0.338515 0.697971,-0.334554 0.699962,-0.315688 0.718934,-0.315688 0.720925,-0.296822 0.739896,-0.296822 0.741888,-0.315688 0.760859,-0.315688 0.762850,-0.296822 0.744297,-0.292861 0.746289,-0.273995 0.765260,-0.273995 0.767251,-0.255128 0.748698,-0.251167 0.750690,-0.232301 0.732137,-0.228340 0.726250,-0.246375 0.707697,-0.242414 0.709688,-0.223548 0.728660,-0.223548 0.730651,-0.204682 0.749622,-0.204682 0.751614,-0.223548 0.770585,-0.223548 0.772576,-0.204682 0.791547,-0.204682 0.793539,-0.223548 0.774986,-0.227509 0.776977,-0.246375 0.795948,-0.246375 0.797940,-0.265241 0.816911,-0.265241 0.818902,-0.246375 0.837873,-0.246375 0.839865,-0.265241 0.821312,-0.269202 0.823303,-0.288068 0.804750,-0.292029 0.798864,-0.273995 0.780311,-0.277956 0.782302,-0.296822 0.801273,-0.296822 0.803265,-0.315688 0.784712,-0.319649 0.786703,-0.338515 0.805674,-0.338515 0.807666,-0.357382 0.826637,-0.357382 0.828628,-0.338515 0.847599,-0.338515 0.849591,-0.357382 0.831038,-0.361342 0.833029,-0.380209 0.814476,-0.384170 0.808590,-0.366135 0.790037,-0.370096 0.792028,-0.388962 0.773475,-0.392923 0.767588,-0.374888 0.784906,-0.367141 0.779019,-0.349106 0.760466,-0.353067 0.754579,-0.335033 0.736026,-0.338993 0.738018,-0.357860 0.756989,-0.357860 0.758980,-0.376726 0.740427,-0.380687 0.742419,-0.399553 0.723866,-0.403514 0.717979,-0.385479 0.699426,-0.389440 0.701418,-0.408307 0.720389,-0.408307 0.722380,-0.427173 0.703827,-0.431134 0.705819,-0.450000 0.724790,-0.450000 0.726781,-0.468866 0.745752,-0.468866 0.747744,-0.450000 0.729191,-0.446039 0.731182,-0.427173 0.750153,-0.427173 0.752145,-0.408307 0.771116,-0.408307 0.773107,-0.427173 0.792078,-0.427173 0.794070,-0.408307 0.813041,-0.408307 0.815032,-0.427173 0.796479,-0.431134 0.798471,-0.450000 0.817442,-0.450000 0.819433,-0.468866 0.838405,-0.468866 0.840396,-0.450000 0.859367,-0.450000 0.861359,-0.468866 0.842805,-0.472827 0.844797,-0.491693 0.826244,-0.495654 0.820357,-0.477620 0.801804,-0.481581 0.803796,-0.500447 0.822767,-0.500447 0.824758,-0.519313 0.806205,-0.523274 0.808197,-0.542140 0.827168,-0.542140 0.829159,-0.561007 0.848130,-0.561007 0.850122,-0.542140 0.831569,-0.538179 0.833560,-0.519313 0.852531,-0.519313 0.854523,-0.500447 0.873494,-0.500447 0.875485,-0.519313 0.894457,-0.519313 0.896448,-0.500447 0.915419,-0.500447 0.917411,-0.519313 0.898858,-0.523274 0.900849,-0.542140 0.919820,-0.542140 0.921812,-0.561007 0.940783,-0.561007 0.942774,-0.542140 0.924221,-0.538179 0.926212,-0.519313 0.945184,-0.519313 0.947175,-0.500447 0.966146,-0.500447 0.968138,-0.519313 0.987109,-0.519313 0.989100,-0.500447 0.970547,-0.496486 0.972539,-0.477620 0.991510,-0.477620 0.993501,-0.458753 0.974948,-0.454792 0.976940,-0.435926 0.958387,-0.431965 0.952500,-0.450000 0.969817,-0.457747 0.963931,-0.475782 0.945378,-0.471821 0.939491,-0.489856 0.920938,-0.485895 0.922929,-0.467029 0.904376,-0.463068 0.898490,-0.481102 0.879937,-0.477142 0.881928,-0.458275 0.900899,-0.458275 0.902891,-0.439409 0.884338,-0.435448 0.886329,-0.416582 0.867776,-0.412621 0.861890,-0.430656 0.843337,-0.426695 0.845328,-0.407828 0.864299,-0.407828 0.866291,-0.388962 0.885262,-0.388962 0.887253,-0.407828 0.906224,-0.407828 0.908216,-0.388962 0.889663,-0.385001 0.891654,-0.366135 0.910625,-0.366135 0.912617,-0.347269 0.894064,-0.343308 0.896055,-0.324441 0.877502,-0.320481 0.871616,-0.338515 0.853063,-0.334554 0.855054,-0.315688 0.874025,-0.315688 0.876017,-0.296822 0.894988,-0.296822 0.896979,-0.315688 0.915950,-0.315688 0.917942,-0.296822 0.936913,-0.296822 0.938904,-0.315688 0.920351,-0.319649 0.922343,-0.338515 0.941314,-0.338515 0.943305,-0.357382 0.962276,-0.357382 0.964268,-0.338515 0.945715,-0.334554 0.947706,-0.315688 0.966677,-0.315688 0.968669,-0.296822 0.987640,-0.296822 0.989631,-0.315688 1.008602,-0.315688 1.010594,-0.296822 0.992041,-0.292861 0.994032,-0.273995 1.013003,-0.273995 1.014995,-0.255128 0.996442,-0.251167 0.998433,-0.232301 0.979880,-0.228340 0.973994,-0.246375 0.955441,-0.242414 0.957432,-0.223548 0.976403,-0.223548 0.978395,-0.204682 0.997366,-0.204682 0.999357,-0.223548 1.018328,-0.223548 1.020320,-0.204682 1.039291,-0.204682 1.041282,-0.223548 1.022729,-0.227509 1.024721,-0.246375 1.043692,-0.246375 1.045683,-0.265241 1.064655,-0.265241 1.066646,-0.246375 1.085617,-0.246375 1.087609,-0.265241 1.069055,-0.269202 1.071047,-0.288068 1.052494,-0.292029 1.046607,-0.273995 1.028054,-0.277956 1.030046,-0.296822 1.049017,-0.296822 1.051008,-0.315688 1.032455,-0.319649 1.034447,-0.338515 1.053418,-0.338515 1.055409,-0.357382 1.074380,-0.357382 1.076372,-0.338515 1.057819,-0.334554 1.059810,-0.315688 1.078781,-0.315688 1.080773,-0.296822 1.099744,-0.296822 1.101735,-0.315688 1.120707,-0.315688 1.122698,-0.296822 1.141669,-0.296822 1.143661,-0.315688 1.125108,-0.319649 1.127099,-0.338515 1.146070,-0.338515 1.148062,-0.357382 1.167033,-0.357382 1.169024,-0.338515 1.150471,-0.334554 1.152462,-0.315688 1.171434,-0.315688 1.173425,-0.296822 1.192396,-0.296822 1.194388,-0.315688 1.213359,-0.315688 1.215350,-0.296822 1.196797,-0.292861 1.198789,-0.273995 1.217760,-0.273995 1.219751,-0.255128 1.201198,-0.251167 1.203190,-0.232301 1.184637,-0.228340 1.178750,-0.246375 1.196067,-0.254122 1.190181,-0.272157 1.171628,-0.268196 1.165741,-0.286231 1.147188,-0.282270 1.149179,-0.263404 1.130626,-0.259443 1.124740,-0.277477 1.106187,-0.273517 1.108178,-0.254650 1.127149,-0.254650 1.129141,-0.235784 1.110588,-0.231823 1.112579,-0.212957 1.094026,-0.208996 1.088140,-0.227031 1.069587,-0.223070 1.071578,-0.204203 1.090549,-0.204203 1.092541,-0.185337 1.111512,-0.185337 1.113503,-0.204203 1.132474,-0.204203 1.134466,-0.185337 1.115913,-0.181376 1.117904,-0.162510 1.136875,-0.162510 1.138867,-0.143644 1.120314,-0.139683 1.122305,-0.120816 1.103752,-0.116856 1.097866,-0.134890 1.079313,-0.130929 1.081304,-0.112063 1.100275,-0.112063 1.102267,-0.093197 1.121238,-0.093197 1.123229,-0.112063 1.142200,-0.112063 1.144192,-0.093197 1.163163,-0.093197 1.165154,-0.112063 1.146601,-0.116024 1.148593,-0.134890 1.167564,-0.134890 1.169555,-0.153757 1.188526,-0.153757 1.190518,-0.134890 1.171965,-0.130929 1.173956,-0.112063 1.192927,-0.112063 1.194919,-0.093197 1.213890,-0.093197 1.215881,-0.112063 1.234852,-0.112063 1.236844,-0.093197 1.218291,-0.089236 1.220282,-0.070370 1.239253,-0.070370 1.241245,-0.051503 1.222692,-0.047542 1.224683,-0.028676 1.206130,-0.024715 1.200244,-0.042750 1.217561,-0.050497 1.211674,-0.068532 1.193121,-0.064571 1.187235,-0.082606 1.168682,-0.078645 1.170673,-0.059779 1.152120,-0.055818 1.146234,-0.073852 1.127681,-0.069892 1.129672,-0.051025 1.148643,-0.051025 1.150635,-0.032159 1.132082,-0.028198 1.134073,-0.009332 1.115520,-0.005371 1.109633,-0.023406 1.091080,-0.019445 1.093072,-0.000578 1.112043,-0.000578 1.114034,0.018288 1.133006,0.018288 1.134997,-0.000578 1.153968,-0.000578 1.155960,0.018288 1.137407,0.022249 1.139398,0.041115 1.158369,0.041115 1.160361,0.059981 1.141808,0.063942 1.143799,0.082809 1.125246,0.086769 1.119359,0.068735 1.136677,0.060988 1.130790,0.042953 1.112237,0.046914 1.106350,0.028879 1.087797,0.032840 1.089789,0.051706 1.071236,0.055667 1.065349,0.037632 1.046796,0.041593 1.048788,0.060459 1.067759,0.060459 1.069750,0.079326 1.051197,0.083287 1.053189,0.102153 1.034636,0.106114 1.028749,0.088079 1.046066,0.080332 1.040180,0.062297 1.021627,0.066258 1.015740,0.048223 0.997187,0.052184 0.999179,0.071050 0.980626,0.075011 0.974739,0.056977 0.992056,0.049229 0.986170,0.031195 0.967617,0.035156 0.961730,0.017121 0.979047,0.009374 0.973161,-0.008661 0.990478,-0.016408 1.000000,0.000000 " />
	</g>
</svg>